<?xml version="1.0" encoding="utf-8"?>
<!-- Generator: Adobe Illustrator 16.0.0, SVG Export Plug-In . SVG Version: 6.00 Build 0)  -->
<!DOCTYPE svg PUBLIC "-//W3C//DTD SVG 1.1//EN" "http://www.w3.org/Graphics/SVG/1.1/DTD/svg11.dtd">
<svg version="1.1" id="Layer_1" xmlns="http://www.w3.org/2000/svg" xmlns:xlink="http://www.w3.org/1999/xlink" x="0px" y="0px"
	 width="273.627px" height="232.379px" viewBox="-20.624 20.811 273.627 232.379"
	 enable-background="new -20.624 20.811 273.627 232.379" xml:space="preserve">
<g id="redheart" transform="translate(0,137)">
	<g opacity="0.68">
		<path id="heart" fill="#FFFFFF" d="M116.189,116.189c250-150,100-300,0-200C16.189-183.811-133.811-33.811,116.189,116.189z"/>
	</g>
</g>
<text transform="matrix(1 0 0 1 41.3457 123.5669)" font-family="'DancingScript'" font-size="21">are getting married!</text>
<text transform="matrix(1 0 0 1 22.6909 97.9155)" stroke="#000000" stroke-miterlimit="10" font-family="'DancingScript'" font-size="40">Sarah &amp; Jim</text>
<text transform="matrix(1 0 0 1 61.7822 152.5615)" stroke="#000000" stroke-width="0.5" stroke-miterlimit="10" font-family="'Constantia'" font-size="21">24 Oct 2020</text>
<text transform="matrix(1 0 0 1 70.064 178.958)" font-family="'DancingScript'" font-size="18">Save the date!</text>
<path fill="none" stroke="#000000" stroke-width="2" stroke-miterlimit="10" d="M92.529,232.117
	c3.467,2.785,8.312,4.582,12.193,7.154c3.797,2.517,7.495,5.447,11.256,7.741c-0.024,0.286-0.04,0.289-0.048,0.011
	c2.302-3.054,8.292-5.365,11.543-7.844c3.829-2.919,7.964-5.255,11.765-8.195c-15.449,0.24-30.979,0.761-46.709,0.761"/>
</svg>
