<?xml version="1.0" encoding="utf-8"?>
<!-- Generator: Adobe Illustrator 16.0.0, SVG Export Plug-In . SVG Version: 6.00 Build 0)  -->
<!DOCTYPE svg PUBLIC "-//W3C//DTD SVG 1.1//EN" "http://www.w3.org/Graphics/SVG/1.1/DTD/svg11.dtd">
<svg version="1.1" id="Layer_1" xmlns="http://www.w3.org/2000/svg" xmlns:xlink="http://www.w3.org/1999/xlink" x="0px" y="0px"
	 width="273.627px" height="232.379px" viewBox="0 0 273.627 232.379" enable-background="new 0 0 273.627 232.379"
	 xml:space="preserve">
<g id="redheart" transform="translate(0,137)">
	<g opacity="0.68">
		<path id="heart" fill="#FFFFFF" d="M136.881,95.555c250-150.001,100-300.001,0-200.001
			C36.881-204.446-113.119-54.446,136.881,95.555z"/>
	</g>
</g>
<g>
	<path stroke="#000000" stroke-miterlimit="10" d="M47.658,59.855c0-1.12,0.266-2.3,0.8-3.54c0.533-1.24,1.293-2.393,2.28-3.46
		c0.986-1.066,2.186-1.946,3.6-2.64s2.986-1.04,4.72-1.04c1.546,0,2.633,0.38,3.26,1.14c0.626,0.76,0.94,1.714,0.94,2.86
		c0,0.72-0.1,1.494-0.3,2.32c-0.2,0.827-0.454,1.634-0.76,2.42c-0.307,0.787-0.64,1.534-1,2.24c-0.36,0.707-0.7,1.313-1.02,1.82
		c-0.48-0.106-0.82-0.306-1.02-0.6c-0.2-0.293-0.3-0.666-0.3-1.12c0-0.56,0.12-1.206,0.36-1.94c0.24-0.733,0.513-1.48,0.82-2.24
		c0.306-0.76,0.58-1.506,0.82-2.24c0.24-0.733,0.36-1.393,0.36-1.98c0-0.533-0.16-0.953-0.48-1.26c-0.32-0.306-0.907-0.46-1.76-0.46
		c-1.253,0-2.42,0.3-3.5,0.9s-2.014,1.347-2.8,2.24c-0.787,0.894-1.4,1.854-1.84,2.88c-0.44,1.027-0.66,1.954-0.66,2.78
		c0,0.987,0.293,1.834,0.88,2.54c0.586,0.707,1.326,1.354,2.22,1.94c0.893,0.587,1.853,1.154,2.88,1.7
		c1.026,0.547,1.986,1.174,2.88,1.88c0.893,0.707,1.633,1.534,2.22,2.48c0.586,0.947,0.88,2.1,0.88,3.46
		c0,1.387-0.314,2.607-0.94,3.66c-0.627,1.054-1.44,1.94-2.44,2.66c-1,0.72-2.12,1.267-3.36,1.64c-1.24,0.373-2.474,0.56-3.7,0.56
		c-1.094,0-2.14-0.147-3.14-0.44c-1-0.294-1.887-0.734-2.66-1.32c-0.773-0.587-1.394-1.334-1.86-2.24s-0.7-1.96-0.7-3.16
		c0-1.04,0.167-1.906,0.5-2.6c0.333-0.693,0.747-1.24,1.24-1.64c0.493-0.4,1.04-0.687,1.64-0.86s1.18-0.26,1.74-0.26
		c-0.72,0.774-1.267,1.627-1.64,2.56c-0.374,0.934-0.56,1.867-0.56,2.8c0,0.747,0.126,1.454,0.38,2.12
		c0.253,0.667,0.626,1.26,1.12,1.78c0.493,0.52,1.126,0.933,1.9,1.24c0.773,0.306,1.68,0.46,2.72,0.46c0.906,0,1.8-0.127,2.68-0.38
		c0.88-0.254,1.673-0.62,2.38-1.1s1.28-1.086,1.72-1.82s0.66-1.58,0.66-2.54c0-1.146-0.3-2.126-0.9-2.94
		c-0.6-0.813-1.354-1.546-2.26-2.2c-0.907-0.653-1.88-1.273-2.92-1.86c-1.04-0.586-2.014-1.213-2.92-1.88
		c-0.907-0.667-1.66-1.42-2.26-2.26S47.658,61.056,47.658,59.855z"/>
	<path stroke="#000000" stroke-miterlimit="10" d="M76.257,69.496c0.106,0.027,0.253,0.067,0.44,0.12
		c0.186,0.054,0.366,0.12,0.54,0.2c0.173,0.08,0.32,0.174,0.44,0.28c0.12,0.107,0.18,0.24,0.18,0.4c0,0.24-0.12,0.574-0.36,1
		c-0.24,0.427-0.507,0.9-0.8,1.42c-0.294,0.52-0.56,1.054-0.8,1.6c-0.24,0.547-0.36,1.06-0.36,1.54c0,0.4,0.106,0.793,0.32,1.18
		c0.213,0.387,0.56,0.58,1.04,0.58c0.72,0,1.667-0.52,2.84-1.56c1.173-1.04,2.36-2.626,3.56-4.76l0.4,0.4
		c-0.427,1.094-0.947,2.087-1.56,2.98c-0.614,0.894-1.274,1.66-1.98,2.3c-0.707,0.64-1.434,1.133-2.18,1.48
		c-0.747,0.346-1.48,0.52-2.2,0.52c-0.987,0-1.714-0.294-2.18-0.88c-0.467-0.586-0.7-1.226-0.7-1.92c0-0.32,0.04-0.706,0.12-1.16
		c-1.174,1.547-2.227,2.707-3.16,3.48c-0.934,0.773-1.894,1.16-2.88,1.16c-0.854,0-1.56-0.273-2.12-0.82
		c-0.56-0.547-0.84-1.38-0.84-2.5c0-0.8,0.154-1.653,0.46-2.56c0.307-0.906,0.727-1.82,1.26-2.74c0.533-0.92,1.16-1.8,1.88-2.64
		c0.72-0.84,1.486-1.58,2.3-2.22s1.66-1.153,2.54-1.54c0.88-0.386,1.76-0.58,2.64-0.58c1.04,0,1.906,0.274,2.6,0.82
		c0.693,0.547,1.04,1.273,1.04,2.18c0,0.667-0.18,1.12-0.54,1.36c-0.36,0.24-0.834,0.36-1.42,0.36c0.133-0.48,0.2-0.946,0.2-1.4
		c0-0.613-0.147-1.14-0.44-1.58c-0.294-0.44-0.8-0.66-1.52-0.66c-0.64,0-1.28,0.187-1.92,0.56c-0.64,0.374-1.267,0.874-1.88,1.5
		c-0.614,0.627-1.187,1.34-1.72,2.14c-0.534,0.8-1.007,1.62-1.42,2.46c-0.414,0.84-0.734,1.667-0.96,2.48
		c-0.227,0.814-0.34,1.54-0.34,2.18c0,1.04,0.36,1.56,1.08,1.56c0.613,0,1.307-0.32,2.08-0.96c0.773-0.64,1.546-1.413,2.32-2.32
		c0.773-0.906,1.513-1.86,2.22-2.86C75.184,71.076,75.777,70.216,76.257,69.496z"/>
	<path stroke="#000000" stroke-miterlimit="10" d="M82.577,72.896c0.373-0.693,0.86-1.706,1.46-3.04
		c0.6-1.333,1.193-2.853,1.78-4.56c-0.267-0.266-0.4-0.586-0.4-0.96c0-0.4,0.066-0.766,0.2-1.1c0.133-0.333,0.293-0.62,0.48-0.86
		c0.186-0.24,0.373-0.426,0.56-0.56c0.186-0.133,0.333-0.2,0.44-0.2c0.293,0,0.46,0.127,0.5,0.38c0.04,0.254,0.06,0.447,0.06,0.58
		c0,0.08-0.02,0.194-0.06,0.34c-0.04,0.147-0.094,0.3-0.16,0.46c-0.067,0.16-0.12,0.307-0.16,0.44c-0.04,0.134-0.06,0.214-0.06,0.24
		c0,0.374,0.213,0.714,0.64,1.02c0.426,0.307,0.893,0.654,1.4,1.04c0.506,0.387,0.973,0.854,1.4,1.4
		c0.426,0.547,0.64,1.247,0.64,2.1c0,0.614-0.106,1.233-0.32,1.86c-0.214,0.627-0.44,1.234-0.68,1.82
		c-0.24,0.587-0.467,1.14-0.68,1.66c-0.214,0.52-0.32,0.994-0.32,1.42c0,0.48,0.12,0.8,0.36,0.96c0.24,0.16,0.52,0.24,0.84,0.24
		c0.64,0,1.306-0.2,2-0.6c0.693-0.4,1.353-0.9,1.98-1.5c0.626-0.6,1.193-1.246,1.7-1.94c0.506-0.693,0.88-1.333,1.12-1.92l0.52,0.4
		c-0.374,0.854-0.86,1.7-1.46,2.54c-0.6,0.84-1.273,1.587-2.02,2.24c-0.747,0.654-1.534,1.187-2.36,1.6
		c-0.827,0.413-1.667,0.62-2.52,0.62c-0.907,0-1.62-0.24-2.14-0.72s-0.78-1.106-0.78-1.88c0-0.586,0.113-1.206,0.34-1.86
		c0.227-0.653,0.48-1.306,0.76-1.96c0.28-0.653,0.533-1.293,0.76-1.92s0.34-1.207,0.34-1.74c0-0.426-0.067-0.793-0.2-1.1
		c-0.134-0.306-0.314-0.573-0.54-0.8c-0.227-0.226-0.474-0.426-0.74-0.6c-0.267-0.173-0.52-0.353-0.76-0.54
		c-0.32,0.8-0.64,1.58-0.96,2.34c-0.32,0.76-0.64,1.474-0.96,2.14c-0.32,0.667-0.62,1.28-0.9,1.84c-0.28,0.56-0.527,1.014-0.74,1.36
		L82.577,72.896z"/>
	<path stroke="#000000" stroke-miterlimit="10" d="M107.697,69.496c0.106,0.027,0.253,0.067,0.44,0.12
		c0.186,0.054,0.366,0.12,0.54,0.2c0.173,0.08,0.32,0.174,0.44,0.28c0.12,0.107,0.18,0.24,0.18,0.4c0,0.24-0.12,0.574-0.36,1
		c-0.24,0.427-0.507,0.9-0.8,1.42c-0.294,0.52-0.56,1.054-0.8,1.6c-0.24,0.547-0.36,1.06-0.36,1.54c0,0.4,0.106,0.793,0.32,1.18
		c0.213,0.387,0.56,0.58,1.04,0.58c0.72,0,1.667-0.52,2.84-1.56c1.173-1.04,2.36-2.626,3.56-4.76l0.4,0.4
		c-0.427,1.094-0.947,2.087-1.56,2.98c-0.614,0.894-1.274,1.66-1.98,2.3c-0.707,0.64-1.434,1.133-2.18,1.48
		c-0.747,0.346-1.48,0.52-2.2,0.52c-0.987,0-1.714-0.294-2.18-0.88c-0.467-0.586-0.7-1.226-0.7-1.92c0-0.32,0.04-0.706,0.12-1.16
		c-1.174,1.547-2.227,2.707-3.16,3.48c-0.934,0.773-1.894,1.16-2.88,1.16c-0.854,0-1.56-0.273-2.12-0.82
		c-0.56-0.547-0.84-1.38-0.84-2.5c0-0.8,0.154-1.653,0.46-2.56c0.307-0.906,0.727-1.82,1.26-2.74c0.533-0.92,1.16-1.8,1.88-2.64
		c0.72-0.84,1.486-1.58,2.3-2.22s1.66-1.153,2.54-1.54c0.88-0.386,1.76-0.58,2.64-0.58c1.04,0,1.906,0.274,2.6,0.82
		c0.693,0.547,1.04,1.273,1.04,2.18c0,0.667-0.18,1.12-0.54,1.36c-0.36,0.24-0.834,0.36-1.42,0.36c0.133-0.48,0.2-0.946,0.2-1.4
		c0-0.613-0.147-1.14-0.44-1.58c-0.294-0.44-0.8-0.66-1.52-0.66c-0.64,0-1.28,0.187-1.92,0.56c-0.64,0.374-1.267,0.874-1.88,1.5
		c-0.614,0.627-1.187,1.34-1.72,2.14c-0.534,0.8-1.007,1.62-1.42,2.46c-0.414,0.84-0.734,1.667-0.96,2.48
		c-0.227,0.814-0.34,1.54-0.34,2.18c0,1.04,0.36,1.56,1.08,1.56c0.613,0,1.307-0.32,2.08-0.96c0.773-0.64,1.546-1.413,2.32-2.32
		c0.773-0.906,1.513-1.86,2.22-2.86C106.624,71.076,107.217,70.216,107.697,69.496z"/>
	<path stroke="#000000" stroke-miterlimit="10" d="M123.856,76.416c0-0.426,0.066-0.886,0.2-1.38c0.133-0.493,0.273-1.006,0.42-1.54
		c0.146-0.533,0.286-1.066,0.42-1.6c0.133-0.533,0.2-1.04,0.2-1.52c0-0.693-0.147-1.186-0.44-1.48
		c-0.294-0.293-0.654-0.44-1.08-0.44c-0.667,0-1.267,0.274-1.8,0.82c-0.534,0.547-1.02,1.227-1.46,2.04
		c-0.44,0.814-0.847,1.7-1.22,2.66c-0.374,0.96-0.74,1.847-1.1,2.66s-0.714,1.493-1.06,2.04c-0.347,0.546-0.707,0.82-1.08,0.82
		c-0.24,0-0.467-0.12-0.68-0.36c-0.214-0.24-0.387-0.554-0.52-0.94c-0.134-0.386-0.24-0.827-0.32-1.32
		c-0.08-0.493-0.12-1.006-0.12-1.54c0-1.28,0.213-2.806,0.64-4.58c0.426-1.773,0.986-3.62,1.68-5.54c0.693-1.92,1.48-3.82,2.36-5.7
		s1.76-3.573,2.64-5.08c0.88-1.506,1.726-2.72,2.54-3.64c0.813-0.92,1.513-1.38,2.1-1.38c0.24,0,0.446,0.08,0.62,0.24
		c0.173,0.16,0.307,0.367,0.4,0.62c0.093,0.254,0.166,0.527,0.22,0.82c0.053,0.293,0.08,0.574,0.08,0.84
		c0,0.614-0.12,1.354-0.36,2.22c-0.24,0.867-0.567,1.787-0.98,2.76c-0.414,0.974-0.907,1.967-1.48,2.98
		c-0.574,1.014-1.2,1.98-1.88,2.9c-0.68,0.92-1.407,1.76-2.18,2.52c-0.774,0.76-1.547,1.38-2.32,1.86
		c-0.24,0.587-0.454,1.227-0.64,1.92c-0.187,0.694-0.34,1.394-0.46,2.1c-0.12,0.707-0.214,1.394-0.28,2.06
		c-0.067,0.667-0.1,1.267-0.1,1.8c0,0.293,0.006,0.547,0.02,0.76c0.013,0.214,0.033,0.414,0.06,0.6c0.48-1.36,1-2.666,1.56-3.92
		c0.56-1.253,1.18-2.36,1.86-3.32c0.68-0.96,1.413-1.72,2.2-2.28c0.786-0.56,1.62-0.84,2.5-0.84c0.56,0,1.033,0.107,1.42,0.32
		c0.386,0.214,0.7,0.487,0.94,0.82c0.24,0.333,0.413,0.72,0.52,1.16c0.106,0.44,0.16,0.874,0.16,1.3c0,0.614-0.087,1.22-0.26,1.82
		s-0.374,1.18-0.6,1.74c-0.227,0.56-0.427,1.106-0.6,1.64c-0.174,0.534-0.26,1.04-0.26,1.52c0,0.534,0.113,0.92,0.34,1.16
		c0.226,0.24,0.513,0.36,0.86,0.36c0.453,0,0.96-0.173,1.52-0.52c0.56-0.346,1.12-0.806,1.68-1.38c0.56-0.573,1.106-1.246,1.64-2.02
		c0.533-0.773,1-1.6,1.4-2.48l0.52,0.48c-0.427,0.987-0.92,1.9-1.48,2.74c-0.56,0.84-1.174,1.574-1.84,2.2
		c-0.667,0.627-1.367,1.12-2.1,1.48c-0.734,0.36-1.487,0.54-2.26,0.54c-0.934,0-1.627-0.24-2.08-0.72
		C124.083,77.735,123.856,77.136,123.856,76.416z M125.977,52.656c-0.214,0-0.607,0.367-1.18,1.1c-0.574,0.734-1.22,1.707-1.94,2.92
		c-0.72,1.213-1.447,2.6-2.18,4.16c-0.734,1.56-1.354,3.154-1.86,4.78c0.906-0.747,1.8-1.727,2.68-2.94s1.666-2.453,2.36-3.72
		c0.693-1.266,1.247-2.453,1.66-3.56c0.413-1.106,0.62-1.913,0.62-2.42C126.137,52.763,126.083,52.656,125.977,52.656z"/>
	<path stroke="#000000" stroke-miterlimit="10" d="M158.216,68.176c0.026-0.56,0.153-1.02,0.38-1.38
		c0.227-0.36,0.526-0.646,0.9-0.86c0.373-0.213,0.807-0.36,1.3-0.44s1.021-0.12,1.58-0.12c1.2,0,2.313,0.107,3.34,0.32
		s1.953,0.333,2.78,0.36c-0.294,0.614-0.58,0.98-0.86,1.1c-0.279,0.12-0.554,0.18-0.819,0.18c-0.454,0.027-0.874,0.04-1.261,0.04
		s-0.739,0-1.06,0c-0.187,1.84-0.693,3.607-1.521,5.3c-0.826,1.693-1.859,3.187-3.1,4.48c-1.24,1.293-2.646,2.333-4.22,3.12
		c-1.574,0.787-3.214,1.18-4.92,1.18c-1.2,0-2.28-0.194-3.24-0.58c-0.96-0.387-1.78-0.914-2.46-1.58s-1.2-1.44-1.561-2.32
		c-0.359-0.88-0.539-1.813-0.539-2.8c0-1.227,0.267-2.433,0.8-3.62c0.533-1.187,1.272-2.253,2.22-3.2
		c0.946-0.946,2.046-1.74,3.3-2.38c1.253-0.64,2.601-1.026,4.04-1.16c-1.04-0.853-1.807-1.84-2.3-2.96
		c-0.494-1.12-0.74-2.24-0.74-3.36c0-1.066,0.206-2.093,0.62-3.08c0.413-0.986,0.986-1.866,1.72-2.64
		c0.733-0.773,1.606-1.393,2.62-1.86c1.014-0.466,2.12-0.7,3.32-0.7c2.906,0,4.36,1.414,4.36,4.24c0,0.747-0.094,1.487-0.28,2.22
		c-0.188,0.733-0.434,1.387-0.74,1.96c-0.307,0.574-0.64,1.04-1,1.4s-0.7,0.54-1.02,0.54c-0.294,0-0.574-0.126-0.841-0.38
		s-0.479-0.553-0.64-0.9c0.934-0.826,1.713-1.686,2.34-2.58s0.94-1.86,0.94-2.9c0-0.826-0.22-1.5-0.66-2.02s-1.127-0.78-2.06-0.78
		c-0.935,0-1.761,0.227-2.48,0.68c-0.72,0.454-1.32,1.054-1.8,1.8c-0.48,0.747-0.847,1.614-1.101,2.6
		c-0.253,0.987-0.38,2.014-0.38,3.08c0,0.48,0.033,0.987,0.101,1.52c0.066,0.534,0.18,1.067,0.34,1.6
		c0.16,0.534,0.393,1.054,0.7,1.56c0.306,0.507,0.699,0.96,1.18,1.36c-1.334,0.213-2.547,0.66-3.64,1.34
		c-1.094,0.68-2.027,1.494-2.801,2.44c-0.773,0.947-1.366,1.967-1.779,3.06c-0.414,1.094-0.62,2.174-0.62,3.24
		c0,0.667,0.093,1.34,0.28,2.02c0.186,0.68,0.479,1.3,0.88,1.86c0.399,0.56,0.926,1.02,1.58,1.38c0.652,0.36,1.446,0.54,2.38,0.54
		c1.413,0,2.786-0.36,4.12-1.08c1.333-0.72,2.525-1.673,3.579-2.86s1.934-2.54,2.641-4.06c0.706-1.52,1.153-3.08,1.34-4.68
		c-0.427,0.027-0.807,0.054-1.14,0.08c-0.334,0.027-0.667,0.06-1,0.1c-0.334,0.04-0.667,0.094-1,0.16
		c-0.334,0.067-0.714,0.14-1.141,0.22L158.216,68.176z"/>
	<path stroke="#000000" stroke-miterlimit="10" d="M184.055,52.096c0.134-0.906,0.714-1.606,1.74-2.1
		c1.026-0.493,2.62-0.74,4.78-0.74c0.8,0,1.613,0.034,2.44,0.1c0.826,0.067,1.619,0.14,2.38,0.22c0.76,0.08,1.446,0.167,2.06,0.26
		c0.613,0.094,1.106,0.18,1.48,0.26c-0.16,0.24-0.367,0.44-0.62,0.6c-0.254,0.16-0.527,0.28-0.82,0.36
		c-0.294,0.08-0.587,0.134-0.88,0.16c-0.294,0.027-0.547,0.04-0.76,0.04c-0.534,0-1.034,0.007-1.5,0.02
		c-0.467,0.014-0.914,0.02-1.34,0.02c0.293,0.214,0.506,0.507,0.64,0.88c0.133,0.374,0.2,0.707,0.2,1s-0.067,0.887-0.2,1.78
		c-0.134,0.894-0.32,1.974-0.561,3.24c-0.239,1.267-0.533,2.66-0.88,4.18s-0.733,3.06-1.16,4.62s-0.88,3.08-1.359,4.56
		c-0.48,1.48-0.987,2.807-1.521,3.98c-0.533,1.2-1.066,2.18-1.6,2.94c-0.534,0.76-1.067,1.36-1.6,1.8
		c-0.534,0.44-1.08,0.74-1.641,0.9c-0.56,0.16-1.134,0.24-1.72,0.24c-0.48,0-0.974-0.06-1.48-0.18
		c-0.507-0.12-0.967-0.367-1.38-0.74c-0.413-0.374-0.76-0.9-1.04-1.58c-0.279-0.68-0.42-1.58-0.42-2.7
		c0-0.773,0.074-1.56,0.221-2.36c0.146-0.8,0.347-1.52,0.6-2.16c0.254-0.64,0.566-1.167,0.939-1.58
		c0.374-0.413,0.801-0.62,1.28-0.62c0.32,0,0.693,0.107,1.12,0.32c-0.96,2.454-1.439,4.587-1.439,6.4c0,1.2,0.213,2.133,0.64,2.8
		c0.426,0.666,1.053,1,1.88,1c0.347,0,0.666-0.067,0.96-0.2c0.293-0.134,0.586-0.36,0.88-0.68c0.293-0.32,0.58-0.747,0.86-1.28
		s0.566-1.213,0.859-2.04c0.347-0.96,0.714-2.113,1.101-3.46c0.386-1.346,0.78-2.786,1.18-4.32c0.4-1.533,0.786-3.1,1.16-4.7
		c0.373-1.6,0.727-3.146,1.06-4.64c0.334-1.493,0.634-2.88,0.9-4.16c0.267-1.28,0.48-2.36,0.64-3.24c-0.986,0-1.847,0.02-2.58,0.06
		s-1.399,0.087-2,0.14c-0.6,0.054-1.173,0.127-1.72,0.22C185.288,51.81,184.695,51.936,184.055,52.096z"/>
	<path stroke="#000000" stroke-miterlimit="10" d="M199.415,64.416c0.24,0,0.446,0.074,0.62,0.22s0.261,0.367,0.261,0.66
		c0,0.32-0.221,0.847-0.66,1.58c-0.44,0.734-0.92,1.56-1.44,2.48c-0.52,0.92-0.993,1.894-1.42,2.92
		c-0.427,1.027-0.64,2.007-0.64,2.94c0,0.96,0.16,1.6,0.479,1.92c0.32,0.32,0.813,0.48,1.48,0.48c0.453,0,0.92-0.106,1.399-0.32
		c0.48-0.213,0.98-0.56,1.5-1.04c0.521-0.48,1.054-1.106,1.601-1.88c0.546-0.773,1.1-1.733,1.66-2.88l0.359,0.4
		c-0.399,1.147-0.887,2.167-1.46,3.06c-0.573,0.894-1.207,1.64-1.899,2.24c-0.694,0.6-1.428,1.053-2.2,1.36
		c-0.774,0.306-1.547,0.46-2.32,0.46c-1.04,0-1.813-0.327-2.32-0.98c-0.507-0.653-0.76-1.446-0.76-2.38
		c0-0.506,0.08-1.133,0.24-1.88c0.16-0.746,0.38-1.54,0.66-2.38s0.6-1.673,0.96-2.5c0.359-0.826,0.753-1.573,1.18-2.24
		s0.873-1.207,1.34-1.62C198.502,64.623,198.962,64.416,199.415,64.416z M201.535,60.696c-0.453,0-0.84-0.106-1.16-0.32
		c-0.319-0.213-0.479-0.546-0.479-1c0-0.266,0.093-0.526,0.28-0.78c0.186-0.253,0.42-0.48,0.699-0.68
		c0.28-0.2,0.594-0.353,0.94-0.46c0.347-0.106,0.68-0.16,1-0.16c0.4,0,0.72,0.094,0.96,0.28c0.24,0.187,0.36,0.507,0.36,0.96
		c0,0.24-0.074,0.494-0.221,0.76c-0.146,0.267-0.347,0.5-0.6,0.7c-0.254,0.2-0.534,0.367-0.84,0.5
		C202.169,60.629,201.855,60.696,201.535,60.696z"/>
	<path stroke="#000000" stroke-miterlimit="10" d="M213.896,78.855c-0.16,0-0.354-0.014-0.58-0.04
		c-0.228-0.027-0.454-0.074-0.681-0.14c-0.227-0.067-0.413-0.154-0.56-0.26c-0.146-0.107-0.22-0.227-0.22-0.36
		c0-0.187,0.133-0.64,0.399-1.36c0.267-0.72,0.554-1.54,0.86-2.46c0.307-0.92,0.593-1.873,0.86-2.86
		c0.266-0.986,0.399-1.826,0.399-2.52c0-0.453-0.073-0.82-0.22-1.1c-0.147-0.28-0.407-0.42-0.78-0.42c-0.587,0-1.294,0.36-2.12,1.08
		c-0.826,0.72-1.674,1.64-2.54,2.76c-0.866,1.12-1.699,2.374-2.5,3.76c-0.8,1.387-1.439,2.76-1.92,4.12
		c-0.187,0-0.406-0.027-0.66-0.08c-0.253-0.054-0.486-0.12-0.699-0.2c-0.214-0.08-0.4-0.167-0.561-0.26
		c-0.16-0.094-0.24-0.194-0.24-0.3c0-0.16,0.141-0.64,0.42-1.44c0.28-0.8,0.594-1.74,0.94-2.82s0.666-2.2,0.96-3.36
		c0.293-1.16,0.44-2.18,0.44-3.06c0.159-0.187,0.413-0.373,0.76-0.56c0.346-0.186,0.706-0.28,1.08-0.28c0.72,0,1.08,0.347,1.08,1.04
		c0,0.374-0.101,0.974-0.3,1.8c-0.2,0.827-0.447,1.747-0.74,2.76c0.533-0.853,1.14-1.726,1.819-2.62
		c0.681-0.894,1.387-1.713,2.12-2.46s1.486-1.354,2.261-1.82c0.772-0.466,1.52-0.7,2.239-0.7c0.826,0,1.394,0.3,1.7,0.9
		s0.46,1.313,0.46,2.14c0,0.507-0.047,1.034-0.14,1.58c-0.094,0.547-0.2,1.08-0.32,1.6s-0.254,0.994-0.399,1.42
		c-0.147,0.427-0.274,0.774-0.381,1.04c0.427-0.746,0.881-1.493,1.36-2.24c0.48-0.747,1-1.406,1.56-1.98
		c0.561-0.573,1.146-1.04,1.761-1.4c0.613-0.36,1.266-0.54,1.96-0.54c0.853,0,1.446,0.253,1.779,0.76c0.334,0.507,0.5,1.107,0.5,1.8
		c0,0.534-0.079,1.1-0.239,1.7s-0.327,1.2-0.5,1.8c-0.174,0.6-0.34,1.174-0.5,1.72c-0.16,0.547-0.24,1.034-0.24,1.46
		c0,0.374,0.086,0.694,0.26,0.96c0.173,0.267,0.486,0.4,0.94,0.4c0.56,0,1.093-0.2,1.6-0.6c0.507-0.4,0.986-0.914,1.44-1.54
		c0.453-0.626,0.873-1.307,1.26-2.04c0.386-0.733,0.74-1.446,1.06-2.14l0.48,0.56c-0.32,0.854-0.714,1.7-1.18,2.54
		c-0.467,0.84-0.987,1.607-1.561,2.3c-0.573,0.694-1.214,1.253-1.92,1.68c-0.707,0.426-1.46,0.64-2.26,0.64
		c-0.934,0-1.614-0.287-2.04-0.86c-0.427-0.573-0.64-1.26-0.64-2.06c0-0.48,0.06-0.973,0.18-1.48c0.12-0.506,0.26-1.006,0.42-1.5
		c0.16-0.493,0.3-0.966,0.42-1.42c0.12-0.453,0.18-0.88,0.18-1.28c0-0.533-0.12-0.906-0.359-1.12c-0.24-0.213-0.507-0.32-0.801-0.32
		c-0.666,0-1.394,0.514-2.18,1.54c-0.787,1.027-1.807,2.5-3.06,4.42c-0.427,0.64-0.787,1.287-1.08,1.94
		C214.441,77.729,214.161,78.322,213.896,78.855z"/>
</g>
<g>
	<path d="M68.472,106.914c0,0.479,0.169,0.719,0.508,0.719c0.234,0,0.428-0.036,0.582-0.109c0.153-0.073,0.256-0.109,0.309-0.109
		c0.109,0,0.164,0.058,0.164,0.172c0,0.448-0.234,0.833-0.703,1.156c-0.495,0.339-1,0.422-1.516,0.25
		c-0.339-0.12-0.589-0.378-0.75-0.773c-0.078-0.203-0.117-0.388-0.117-0.555c0-0.271,0.026-0.558,0.078-0.859
		c-0.484,0.989-1.086,1.672-1.805,2.047c-0.287,0.146-0.591,0.219-0.914,0.219c-0.323,0-0.603-0.066-0.84-0.199
		c-0.237-0.133-0.439-0.316-0.605-0.551c-0.339-0.489-0.492-1.104-0.461-1.844c0.031-0.927,0.305-1.836,0.82-2.727
		c0.474-0.833,1.073-1.513,1.797-2.039c0.724-0.536,1.401-0.805,2.031-0.805c0.63,0,1.138,0.289,1.523,0.867
		c0.359-0.578,0.677-0.867,0.953-0.867c0.297,0,0.521,0.055,0.672,0.164c0.286,0.208,0.388,0.391,0.305,0.547
		c-1.308,2.677-1.979,4.344-2.016,5C68.477,106.71,68.472,106.809,68.472,106.914z M64.136,106.945c0,0.625,0.2,0.938,0.602,0.938
		c0.307,0,0.685-0.261,1.133-0.781c0.656-0.766,1.237-1.797,1.742-3.094c0.161-0.406,0.297-0.812,0.406-1.219
		c-0.021-0.354-0.169-0.614-0.445-0.781c-0.094-0.058-0.233-0.086-0.418-0.086c-0.185,0-0.401,0.067-0.648,0.203
		c-0.248,0.136-0.487,0.32-0.719,0.555c-0.232,0.234-0.448,0.512-0.648,0.832c-0.201,0.32-0.376,0.668-0.527,1.043
		C64.295,105.356,64.136,106.153,64.136,106.945z"/>
	<path d="M71.136,108.804c-0.104-0.078-0.188-0.165-0.25-0.262s-0.097-0.18-0.102-0.25c-0.005-0.07,0.009-0.156,0.043-0.258
		c0.034-0.102,0.079-0.226,0.137-0.371c1.062-2.614,1.594-4.37,1.594-5.266c-0.016-0.25-0.102-0.427-0.258-0.531l-0.156-0.109
		c-0.047-0.036-0.072-0.101-0.074-0.191c-0.003-0.091,0.03-0.179,0.098-0.262c0.067-0.083,0.156-0.156,0.266-0.219
		c0.224-0.12,0.454-0.18,0.691-0.18c0.237,0,0.422,0.026,0.555,0.078s0.246,0.122,0.34,0.211c0.198,0.188,0.298,0.386,0.301,0.594
		c0.002,0.208-0.021,0.419-0.07,0.633c-0.05,0.214-0.108,0.423-0.176,0.629c-0.068,0.206-0.136,0.401-0.203,0.586
		c-0.068,0.185-0.112,0.321-0.133,0.41c-0.042,0.183-0.058,0.297-0.047,0.344c0.125-0.109,0.2-0.216,0.227-0.32l0.305-0.578
		c0.677-1.219,1.338-2.026,1.984-2.422c0.188-0.109,0.413-0.164,0.676-0.164c0.263,0,0.475,0.093,0.637,0.277
		c0.161,0.185,0.246,0.39,0.254,0.613s-0.008,0.41-0.047,0.559s-0.098,0.288-0.176,0.418c-0.172,0.292-0.38,0.438-0.625,0.438
		c-0.068,0-0.13-0.023-0.188-0.07l-0.172-0.148c-0.172-0.151-0.337-0.227-0.496-0.227c-0.159,0-0.352,0.104-0.578,0.312
		s-0.462,0.477-0.707,0.805c-0.823,1.089-1.495,2.308-2.016,3.656l-0.344,0.906c-0.089,0.224-0.167,0.384-0.234,0.48
		c-0.068,0.097-0.168,0.145-0.301,0.145s-0.266-0.024-0.398-0.074S71.24,108.882,71.136,108.804z"/>
	<path d="M77.707,106.257c0.021-0.453,0.096-0.887,0.227-1.301c0.13-0.414,0.305-0.815,0.523-1.203s0.475-0.755,0.77-1.102
		c0.294-0.347,0.613-0.649,0.957-0.91c0.745-0.558,1.497-0.836,2.258-0.836c0.891,0,1.484,0.367,1.781,1.102
		c0.104,0.25,0.153,0.546,0.148,0.887c-0.005,0.341-0.07,0.656-0.195,0.945s-0.298,0.552-0.52,0.789
		c-0.222,0.237-0.484,0.449-0.789,0.637s-0.637,0.347-0.996,0.477c-0.74,0.261-1.531,0.396-2.375,0.406
		c-0.021,0.073-0.034,0.183-0.039,0.328c-0.005,0.146,0.01,0.309,0.047,0.488c0.036,0.18,0.099,0.34,0.188,0.48
		c0.188,0.312,0.458,0.469,0.812,0.469c0.604,0,1.192-0.177,1.766-0.531c0.203-0.12,0.368-0.243,0.496-0.371
		c0.127-0.128,0.238-0.191,0.332-0.191s0.176,0.056,0.246,0.168s0.105,0.238,0.105,0.379c0,0.276-0.078,0.516-0.234,0.719
		c-0.656,0.656-1.633,0.984-2.93,0.984c-0.766,0-1.38-0.229-1.844-0.688C77.92,107.862,77.675,107.153,77.707,106.257z
		 M82.269,101.945c-0.547,0-1.073,0.375-1.578,1.125c-0.427,0.646-0.771,1.411-1.031,2.297c0.87-0.089,1.625-0.433,2.266-1.031
		c0.588-0.562,0.883-1.102,0.883-1.617S82.628,101.945,82.269,101.945z"/>
	<path d="M94.667,107.289c-0.792,1.188-1.669,1.781-2.633,1.781c-0.87,0-1.456-0.464-1.758-1.391
		c-0.104-0.317-0.156-0.708-0.156-1.172s0.066-0.929,0.199-1.395s0.313-0.907,0.543-1.324c0.229-0.417,0.499-0.801,0.809-1.152
		c0.31-0.352,0.642-0.655,0.996-0.91c0.739-0.547,1.474-0.82,2.203-0.82c0.729,0,1.25,0.341,1.562,1.023
		c0.062-0.067,0.12-0.137,0.172-0.207c0.052-0.07,0.109-0.137,0.172-0.199c0.135-0.136,0.254-0.203,0.355-0.203
		s0.208,0.019,0.32,0.055c0.112,0.036,0.22,0.086,0.324,0.148c0.255,0.151,0.352,0.292,0.289,0.422
		c-0.287,0.62-0.526,1.229-0.719,1.828l-1.156,3.688c-0.912,2.797-2.068,4.604-3.469,5.422c-0.37,0.219-0.69,0.345-0.961,0.379
		c-0.271,0.034-0.466,0.035-0.586,0.004c-0.12-0.031-0.227-0.075-0.32-0.133c-0.203-0.13-0.305-0.247-0.305-0.352
		c0-0.183,0.121-0.294,0.363-0.336s0.496-0.14,0.762-0.293s0.518-0.34,0.758-0.559C93.417,110.682,94.162,109.247,94.667,107.289z
		 M92.328,104.578c-0.138,0.375-0.246,0.759-0.324,1.152s-0.117,0.715-0.117,0.965s0.008,0.44,0.023,0.57s0.047,0.245,0.094,0.344
		c0.104,0.219,0.258,0.328,0.461,0.328s0.403-0.071,0.602-0.215c0.198-0.144,0.406-0.34,0.625-0.59s0.438-0.544,0.656-0.883
		s0.427-0.703,0.625-1.094c0.438-0.864,0.745-1.69,0.922-2.477c-0.026-0.146-0.115-0.294-0.266-0.445
		c-0.297-0.286-0.565-0.43-0.805-0.43c-0.24,0-0.479,0.074-0.719,0.223c-0.24,0.148-0.468,0.349-0.684,0.602
		c-0.216,0.253-0.418,0.547-0.605,0.883S92.465,104.203,92.328,104.578z"/>
	<path d="M98.597,106.257c0.021-0.453,0.096-0.887,0.227-1.301c0.13-0.414,0.305-0.815,0.523-1.203s0.475-0.755,0.77-1.102
		c0.294-0.347,0.613-0.649,0.957-0.91c0.745-0.558,1.497-0.836,2.258-0.836c0.891,0,1.484,0.367,1.781,1.102
		c0.104,0.25,0.153,0.546,0.148,0.887c-0.005,0.341-0.07,0.656-0.195,0.945s-0.298,0.552-0.52,0.789
		c-0.222,0.237-0.484,0.449-0.789,0.637s-0.637,0.347-0.996,0.477c-0.74,0.261-1.531,0.396-2.375,0.406
		c-0.021,0.073-0.034,0.183-0.039,0.328c-0.005,0.146,0.01,0.309,0.047,0.488c0.036,0.18,0.099,0.34,0.188,0.48
		c0.188,0.312,0.458,0.469,0.812,0.469c0.604,0,1.192-0.177,1.766-0.531c0.203-0.12,0.368-0.243,0.496-0.371
		c0.127-0.128,0.238-0.191,0.332-0.191s0.176,0.056,0.246,0.168s0.105,0.238,0.105,0.379c0,0.276-0.078,0.516-0.234,0.719
		c-0.656,0.656-1.633,0.984-2.93,0.984c-0.766,0-1.38-0.229-1.844-0.688C98.811,107.862,98.566,107.153,98.597,106.257z
		 M103.16,101.945c-0.547,0-1.073,0.375-1.578,1.125c-0.427,0.646-0.771,1.411-1.031,2.297c0.87-0.089,1.625-0.433,2.266-1.031
		c0.588-0.562,0.883-1.102,0.883-1.617S103.519,101.945,103.16,101.945z"/>
	<path d="M110.613,106.945c0.151,0,0.227,0.102,0.227,0.305c0,0.172-0.052,0.339-0.156,0.5c-0.141,0.302-0.422,0.589-0.844,0.859
		c-0.479,0.308-0.961,0.461-1.445,0.461c-0.839,0-1.37-0.375-1.594-1.125c-0.266-0.891,0.133-2.778,1.195-5.664
		c-0.599-0.052-0.925-0.156-0.977-0.312c-0.016-0.047-0.023-0.098-0.023-0.152s0.024-0.118,0.074-0.191
		c0.049-0.073,0.113-0.144,0.191-0.211c0.182-0.151,0.367-0.227,0.555-0.227h0.617c0.562-1.317,0.963-2.067,1.203-2.25
		c0.114-0.083,0.242-0.125,0.383-0.125s0.258,0.019,0.352,0.055s0.177,0.089,0.25,0.156c0.167,0.156,0.25,0.331,0.25,0.523
		c0,0.104-0.031,0.224-0.094,0.359l-0.578,1.258h0.188c0.323,0,0.583-0.003,0.781-0.008l0.445-0.008
		c0.099-0.005,0.223-0.008,0.371-0.008s0.223,0.055,0.223,0.164c0,0.688-0.812,1.031-2.438,1.031h-0.062l-0.531,1.375
		c-0.599,1.625-0.898,2.763-0.898,3.414c0,0.183,0.042,0.324,0.125,0.426c0.083,0.102,0.239,0.152,0.469,0.152
		c0.229,0,0.438-0.039,0.625-0.117s0.352-0.165,0.492-0.262s0.262-0.184,0.363-0.262S110.54,106.945,110.613,106.945z"/>
	<path d="M116.355,106.945c0.151,0,0.227,0.102,0.227,0.305c0,0.172-0.052,0.339-0.156,0.5c-0.141,0.302-0.422,0.589-0.844,0.859
		c-0.479,0.308-0.961,0.461-1.445,0.461c-0.839,0-1.37-0.375-1.594-1.125c-0.266-0.891,0.133-2.778,1.195-5.664
		c-0.599-0.052-0.925-0.156-0.977-0.312c-0.016-0.047-0.023-0.098-0.023-0.152s0.024-0.118,0.074-0.191
		c0.049-0.073,0.113-0.144,0.191-0.211c0.182-0.151,0.367-0.227,0.555-0.227h0.617c0.562-1.317,0.963-2.067,1.203-2.25
		c0.114-0.083,0.242-0.125,0.383-0.125s0.258,0.019,0.352,0.055s0.177,0.089,0.25,0.156c0.167,0.156,0.25,0.331,0.25,0.523
		c0,0.104-0.031,0.224-0.094,0.359l-0.578,1.258h0.188c0.323,0,0.583-0.003,0.781-0.008l0.445-0.008
		c0.099-0.005,0.223-0.008,0.371-0.008s0.223,0.055,0.223,0.164c0,0.688-0.812,1.031-2.438,1.031h-0.062l-0.531,1.375
		c-0.599,1.625-0.898,2.763-0.898,3.414c0,0.183,0.042,0.324,0.125,0.426c0.083,0.102,0.239,0.152,0.469,0.152
		c0.229,0,0.438-0.039,0.625-0.117s0.352-0.165,0.492-0.262s0.262-0.184,0.363-0.262S116.282,106.945,116.355,106.945z"/>
	<path d="M120.167,107.531c0.135,0,0.203,0.089,0.203,0.266c0,0.234-0.107,0.477-0.32,0.727c-0.312,0.364-0.732,0.547-1.258,0.547
		c-0.604,0-1.019-0.245-1.242-0.734c-0.083-0.172-0.125-0.38-0.125-0.625s0.043-0.517,0.129-0.816s0.192-0.614,0.32-0.945
		c0.127-0.331,0.267-0.665,0.418-1.004l0.414-0.984c0.302-0.734,0.453-1.219,0.453-1.453s-0.025-0.39-0.074-0.465
		c-0.05-0.075-0.103-0.134-0.16-0.176l-0.156-0.109c-0.052-0.036-0.078-0.101-0.078-0.191s0.035-0.179,0.105-0.262
		s0.163-0.156,0.277-0.219c0.234-0.12,0.508-0.18,0.82-0.18c0.766,0,1.148,0.2,1.148,0.602c0,0.469-0.123,1.004-0.367,1.605
		c-0.245,0.602-0.453,1.087-0.625,1.457l-0.469,1.078c-0.344,0.792-0.516,1.362-0.516,1.711c0,0.229,0.114,0.344,0.344,0.344
		c0.224,0,0.393-0.028,0.508-0.086C120.032,107.559,120.115,107.531,120.167,107.531z M121.769,99.074
		c-0.115,0.122-0.245,0.222-0.391,0.297c-0.146,0.075-0.3,0.122-0.461,0.141c-0.162,0.019-0.314-0.007-0.457-0.074
		c-0.144-0.067-0.267-0.164-0.371-0.289c-0.224-0.261-0.336-0.523-0.336-0.789s0.043-0.465,0.129-0.598s0.194-0.241,0.324-0.324
		c0.25-0.161,0.485-0.242,0.707-0.242c0.221,0,0.393,0.016,0.516,0.047c0.122,0.031,0.235,0.083,0.34,0.156
		c0.255,0.172,0.383,0.382,0.383,0.629s-0.035,0.453-0.105,0.617S121.883,98.952,121.769,99.074z"/>
	<path d="M127.761,102.382c-0.162,0-0.391,0.155-0.688,0.465s-0.555,0.593-0.773,0.848l-0.664,0.797l-1.281,1.633
		c-0.302,0.573-0.539,1.05-0.711,1.43l-0.422,0.906c-0.109,0.224-0.205,0.382-0.285,0.473c-0.081,0.091-0.19,0.137-0.328,0.137
		c-0.138,0-0.271-0.024-0.398-0.074c-0.128-0.05-0.238-0.113-0.332-0.191c-0.198-0.167-0.297-0.349-0.297-0.547
		c0-0.078,0.057-0.231,0.172-0.461l0.297-0.633c0.094-0.188,0.203-0.427,0.328-0.719l0.438-1.07
		c0.614-1.536,0.922-2.528,0.922-2.977c0-0.239-0.078-0.417-0.234-0.531l-0.156-0.109c-0.052-0.036-0.078-0.101-0.078-0.191
		s0.035-0.179,0.105-0.262s0.163-0.156,0.277-0.219c0.234-0.12,0.47-0.18,0.707-0.18c0.237,0,0.42,0.026,0.551,0.078
		c0.13,0.052,0.239,0.122,0.328,0.211c0.192,0.183,0.289,0.372,0.289,0.57s-0.025,0.397-0.074,0.598
		c-0.05,0.2-0.112,0.403-0.188,0.609c-0.076,0.206-0.155,0.407-0.238,0.605c-0.083,0.198-0.159,0.37-0.227,0.516l-0.156,0.336
		c-0.042,0.083-0.052,0.109-0.031,0.078c0.578-0.802,0.958-1.317,1.141-1.547l0.547-0.656c0.401-0.469,0.716-0.778,0.945-0.93
		c0.463-0.312,0.828-0.469,1.094-0.469s0.489,0.034,0.672,0.102c0.182,0.067,0.341,0.164,0.477,0.289
		c0.286,0.266,0.43,0.604,0.43,1.016s-0.094,0.841-0.281,1.289s-0.351,0.812-0.488,1.09c-0.138,0.278-0.27,0.562-0.395,0.848
		c-0.391,0.87-0.586,1.503-0.586,1.898c0,0.177,0.141,0.266,0.422,0.266c0.219,0,0.418-0.047,0.598-0.141s0.295-0.141,0.348-0.141
		c0.109,0,0.164,0.055,0.164,0.164c0,0.464-0.237,0.852-0.711,1.164c-0.318,0.214-0.609,0.32-0.875,0.32s-0.486-0.028-0.66-0.086
		c-0.175-0.058-0.33-0.148-0.465-0.273c-0.308-0.276-0.461-0.661-0.461-1.156c0-0.604,0.19-1.359,0.57-2.266
		c0.276-0.62,0.471-1.044,0.586-1.273l0.266-0.555c0.161-0.333,0.242-0.597,0.242-0.789S128.047,102.382,127.761,102.382z"/>
	<path d="M135.683,107.289c-0.792,1.188-1.669,1.781-2.633,1.781c-0.87,0-1.456-0.464-1.758-1.391
		c-0.104-0.317-0.156-0.708-0.156-1.172s0.066-0.929,0.199-1.395s0.313-0.907,0.543-1.324c0.229-0.417,0.499-0.801,0.809-1.152
		c0.31-0.352,0.642-0.655,0.996-0.91c0.739-0.547,1.474-0.82,2.203-0.82c0.729,0,1.25,0.341,1.562,1.023
		c0.062-0.067,0.12-0.137,0.172-0.207c0.053-0.07,0.109-0.137,0.172-0.199c0.136-0.136,0.254-0.203,0.355-0.203
		s0.209,0.019,0.32,0.055c0.112,0.036,0.221,0.086,0.324,0.148c0.256,0.151,0.352,0.292,0.289,0.422
		c-0.286,0.62-0.525,1.229-0.719,1.828l-1.156,3.688c-0.912,2.797-2.068,4.604-3.469,5.422c-0.37,0.219-0.69,0.345-0.961,0.379
		c-0.271,0.034-0.466,0.035-0.586,0.004c-0.12-0.031-0.227-0.075-0.32-0.133c-0.203-0.13-0.305-0.247-0.305-0.352
		c0-0.183,0.121-0.294,0.363-0.336s0.496-0.14,0.762-0.293s0.518-0.34,0.758-0.559C134.433,110.682,135.178,109.247,135.683,107.289
		z M133.343,104.578c-0.138,0.375-0.246,0.759-0.324,1.152s-0.117,0.715-0.117,0.965s0.008,0.44,0.023,0.57s0.047,0.245,0.094,0.344
		c0.104,0.219,0.258,0.328,0.461,0.328s0.403-0.071,0.602-0.215c0.198-0.144,0.406-0.34,0.625-0.59s0.438-0.544,0.656-0.883
		s0.427-0.703,0.625-1.094c0.438-0.864,0.745-1.69,0.922-2.477c-0.026-0.146-0.115-0.294-0.266-0.445
		c-0.297-0.286-0.565-0.43-0.805-0.43c-0.24,0-0.479,0.074-0.719,0.223c-0.24,0.148-0.468,0.349-0.684,0.602
		c-0.216,0.253-0.418,0.547-0.605,0.883S133.481,104.203,133.343,104.578z"/>
	<path d="M150.339,102.382c-0.302,0-0.854,0.438-1.656,1.312c-0.599,0.683-1.033,1.195-1.305,1.539l-0.703,0.891
		c-0.302,0.573-0.539,1.05-0.711,1.43l-0.422,0.906c-0.109,0.224-0.204,0.382-0.285,0.473c-0.08,0.091-0.189,0.137-0.328,0.137
		c-0.138,0-0.271-0.024-0.398-0.074c-0.127-0.05-0.238-0.113-0.332-0.191c-0.197-0.167-0.297-0.349-0.297-0.547
		c0-0.078,0.058-0.231,0.172-0.461l0.297-0.633c0.094-0.188,0.203-0.427,0.328-0.719l0.438-1.07
		c0.615-1.536,0.922-2.528,0.922-2.977c0-0.239-0.078-0.417-0.234-0.531l-0.156-0.109c-0.052-0.036-0.078-0.101-0.078-0.191
		s0.035-0.179,0.105-0.262s0.163-0.156,0.277-0.219c0.234-0.12,0.471-0.18,0.707-0.18c0.237,0,0.424,0.026,0.559,0.078
		c0.136,0.052,0.253,0.122,0.352,0.211c0.198,0.183,0.297,0.372,0.297,0.57s-0.025,0.397-0.078,0.598
		c-0.052,0.2-0.117,0.403-0.195,0.609s-0.161,0.405-0.25,0.598c-0.208,0.448-0.337,0.723-0.387,0.824
		c-0.049,0.102-0.063,0.14-0.043,0.113c0.953-1.234,1.526-1.964,1.719-2.188c0.401-0.464,0.714-0.781,0.938-0.953
		c0.412-0.308,0.801-0.461,1.168-0.461s0.66,0.114,0.879,0.344s0.328,0.531,0.328,0.906c0,0.328-0.083,0.714-0.25,1.156
		c-0.166,0.442-0.278,0.753-0.336,0.93l1.148-1.516l0.641-0.766c0.386-0.433,0.725-0.716,1.016-0.852
		c0.292-0.136,0.53-0.203,0.715-0.203c0.186,0,0.367,0.034,0.547,0.102s0.332,0.164,0.457,0.289
		c0.266,0.255,0.398,0.594,0.398,1.016c0,0.406-0.094,0.823-0.281,1.25s-0.352,0.777-0.492,1.051s-0.275,0.548-0.406,0.824
		c-0.38,0.828-0.57,1.442-0.57,1.844c0,0.281,0.115,0.422,0.344,0.422c0.219,0,0.418-0.047,0.598-0.141s0.296-0.141,0.348-0.141
		c0.109,0,0.164,0.055,0.164,0.164c0,0.464-0.236,0.852-0.711,1.164c-0.317,0.214-0.607,0.32-0.871,0.32
		c-0.263,0-0.475-0.031-0.637-0.094c-0.161-0.062-0.307-0.161-0.438-0.297c-0.291-0.302-0.438-0.68-0.438-1.133
		s0.058-0.87,0.172-1.25c0.115-0.38,0.25-0.749,0.406-1.105s0.314-0.685,0.473-0.984c0.159-0.3,0.28-0.538,0.363-0.715
		c0.167-0.364,0.25-0.633,0.25-0.805c0-0.203-0.106-0.305-0.32-0.305c-0.281,0-0.786,0.466-1.516,1.398
		c-0.552,0.724-0.935,1.245-1.148,1.562l-0.539,0.781c-0.302,0.573-0.533,1.05-0.695,1.43l-0.398,0.906
		c-0.099,0.224-0.185,0.382-0.258,0.473c-0.072,0.091-0.174,0.137-0.305,0.137c-0.13,0-0.256-0.021-0.379-0.062
		c-0.122-0.042-0.228-0.097-0.316-0.164c-0.203-0.151-0.305-0.312-0.305-0.48s0.057-0.401,0.168-0.695
		c0.112-0.294,0.252-0.624,0.418-0.988l1.094-2.312c0.391-0.859,0.586-1.405,0.586-1.637S150.553,102.382,150.339,102.382z
		 M151.112,104.585c0.006,0,0.008-0.003,0.008-0.008l0.008-0.016C151.118,104.573,151.112,104.581,151.112,104.585z"/>
	<path d="M163.519,106.914c0,0.479,0.17,0.719,0.508,0.719c0.234,0,0.429-0.036,0.582-0.109c0.154-0.073,0.257-0.109,0.309-0.109
		c0.109,0,0.164,0.058,0.164,0.172c0,0.448-0.234,0.833-0.703,1.156c-0.494,0.339-1,0.422-1.516,0.25
		c-0.338-0.12-0.588-0.378-0.75-0.773c-0.078-0.203-0.117-0.388-0.117-0.555c0-0.271,0.026-0.558,0.078-0.859
		c-0.484,0.989-1.086,1.672-1.805,2.047c-0.286,0.146-0.591,0.219-0.914,0.219c-0.322,0-0.603-0.066-0.84-0.199
		c-0.236-0.133-0.438-0.316-0.605-0.551c-0.338-0.489-0.492-1.104-0.461-1.844c0.031-0.927,0.305-1.836,0.82-2.727
		c0.475-0.833,1.073-1.513,1.797-2.039c0.725-0.536,1.401-0.805,2.031-0.805c0.631,0,1.139,0.289,1.523,0.867
		c0.359-0.578,0.678-0.867,0.953-0.867c0.297,0,0.521,0.055,0.672,0.164c0.287,0.208,0.389,0.391,0.305,0.547
		c-1.307,2.677-1.979,4.344-2.016,5C163.524,106.71,163.519,106.809,163.519,106.914z M159.183,106.945
		c0,0.625,0.201,0.938,0.602,0.938c0.308,0,0.686-0.261,1.133-0.781c0.656-0.766,1.237-1.797,1.742-3.094
		c0.162-0.406,0.297-0.812,0.406-1.219c-0.021-0.354-0.169-0.614-0.445-0.781c-0.094-0.058-0.232-0.086-0.418-0.086
		c-0.185,0-0.4,0.067-0.648,0.203c-0.247,0.136-0.486,0.32-0.719,0.555c-0.231,0.234-0.447,0.512-0.648,0.832
		c-0.2,0.32-0.376,0.668-0.527,1.043C159.342,105.356,159.183,106.153,159.183,106.945z"/>
	<path d="M166.183,108.804c-0.104-0.078-0.188-0.165-0.25-0.262s-0.096-0.18-0.102-0.25c-0.005-0.07,0.01-0.156,0.043-0.258
		c0.034-0.102,0.08-0.226,0.137-0.371c1.062-2.614,1.594-4.37,1.594-5.266c-0.016-0.25-0.102-0.427-0.258-0.531l-0.156-0.109
		c-0.047-0.036-0.071-0.101-0.074-0.191c-0.002-0.091,0.03-0.179,0.098-0.262c0.068-0.083,0.156-0.156,0.266-0.219
		c0.225-0.12,0.455-0.18,0.691-0.18c0.237,0,0.422,0.026,0.555,0.078s0.246,0.122,0.34,0.211c0.198,0.188,0.299,0.386,0.301,0.594
		c0.003,0.208-0.021,0.419-0.07,0.633c-0.049,0.214-0.107,0.423-0.176,0.629c-0.067,0.206-0.135,0.401-0.203,0.586
		c-0.067,0.185-0.111,0.321-0.133,0.41c-0.041,0.183-0.057,0.297-0.047,0.344c0.125-0.109,0.201-0.216,0.227-0.32l0.305-0.578
		c0.678-1.219,1.339-2.026,1.984-2.422c0.188-0.109,0.413-0.164,0.676-0.164c0.264,0,0.476,0.093,0.637,0.277
		c0.162,0.185,0.246,0.39,0.254,0.613s-0.008,0.41-0.047,0.559s-0.098,0.288-0.176,0.418c-0.172,0.292-0.38,0.438-0.625,0.438
		c-0.067,0-0.13-0.023-0.188-0.07l-0.172-0.148c-0.172-0.151-0.337-0.227-0.496-0.227c-0.158,0-0.352,0.104-0.578,0.312
		s-0.462,0.477-0.707,0.805c-0.822,1.089-1.494,2.308-2.016,3.656l-0.344,0.906c-0.088,0.224-0.166,0.384-0.234,0.48
		c-0.067,0.097-0.168,0.145-0.301,0.145s-0.266-0.024-0.398-0.074S166.287,108.882,166.183,108.804z"/>
	<path d="M172.706,108.804c-0.104-0.078-0.188-0.165-0.25-0.262s-0.096-0.18-0.102-0.25c-0.005-0.07,0.01-0.156,0.043-0.258
		c0.034-0.102,0.08-0.226,0.137-0.371c1.062-2.614,1.594-4.37,1.594-5.266c-0.016-0.25-0.102-0.427-0.258-0.531l-0.156-0.109
		c-0.047-0.036-0.071-0.101-0.074-0.191c-0.002-0.091,0.03-0.179,0.098-0.262c0.068-0.083,0.156-0.156,0.266-0.219
		c0.225-0.12,0.455-0.18,0.691-0.18c0.237,0,0.422,0.026,0.555,0.078s0.246,0.122,0.34,0.211c0.198,0.188,0.299,0.386,0.301,0.594
		c0.003,0.208-0.021,0.419-0.07,0.633c-0.049,0.214-0.107,0.423-0.176,0.629c-0.067,0.206-0.135,0.401-0.203,0.586
		c-0.067,0.185-0.111,0.321-0.133,0.41c-0.041,0.183-0.057,0.297-0.047,0.344c0.125-0.109,0.201-0.216,0.227-0.32l0.305-0.578
		c0.678-1.219,1.339-2.026,1.984-2.422c0.188-0.109,0.413-0.164,0.676-0.164c0.264,0,0.476,0.093,0.637,0.277
		c0.162,0.185,0.246,0.39,0.254,0.613s-0.008,0.41-0.047,0.559s-0.098,0.288-0.176,0.418c-0.172,0.292-0.38,0.438-0.625,0.438
		c-0.067,0-0.13-0.023-0.188-0.07l-0.172-0.148c-0.172-0.151-0.337-0.227-0.496-0.227c-0.158,0-0.352,0.104-0.578,0.312
		s-0.462,0.477-0.707,0.805c-0.822,1.089-1.494,2.308-2.016,3.656l-0.344,0.906c-0.088,0.224-0.166,0.384-0.234,0.48
		c-0.067,0.097-0.168,0.145-0.301,0.145s-0.266-0.024-0.398-0.074S172.811,108.882,172.706,108.804z"/>
	<path d="M181.815,107.531c0.136,0,0.203,0.089,0.203,0.266c0,0.234-0.106,0.477-0.32,0.727c-0.312,0.364-0.731,0.547-1.258,0.547
		c-0.604,0-1.018-0.245-1.242-0.734c-0.083-0.172-0.125-0.38-0.125-0.625s0.043-0.517,0.129-0.816s0.193-0.614,0.32-0.945
		c0.128-0.331,0.268-0.665,0.418-1.004l0.414-0.984c0.303-0.734,0.453-1.219,0.453-1.453s-0.024-0.39-0.074-0.465
		c-0.049-0.075-0.103-0.134-0.16-0.176l-0.156-0.109c-0.052-0.036-0.078-0.101-0.078-0.191s0.035-0.179,0.105-0.262
		s0.163-0.156,0.277-0.219c0.234-0.12,0.508-0.18,0.82-0.18c0.766,0,1.148,0.2,1.148,0.602c0,0.469-0.122,1.004-0.367,1.605
		c-0.244,0.602-0.453,1.087-0.625,1.457l-0.469,1.078c-0.344,0.792-0.516,1.362-0.516,1.711c0,0.229,0.115,0.344,0.344,0.344
		c0.225,0,0.394-0.028,0.508-0.086C181.681,107.559,181.764,107.531,181.815,107.531z M183.417,99.074
		c-0.114,0.122-0.244,0.222-0.391,0.297c-0.146,0.075-0.299,0.122-0.461,0.141c-0.161,0.019-0.313-0.007-0.457-0.074
		c-0.143-0.067-0.267-0.164-0.371-0.289c-0.224-0.261-0.336-0.523-0.336-0.789s0.043-0.465,0.129-0.598s0.194-0.241,0.324-0.324
		c0.25-0.161,0.486-0.242,0.707-0.242c0.222,0,0.394,0.016,0.516,0.047c0.123,0.031,0.236,0.083,0.34,0.156
		c0.256,0.172,0.383,0.382,0.383,0.629s-0.035,0.453-0.105,0.617S183.532,98.952,183.417,99.074z"/>
	<path d="M183.854,106.257c0.021-0.453,0.097-0.887,0.227-1.301c0.131-0.414,0.305-0.815,0.523-1.203s0.476-0.755,0.77-1.102
		c0.295-0.347,0.613-0.649,0.957-0.91c0.745-0.558,1.498-0.836,2.258-0.836c0.891,0,1.484,0.367,1.781,1.102
		c0.104,0.25,0.154,0.546,0.148,0.887c-0.005,0.341-0.07,0.656-0.195,0.945s-0.298,0.552-0.52,0.789
		c-0.221,0.237-0.484,0.449-0.789,0.637s-0.637,0.347-0.996,0.477c-0.739,0.261-1.531,0.396-2.375,0.406
		c-0.021,0.073-0.033,0.183-0.039,0.328c-0.005,0.146,0.011,0.309,0.047,0.488c0.037,0.18,0.1,0.34,0.188,0.48
		c0.188,0.312,0.459,0.469,0.812,0.469c0.604,0,1.193-0.177,1.766-0.531c0.203-0.12,0.369-0.243,0.496-0.371
		c0.128-0.128,0.238-0.191,0.332-0.191s0.176,0.056,0.246,0.168s0.105,0.238,0.105,0.379c0,0.276-0.078,0.516-0.234,0.719
		c-0.656,0.656-1.633,0.984-2.93,0.984c-0.766,0-1.38-0.229-1.844-0.688C184.068,107.862,183.823,107.153,183.854,106.257z
		 M188.417,101.945c-0.547,0-1.072,0.375-1.578,1.125c-0.427,0.646-0.771,1.411-1.031,2.297c0.87-0.089,1.625-0.433,2.266-1.031
		c0.589-0.562,0.883-1.102,0.883-1.617S188.776,101.945,188.417,101.945z"/>
	<path d="M199.128,107.414c0.109,0,0.164,0.058,0.164,0.172c0,0.448-0.231,0.833-0.695,1.156c-0.307,0.219-0.598,0.328-0.871,0.328
		s-0.49-0.031-0.652-0.094c-0.161-0.062-0.307-0.161-0.438-0.297c-0.291-0.312-0.438-0.742-0.438-1.289
		c0-0.109,0.021-0.284,0.062-0.523c-0.422,0.651-0.783,1.109-1.086,1.375c-0.609,0.552-1.205,0.828-1.789,0.828
		c-0.922,0-1.525-0.417-1.812-1.25c-0.104-0.308-0.156-0.692-0.156-1.156s0.07-0.933,0.211-1.406s0.332-0.925,0.574-1.352
		s0.523-0.824,0.844-1.191s0.658-0.687,1.012-0.957c0.761-0.567,1.448-0.852,2.062-0.852c0.615,0,1.107,0.25,1.477,0.75
		c0.906-3.104,1.589-4.935,2.047-5.492c0.193-0.229,0.396-0.344,0.609-0.344c0.354,0,0.623,0.102,0.805,0.305
		c0.058,0.067,0.086,0.136,0.086,0.203s-0.041,0.192-0.125,0.375c-0.083,0.183-0.205,0.477-0.367,0.883
		c-0.463,1.224-0.789,2.12-0.977,2.688c-0.479,1.453-0.802,2.453-0.969,3l-0.43,1.445c-0.369,1.286-0.555,2.104-0.555,2.453
		s0.128,0.523,0.383,0.523c0.234,0,0.422-0.031,0.562-0.094l0.297-0.141C199.021,107.429,199.076,107.414,199.128,107.414z
		 M193.761,107.898c0.537,0,1.151-0.523,1.844-1.57c0.725-1.083,1.229-2.263,1.516-3.539c-0.021-0.354-0.169-0.614-0.445-0.781
		c-0.094-0.058-0.235-0.086-0.426-0.086c-0.189,0-0.411,0.069-0.664,0.207c-0.252,0.138-0.497,0.324-0.734,0.559
		c-0.236,0.234-0.458,0.509-0.664,0.824c-0.205,0.315-0.384,0.649-0.535,1.004c-0.328,0.771-0.492,1.527-0.492,2.27
		S193.36,107.898,193.761,107.898z"/>
	<path d="M201.319,108.726c-0.117-0.114-0.209-0.246-0.277-0.395c-0.067-0.148-0.102-0.32-0.102-0.516s0.038-0.37,0.113-0.523
		c0.076-0.153,0.171-0.277,0.285-0.371c0.203-0.167,0.418-0.25,0.645-0.25s0.42,0.016,0.578,0.047
		c0.159,0.031,0.307,0.081,0.441,0.148c0.328,0.167,0.492,0.406,0.492,0.719c0,0.391-0.127,0.731-0.383,1.023
		c-0.239,0.271-0.488,0.419-0.746,0.445s-0.467,0.007-0.629-0.059C201.576,108.93,201.437,108.84,201.319,108.726z M202.62,105.976
		c-0.255,0-0.383-0.362-0.383-1.086c0-1,0.264-2.284,0.789-3.852c0.469-1.401,1-2.511,1.594-3.328
		c0.323-0.442,0.644-0.708,0.961-0.797c0.167-0.042,0.322-0.062,0.465-0.062c0.144,0,0.27,0.011,0.379,0.031
		s0.206,0.052,0.289,0.094c0.183,0.083,0.273,0.19,0.273,0.32s-0.052,0.269-0.156,0.414c-0.104,0.146-0.271,0.396-0.5,0.75
		c-0.229,0.354-0.497,0.817-0.805,1.391c-0.739,1.375-1.461,3-2.164,4.875c-0.072,0.188-0.134,0.358-0.184,0.512
		c-0.049,0.153-0.1,0.285-0.152,0.395C202.917,105.862,202.782,105.976,202.62,105.976z"/>
</g>
<g>
	<path d="M86.279,133.764c0.294-0.561,0.483-0.98,0.567-1.26c0.084-0.28,0.126-0.547,0.126-0.799c0-0.938-0.574-1.406-1.722-1.406
		c-0.112,0-0.217,0.004-0.315,0.01c-0.098,0.008-0.189,0.018-0.273,0.031c-0.07,0.015-0.161,0.021-0.273,0.021v-3.885
		c0.196-0.042,0.371-0.077,0.525-0.105c0.154-0.027,0.304-0.049,0.451-0.062s0.301-0.024,0.462-0.031
		c0.161-0.008,0.347-0.011,0.557-0.011c0.672,0,1.333,0.073,1.984,0.22c0.651,0.147,1.236,0.389,1.754,0.725
		c0.518,0.336,0.938,0.785,1.26,1.344c0.322,0.561,0.483,1.247,0.483,2.059c0,0.378-0.042,0.753-0.126,1.123
		c-0.084,0.371-0.213,0.774-0.388,1.208c-0.175,0.435-0.399,0.921-0.672,1.46s-0.591,1.165-0.956,1.879l-0.273,0.525h2.646
		l-1.197,3.675h-8.148L86.279,133.764z M89.765,138.804l0.189-0.504H86.51l2.373-4.495c0.252-0.489,0.458-0.965,0.62-1.428
		c0.161-0.461,0.241-0.931,0.241-1.406c0-0.924-0.297-1.624-0.892-2.1c-0.595-0.477-1.362-0.715-2.3-0.715
		c-0.042,0-0.081,0.004-0.115,0.011c-0.035,0.007-0.067,0.011-0.095,0.011h-0.063v0.504h0.063c0.028,0,0.06-0.004,0.095-0.011
		c0.035-0.007,0.073-0.011,0.115-0.011c0.798,0,1.438,0.199,1.921,0.599c0.483,0.399,0.725,0.977,0.725,1.732
		c0,0.392-0.07,0.802-0.21,1.229c-0.14,0.427-0.336,0.886-0.588,1.376l-2.751,5.208H89.765z"/>
	<path d="M97.976,126.477h3.549v8.127h0.84v3.927h-0.84v1.953h-4.347v-1.953h-4.767v-1.68L97.976,126.477z M99.488,138.804v-1.953
		h0.924v-0.504h-0.924v-8.19h-0.252l-4.662,8.694h4.368v1.953H99.488z M98.942,129.836v6.511h-3.486L98.942,129.836z"/>
	<path d="M106.985,133.49c0-1.008,0.192-1.96,0.578-2.855c0.385-0.896,0.91-1.677,1.575-2.342s1.446-1.189,2.342-1.575
		c0.896-0.385,1.848-0.577,2.856-0.577s1.96,0.192,2.856,0.577c0.896,0.386,1.676,0.91,2.341,1.575s1.19,1.445,1.575,2.342
		c0.385,0.896,0.578,1.848,0.578,2.855s-0.193,1.961-0.578,2.856c-0.385,0.896-0.91,1.677-1.575,2.341
		c-0.665,0.665-1.445,1.19-2.341,1.575s-1.848,0.578-2.856,0.578s-1.96-0.193-2.856-0.578c-0.896-0.385-1.677-0.91-2.342-1.575
		c-0.665-0.664-1.19-1.445-1.575-2.341C107.177,135.451,106.985,134.498,106.985,133.49z M108.959,133.49
		c0,0.742,0.14,1.438,0.42,2.09c0.28,0.651,0.665,1.222,1.155,1.711c0.49,0.49,1.06,0.876,1.711,1.155
		c0.651,0.28,1.347,0.42,2.089,0.42c0.742,0,1.438-0.14,2.089-0.42c0.651-0.279,1.221-0.665,1.711-1.155
		c0.49-0.489,0.875-1.06,1.155-1.711c0.28-0.651,0.42-1.348,0.42-2.09s-0.14-1.438-0.42-2.09c-0.28-0.65-0.665-1.221-1.155-1.711
		s-1.06-0.875-1.711-1.155c-0.651-0.28-1.348-0.42-2.089-0.42c-0.742,0-1.438,0.14-2.089,0.42c-0.651,0.28-1.222,0.665-1.711,1.155
		c-0.49,0.49-0.875,1.061-1.155,1.711C109.099,132.052,108.959,132.748,108.959,133.49z M114.335,138.32
		c-0.672,0-1.299-0.126-1.879-0.378c-0.581-0.252-1.092-0.599-1.533-1.039c-0.441-0.441-0.788-0.952-1.04-1.533
		s-0.378-1.208-0.378-1.88s0.126-1.299,0.378-1.879c0.252-0.581,0.599-1.092,1.04-1.533s0.952-0.787,1.533-1.039
		c0.581-0.252,1.208-0.379,1.879-0.379s1.298,0.127,1.879,0.379s1.092,0.598,1.533,1.039s0.788,0.952,1.04,1.533
		c0.252,0.58,0.378,1.207,0.378,1.879s-0.126,1.299-0.378,1.88s-0.599,1.092-1.04,1.533c-0.441,0.44-0.952,0.787-1.533,1.039
		S115.007,138.32,114.335,138.32z M111.395,133.49c0,0.406,0.077,0.787,0.231,1.145c0.154,0.357,0.364,0.669,0.63,0.935
		c0.266,0.267,0.578,0.476,0.935,0.63s0.738,0.231,1.145,0.231c0.406,0,0.788-0.077,1.145-0.231s0.668-0.363,0.935-0.63
		c0.266-0.266,0.476-0.577,0.63-0.935c0.154-0.357,0.231-0.738,0.231-1.145s-0.077-0.787-0.231-1.145
		c-0.154-0.357-0.364-0.668-0.63-0.934c-0.266-0.267-0.578-0.477-0.935-0.631s-0.739-0.23-1.145-0.23
		c-0.406,0-0.788,0.076-1.145,0.23s-0.669,0.364-0.935,0.631c-0.266,0.266-0.476,0.576-0.63,0.934
		C111.472,132.703,111.395,133.084,111.395,133.49z"/>
	<path d="M122.524,133.49c0-1.119,0.196-2.131,0.588-3.034s0.924-1.677,1.596-2.321c0.672-0.643,1.456-1.137,2.352-1.48
		c0.896-0.342,1.848-0.514,2.856-0.514c0.798,0,1.508,0.076,2.131,0.23s1.158,0.33,1.606,0.525c0.518,0.225,0.966,0.469,1.344,0.734
		l-2.205,3.886c-0.224-0.168-0.469-0.329-0.735-0.483c-0.238-0.111-0.522-0.221-0.851-0.325c-0.329-0.104-0.704-0.157-1.124-0.157
		c-0.434,0-0.833,0.076-1.197,0.23c-0.364,0.154-0.683,0.364-0.956,0.631c-0.273,0.266-0.487,0.576-0.641,0.934
		c-0.154,0.357-0.231,0.738-0.231,1.145s0.081,0.787,0.241,1.145c0.161,0.357,0.381,0.669,0.662,0.935
		c0.28,0.267,0.609,0.476,0.987,0.63c0.378,0.154,0.791,0.231,1.239,0.231c0.448,0,0.847-0.057,1.197-0.168
		c0.35-0.112,0.644-0.238,0.882-0.378c0.28-0.154,0.525-0.336,0.735-0.547l2.205,3.886c-0.378,0.308-0.826,0.581-1.344,0.818
		c-0.448,0.196-0.987,0.378-1.617,0.547c-0.63,0.168-1.351,0.252-2.163,0.252c-1.092,0-2.1-0.179-3.024-0.536
		c-0.924-0.356-1.722-0.857-2.394-1.501c-0.672-0.645-1.197-1.418-1.575-2.32C122.713,135.58,122.524,134.582,122.524,133.49z
		 M125.17,133.49c0-0.672,0.116-1.302,0.347-1.89c0.231-0.589,0.557-1.099,0.977-1.533c0.42-0.434,0.931-0.776,1.533-1.028
		s1.274-0.379,2.016-0.379c0.364,0,0.689,0.025,0.977,0.074c0.287,0.049,0.528,0.107,0.725,0.178
		c0.238,0.07,0.441,0.154,0.609,0.252l0.294-0.504c-0.224-0.098-0.462-0.189-0.714-0.273c-0.238-0.069-0.511-0.133-0.819-0.188
		s-0.665-0.084-1.071-0.084c-0.714,0-1.396,0.126-2.047,0.378c-0.651,0.252-1.226,0.613-1.722,1.082
		c-0.497,0.469-0.896,1.036-1.197,1.701c-0.301,0.664-0.452,1.403-0.452,2.215c0,0.826,0.144,1.568,0.431,2.227
		c0.287,0.657,0.682,1.222,1.187,1.69c0.504,0.469,1.092,0.829,1.764,1.081c0.672,0.252,1.386,0.378,2.142,0.378
		c0.42,0,0.798-0.034,1.134-0.104c0.336-0.07,0.623-0.147,0.861-0.231c0.266-0.098,0.504-0.21,0.714-0.336l-0.294-0.504
		c-0.182,0.126-0.392,0.231-0.63,0.315c-0.21,0.084-0.462,0.157-0.756,0.22c-0.294,0.063-0.637,0.095-1.029,0.095
		c-0.77,0-1.463-0.126-2.079-0.378s-1.138-0.595-1.564-1.029c-0.427-0.434-0.756-0.944-0.987-1.532S125.17,134.162,125.17,133.49z"
		/>
	<path d="M137.581,130.151h-2.583v-3.675h9.786v3.675h-2.582v10.332h-4.621V130.151z M140.165,138.804V128.66h3.002v-0.504h-6.551
		v0.504h3.002v10.144H140.165z"/>
	<path d="M151.987,133.764c0.294-0.561,0.482-0.98,0.566-1.26c0.084-0.28,0.127-0.547,0.127-0.799c0-0.938-0.574-1.406-1.723-1.406
		c-0.111,0-0.217,0.004-0.314,0.01c-0.098,0.008-0.189,0.018-0.273,0.031c-0.07,0.015-0.16,0.021-0.273,0.021v-3.885
		c0.197-0.042,0.371-0.077,0.525-0.105c0.154-0.027,0.305-0.049,0.451-0.062c0.147-0.014,0.302-0.024,0.463-0.031
		c0.16-0.008,0.346-0.011,0.557-0.011c0.672,0,1.333,0.073,1.984,0.22c0.65,0.147,1.235,0.389,1.754,0.725
		c0.518,0.336,0.938,0.785,1.26,1.344c0.321,0.561,0.482,1.247,0.482,2.059c0,0.378-0.042,0.753-0.126,1.123
		c-0.084,0.371-0.214,0.774-0.388,1.208c-0.176,0.435-0.4,0.921-0.673,1.46s-0.591,1.165-0.956,1.879l-0.272,0.525h2.646
		l-1.196,3.675h-8.147L151.987,133.764z M155.474,138.804l0.189-0.504h-3.445l2.373-4.495c0.252-0.489,0.459-0.965,0.62-1.428
		c0.161-0.461,0.241-0.931,0.241-1.406c0-0.924-0.297-1.624-0.893-2.1c-0.595-0.477-1.361-0.715-2.299-0.715
		c-0.043,0-0.081,0.004-0.115,0.011c-0.035,0.007-0.067,0.011-0.096,0.011h-0.062v0.504h0.062c0.028,0,0.061-0.004,0.096-0.011
		c0.034-0.007,0.072-0.011,0.115-0.011c0.798,0,1.438,0.199,1.921,0.599s0.725,0.977,0.725,1.732c0,0.392-0.07,0.802-0.21,1.229
		c-0.141,0.427-0.336,0.886-0.588,1.376l-2.751,5.208H155.474z"/>
	<path d="M169.417,133.49c0,2.381-0.497,4.2-1.49,5.46c-0.994,1.26-2.381,1.891-4.158,1.891c-1.778,0-3.164-0.631-4.158-1.891
		s-1.491-3.079-1.491-5.46c0-2.38,0.497-4.199,1.491-5.46c0.994-1.26,2.38-1.89,4.158-1.89c1.777,0,3.164,0.63,4.158,1.89
		C168.92,129.291,169.417,131.11,169.417,133.49z M160.072,133.49c0,0.631,0.06,1.271,0.179,1.922
		c0.119,0.65,0.318,1.242,0.598,1.774c0.28,0.532,0.658,0.966,1.135,1.302c0.476,0.336,1.07,0.504,1.785,0.504
		c0.714,0,1.309-0.168,1.785-0.504c0.475-0.336,0.854-0.77,1.133-1.302c0.281-0.532,0.48-1.124,0.6-1.774
		c0.118-0.651,0.178-1.291,0.178-1.922c0-0.63-0.06-1.271-0.178-1.922c-0.119-0.65-0.318-1.242-0.6-1.773
		c-0.279-0.532-0.658-0.967-1.133-1.303c-0.477-0.336-1.071-0.504-1.785-0.504c-0.715,0-1.31,0.168-1.785,0.504
		c-0.477,0.336-0.854,0.771-1.135,1.303c-0.279,0.531-0.479,1.123-0.598,1.773C160.132,132.22,160.072,132.86,160.072,133.49z
		 M166.919,133.49c0,0.477-0.043,1.005-0.127,1.586s-0.241,1.123-0.473,1.627c-0.23,0.504-0.553,0.928-0.966,1.271
		c-0.413,0.344-0.941,0.515-1.585,0.515c-0.658,0-1.19-0.171-1.596-0.515c-0.406-0.343-0.725-0.767-0.956-1.271
		s-0.389-1.046-0.473-1.627s-0.126-1.109-0.126-1.586c0-0.476,0.042-1.004,0.126-1.586c0.084-0.58,0.241-1.123,0.473-1.627
		s0.55-0.928,0.956-1.271c0.405-0.343,0.938-0.515,1.596-0.515c0.644,0,1.172,0.172,1.585,0.515s0.735,0.767,0.966,1.271
		c0.231,0.504,0.389,1.047,0.473,1.627C166.876,132.486,166.919,133.015,166.919,133.49z M165.112,133.49
		c0-2.197-0.448-3.297-1.344-3.297c-0.896,0-1.344,1.1-1.344,3.297c0,2.198,0.447,3.297,1.344,3.297
		C164.664,136.787,165.112,135.688,165.112,133.49z"/>
	<path d="M171.79,133.764c0.294-0.561,0.482-0.98,0.566-1.26c0.084-0.28,0.127-0.547,0.127-0.799c0-0.938-0.574-1.406-1.723-1.406
		c-0.111,0-0.217,0.004-0.314,0.01c-0.098,0.008-0.189,0.018-0.273,0.031c-0.07,0.015-0.16,0.021-0.273,0.021v-3.885
		c0.197-0.042,0.371-0.077,0.525-0.105c0.154-0.027,0.305-0.049,0.451-0.062c0.147-0.014,0.302-0.024,0.463-0.031
		c0.16-0.008,0.346-0.011,0.557-0.011c0.672,0,1.333,0.073,1.984,0.22c0.65,0.147,1.235,0.389,1.754,0.725
		c0.518,0.336,0.938,0.785,1.26,1.344c0.321,0.561,0.482,1.247,0.482,2.059c0,0.378-0.042,0.753-0.126,1.123
		c-0.084,0.371-0.214,0.774-0.388,1.208c-0.176,0.435-0.4,0.921-0.673,1.46s-0.591,1.165-0.956,1.879l-0.272,0.525h2.646
		l-1.196,3.675h-8.147L171.79,133.764z M175.276,138.804l0.189-0.504h-3.445l2.373-4.495c0.252-0.489,0.459-0.965,0.62-1.428
		c0.161-0.461,0.241-0.931,0.241-1.406c0-0.924-0.297-1.624-0.893-2.1c-0.595-0.477-1.361-0.715-2.299-0.715
		c-0.043,0-0.081,0.004-0.115,0.011c-0.035,0.007-0.067,0.011-0.096,0.011h-0.062v0.504h0.062c0.028,0,0.061-0.004,0.096-0.011
		c0.034-0.007,0.072-0.011,0.115-0.011c0.798,0,1.438,0.199,1.921,0.599s0.725,0.977,0.725,1.732c0,0.392-0.07,0.802-0.21,1.229
		c-0.141,0.427-0.336,0.886-0.588,1.376l-2.751,5.208H175.276z"/>
	<path d="M189.22,133.49c0,2.381-0.497,4.2-1.49,5.46c-0.994,1.26-2.381,1.891-4.158,1.891c-1.778,0-3.164-0.631-4.158-1.891
		s-1.491-3.079-1.491-5.46c0-2.38,0.497-4.199,1.491-5.46c0.994-1.26,2.38-1.89,4.158-1.89c1.777,0,3.164,0.63,4.158,1.89
		C188.723,129.291,189.22,131.11,189.22,133.49z M179.875,133.49c0,0.631,0.06,1.271,0.179,1.922
		c0.119,0.65,0.318,1.242,0.598,1.774c0.28,0.532,0.658,0.966,1.135,1.302c0.476,0.336,1.07,0.504,1.785,0.504
		c0.714,0,1.309-0.168,1.785-0.504c0.475-0.336,0.854-0.77,1.133-1.302c0.281-0.532,0.48-1.124,0.6-1.774
		c0.118-0.651,0.178-1.291,0.178-1.922c0-0.63-0.06-1.271-0.178-1.922c-0.119-0.65-0.318-1.242-0.6-1.773
		c-0.279-0.532-0.658-0.967-1.133-1.303c-0.477-0.336-1.071-0.504-1.785-0.504c-0.715,0-1.31,0.168-1.785,0.504
		c-0.477,0.336-0.854,0.771-1.135,1.303c-0.279,0.531-0.479,1.123-0.598,1.773C179.935,132.22,179.875,132.86,179.875,133.49z
		 M186.722,133.49c0,0.477-0.043,1.005-0.127,1.586s-0.241,1.123-0.473,1.627c-0.23,0.504-0.553,0.928-0.966,1.271
		c-0.413,0.344-0.941,0.515-1.585,0.515c-0.658,0-1.19-0.171-1.596-0.515c-0.406-0.343-0.725-0.767-0.956-1.271
		s-0.389-1.046-0.473-1.627s-0.126-1.109-0.126-1.586c0-0.476,0.042-1.004,0.126-1.586c0.084-0.58,0.241-1.123,0.473-1.627
		s0.55-0.928,0.956-1.271c0.405-0.343,0.938-0.515,1.596-0.515c0.644,0,1.172,0.172,1.585,0.515s0.735,0.767,0.966,1.271
		c0.231,0.504,0.389,1.047,0.473,1.627C186.679,132.486,186.722,133.015,186.722,133.49z M184.915,133.49
		c0-2.197-0.448-3.297-1.344-3.297c-0.896,0-1.344,1.1-1.344,3.297c0,2.198,0.447,3.297,1.344,3.297
		C184.467,136.787,184.915,135.688,184.915,133.49z"/>
</g>
<g>
	<path d="M93.023,164.046l-0.062,0.526c0,0.552,0.185,0.928,0.554,1.128c0.127,0.068,0.28,0.103,0.458,0.103
		s0.337-0.031,0.479-0.092c0.141-0.062,0.257-0.143,0.349-0.243c0.191-0.205,0.287-0.442,0.287-0.711s-0.055-0.513-0.164-0.731
		s-0.246-0.438-0.41-0.656l-0.547-0.67c-0.442-0.528-0.738-1.011-0.889-1.445c-0.15-0.436-0.226-0.836-0.226-1.2
		s0.044-0.71,0.133-1.036c0.089-0.325,0.213-0.635,0.373-0.93c0.16-0.293,0.351-0.563,0.574-0.81s0.472-0.458,0.745-0.636
		c0.57-0.383,1.135-0.574,1.695-0.574s0.998,0.078,1.312,0.232s0.567,0.352,0.759,0.588c0.355,0.447,0.533,0.986,0.533,1.62
		c0,0.588-0.167,1.142-0.499,1.661c-0.305,0.474-0.647,0.774-1.025,0.902c-0.082,0.041-0.195,0.062-0.338,0.062
		s-0.264-0.021-0.362-0.065c-0.098-0.043-0.184-0.101-0.256-0.174c-0.16-0.159-0.239-0.333-0.239-0.52
		c0-0.128,0.039-0.212,0.116-0.253c0.346-0.187,0.647-0.458,0.902-0.813c0.278-0.388,0.424-0.773,0.438-1.158
		c0.014-0.386-0.079-0.67-0.277-0.855c-0.198-0.184-0.461-0.276-0.79-0.276s-0.625,0.074-0.889,0.222
		c-0.264,0.148-0.492,0.348-0.684,0.599c-0.41,0.538-0.615,1.174-0.615,1.907c0,0.487,0.168,1.003,0.506,1.545
		c0.141,0.232,0.295,0.461,0.461,0.688c0.167,0.225,0.322,0.456,0.468,0.693c0.333,0.552,0.499,1.046,0.499,1.483
		s-0.079,0.807-0.236,1.107s-0.366,0.562-0.625,0.786c-0.561,0.483-1.199,0.725-1.914,0.725c-0.674,0-1.194-0.2-1.559-0.602
		c-0.292-0.323-0.438-0.675-0.438-1.053c0-0.41,0.116-0.757,0.349-1.039c0.178-0.214,0.349-0.342,0.513-0.383
		C92.843,163.602,93.023,163.718,93.023,164.046z"/>
	<path d="M103.708,164.887c0,0.419,0.148,0.629,0.444,0.629c0.205,0,0.375-0.032,0.509-0.096s0.225-0.096,0.27-0.096
		c0.096,0,0.144,0.05,0.144,0.15c0,0.392-0.205,0.729-0.615,1.012c-0.433,0.296-0.875,0.369-1.326,0.219
		c-0.296-0.104-0.515-0.33-0.656-0.677c-0.068-0.178-0.103-0.34-0.103-0.485c0-0.237,0.023-0.487,0.068-0.752
		c-0.424,0.866-0.95,1.463-1.579,1.791c-0.25,0.128-0.517,0.191-0.8,0.191s-0.527-0.059-0.735-0.174
		c-0.208-0.117-0.384-0.277-0.53-0.482c-0.296-0.429-0.431-0.966-0.403-1.613c0.027-0.812,0.267-1.606,0.718-2.386
		c0.415-0.729,0.939-1.324,1.572-1.784c0.633-0.47,1.226-0.704,1.777-0.704s0.996,0.253,1.333,0.759
		c0.314-0.506,0.592-0.759,0.834-0.759c0.26,0,0.456,0.048,0.588,0.144c0.25,0.183,0.339,0.342,0.267,0.479
		c-1.144,2.343-1.732,3.801-1.764,4.375C103.712,164.709,103.708,164.796,103.708,164.887z M99.914,164.914
		c0,0.547,0.175,0.82,0.526,0.82c0.269,0,0.599-0.228,0.991-0.684c0.574-0.67,1.083-1.572,1.524-2.707
		c0.141-0.355,0.26-0.711,0.355-1.066c-0.018-0.31-0.148-0.538-0.39-0.684c-0.082-0.05-0.204-0.075-0.366-0.075
		s-0.351,0.06-0.567,0.178s-0.426,0.28-0.629,0.485s-0.392,0.447-0.567,0.729c-0.175,0.279-0.329,0.584-0.461,0.912
		C100.053,163.524,99.914,164.222,99.914,164.914z"/>
	<path d="M106.039,166.042c-0.068-0.15-0.103-0.328-0.103-0.533s0.032-0.432,0.096-0.681c0.064-0.248,0.146-0.502,0.246-0.762
		s0.212-0.524,0.335-0.793l0.349-0.793c0.451-1.044,0.618-1.659,0.499-1.846c-0.055-0.087-0.16-0.173-0.314-0.26
		c-0.05-0.032-0.075-0.088-0.075-0.168c0-0.079,0.033-0.155,0.099-0.229s0.154-0.137,0.263-0.191
		c0.219-0.104,0.44-0.157,0.663-0.157s0.393,0.024,0.509,0.071c0.116,0.049,0.213,0.108,0.291,0.182
		c0.146,0.15,0.219,0.333,0.219,0.547s-0.041,0.456-0.123,0.725s-0.185,0.552-0.308,0.848s-0.257,0.6-0.403,0.909l-0.403,0.896
		c-0.287,0.661-0.431,1.099-0.431,1.312c0,0.419,0.148,0.629,0.444,0.629c0.761,0,1.474-0.451,2.14-1.354
		c0.387-0.524,0.666-1.094,0.834-1.709c0.078-0.292,0.116-0.557,0.116-0.797c0-0.238-0.008-0.438-0.024-0.598
		s-0.042-0.301-0.079-0.424c-0.059-0.219-0.16-0.408-0.301-0.567c-0.096-0.118-0.052-0.258,0.13-0.417
		c0.201-0.169,0.485-0.253,0.854-0.253c0.228,0,0.428,0.107,0.602,0.321c0.219,0.255,0.328,0.621,0.328,1.098
		c0,0.476-0.071,0.943-0.212,1.4c-0.141,0.459-0.335,0.898-0.581,1.32c-0.246,0.421-0.537,0.814-0.872,1.179
		s-0.696,0.682-1.083,0.95c-0.83,0.583-1.659,0.875-2.488,0.875C106.659,166.773,106.253,166.529,106.039,166.042z"/>
	<path d="M113.23,164.312c0.018-0.396,0.084-0.775,0.198-1.139c0.114-0.361,0.267-0.713,0.458-1.053
		c0.191-0.339,0.416-0.66,0.673-0.963c0.257-0.304,0.537-0.569,0.837-0.797c0.652-0.487,1.31-0.731,1.976-0.731
		c0.779,0,1.299,0.321,1.559,0.964c0.091,0.219,0.134,0.478,0.13,0.775c-0.004,0.299-0.062,0.574-0.171,0.828
		c-0.109,0.252-0.261,0.482-0.455,0.689c-0.194,0.208-0.424,0.394-0.69,0.558s-0.557,0.303-0.872,0.417
		c-0.647,0.228-1.34,0.347-2.078,0.355c-0.018,0.063-0.03,0.159-0.034,0.287s0.009,0.27,0.041,0.428
		c0.032,0.156,0.086,0.297,0.164,0.42c0.164,0.273,0.401,0.41,0.711,0.41c0.529,0,1.043-0.155,1.545-0.465
		c0.178-0.104,0.322-0.213,0.434-0.324c0.112-0.112,0.208-0.168,0.291-0.168s0.154,0.049,0.215,0.146
		c0.062,0.099,0.092,0.209,0.092,0.332c0,0.241-0.068,0.451-0.205,0.629c-0.574,0.574-1.429,0.861-2.563,0.861
		c-0.67,0-1.208-0.2-1.613-0.602C113.417,165.716,113.203,165.097,113.23,164.312z M117.223,160.539
		c-0.479,0-0.939,0.328-1.381,0.984c-0.374,0.565-0.674,1.235-0.902,2.01c0.761-0.077,1.422-0.378,1.982-0.902
		c0.515-0.492,0.772-0.964,0.772-1.415S117.537,160.539,117.223,160.539z"/>
	<path d="M128.044,164.914c0.132,0,0.198,0.089,0.198,0.267c0,0.15-0.045,0.296-0.137,0.438c-0.123,0.265-0.369,0.515-0.738,0.752
		c-0.419,0.269-0.841,0.403-1.265,0.403c-0.734,0-1.199-0.328-1.395-0.984c-0.232-0.779,0.116-2.432,1.046-4.956
		c-0.524-0.046-0.809-0.137-0.854-0.273c-0.014-0.041-0.021-0.085-0.021-0.134c0-0.047,0.021-0.104,0.065-0.167
		s0.099-0.125,0.167-0.185c0.16-0.132,0.321-0.198,0.485-0.198h0.54c0.492-1.153,0.843-1.81,1.053-1.969
		c0.1-0.073,0.212-0.109,0.335-0.109s0.226,0.016,0.308,0.048s0.155,0.077,0.219,0.137c0.146,0.137,0.219,0.289,0.219,0.458
		c0,0.091-0.027,0.196-0.082,0.314l-0.506,1.101h0.164c0.283,0,0.51-0.002,0.684-0.007l0.39-0.007
		c0.086-0.005,0.195-0.007,0.325-0.007s0.195,0.048,0.195,0.144c0,0.602-0.711,0.902-2.133,0.902h-0.055l-0.465,1.203
		c-0.524,1.422-0.786,2.418-0.786,2.987c0,0.159,0.037,0.284,0.109,0.372c0.073,0.09,0.209,0.134,0.41,0.134
		s0.383-0.034,0.547-0.103s0.308-0.145,0.431-0.229c0.123-0.085,0.229-0.161,0.318-0.229S127.98,164.914,128.044,164.914z"/>
	<path d="M134.025,160.922c-0.25,0-0.7,0.383-1.347,1.148l-0.567,0.697l-1.094,1.429c-0.264,0.501-0.472,0.918-0.622,1.251
		l-0.369,0.793c-0.096,0.196-0.179,0.334-0.25,0.414c-0.071,0.079-0.167,0.119-0.287,0.119s-0.237-0.021-0.349-0.064
		c-0.112-0.044-0.208-0.1-0.291-0.168c-0.173-0.146-0.26-0.306-0.26-0.479c0-0.068,0.048-0.203,0.144-0.403l0.273-0.554
		c0.852-1.755,1.625-3.979,2.317-6.672c0.255-0.994,0.44-1.887,0.554-2.68c0.05-0.383,0.237-0.574,0.561-0.574
		c0.209,0,0.383,0.051,0.52,0.15c0.264,0.195,0.392,0.406,0.383,0.629s-0.041,0.475-0.096,0.752s-0.125,0.58-0.212,0.906
		c-0.086,0.325-0.185,0.668-0.294,1.028c-0.301,0.916-0.524,1.577-0.67,1.982c-0.447,1.226-0.722,1.943-0.827,2.153
		c0.068-0.082,0.157-0.193,0.267-0.335c0.83-1.089,1.342-1.739,1.538-1.952c0.196-0.211,0.362-0.374,0.499-0.488
		c0.287-0.251,0.652-0.376,1.094-0.376c0.36,0,0.649,0.121,0.868,0.362c0.205,0.232,0.308,0.486,0.308,0.762
		c0,0.276-0.031,0.524-0.092,0.746c-0.062,0.221-0.14,0.445-0.236,0.673s-0.201,0.463-0.314,0.704l-0.342,0.718
		c-0.319,0.725-0.479,1.263-0.479,1.613c0,0.246,0.1,0.369,0.301,0.369c0.191,0,0.366-0.041,0.523-0.123s0.259-0.123,0.304-0.123
		c0.096,0,0.144,0.048,0.144,0.144c0,0.405-0.205,0.745-0.615,1.019c-0.283,0.187-0.54,0.28-0.772,0.28s-0.425-0.023-0.578-0.072
		c-0.153-0.047-0.288-0.126-0.407-0.235c-0.269-0.246-0.403-0.608-0.403-1.087c0-0.515,0.168-1.162,0.506-1.941l0.738-1.572
		c0.141-0.292,0.212-0.521,0.212-0.69S134.212,160.922,134.025,160.922z"/>
	<path d="M136.931,164.312c0.018-0.396,0.084-0.775,0.198-1.139c0.114-0.361,0.267-0.713,0.458-1.053
		c0.191-0.339,0.416-0.66,0.674-0.963c0.257-0.304,0.536-0.569,0.837-0.797c0.651-0.487,1.31-0.731,1.976-0.731
		c0.779,0,1.299,0.321,1.559,0.964c0.092,0.219,0.135,0.478,0.13,0.775c-0.005,0.299-0.062,0.574-0.171,0.828
		c-0.109,0.252-0.261,0.482-0.455,0.689c-0.193,0.208-0.424,0.394-0.689,0.558c-0.268,0.164-0.558,0.303-0.872,0.417
		c-0.647,0.228-1.34,0.347-2.078,0.355c-0.019,0.063-0.03,0.159-0.034,0.287s0.01,0.27,0.041,0.428
		c0.031,0.156,0.086,0.297,0.164,0.42c0.164,0.273,0.4,0.41,0.711,0.41c0.529,0,1.043-0.155,1.545-0.465
		c0.178-0.104,0.322-0.213,0.434-0.324c0.112-0.112,0.209-0.168,0.291-0.168s0.154,0.049,0.215,0.146
		c0.062,0.099,0.093,0.209,0.093,0.332c0,0.241-0.068,0.451-0.205,0.629c-0.574,0.574-1.429,0.861-2.563,0.861
		c-0.67,0-1.207-0.2-1.613-0.602C137.118,165.716,136.903,165.097,136.931,164.312z M140.923,160.539
		c-0.479,0-0.939,0.328-1.381,0.984c-0.373,0.565-0.674,1.235-0.902,2.01c0.762-0.077,1.422-0.378,1.982-0.902
		c0.516-0.492,0.772-0.964,0.772-1.415S141.237,160.539,140.923,160.539z"/>
	<path d="M154.595,165.324c0.096,0,0.144,0.05,0.144,0.15c0,0.392-0.202,0.729-0.608,1.012c-0.27,0.191-0.523,0.287-0.762,0.287
		c-0.24,0-0.43-0.027-0.571-0.082s-0.269-0.142-0.383-0.26c-0.255-0.273-0.383-0.649-0.383-1.128c0-0.096,0.019-0.248,0.055-0.458
		c-0.369,0.569-0.687,0.971-0.95,1.203c-0.533,0.483-1.055,0.725-1.565,0.725c-0.807,0-1.335-0.364-1.586-1.094
		c-0.091-0.269-0.137-0.606-0.137-1.012s0.062-0.815,0.185-1.23s0.291-0.809,0.502-1.183c0.213-0.374,0.459-0.722,0.738-1.042
		c0.281-0.322,0.576-0.601,0.886-0.838c0.665-0.497,1.267-0.745,1.805-0.745s0.968,0.219,1.292,0.656
		c0.793-2.716,1.391-4.317,1.791-4.806c0.168-0.201,0.346-0.301,0.533-0.301c0.311,0,0.545,0.089,0.704,0.267
		c0.05,0.06,0.075,0.118,0.075,0.178s-0.037,0.169-0.109,0.328s-0.18,0.417-0.321,0.772c-0.405,1.071-0.69,1.854-0.854,2.352
		c-0.42,1.271-0.701,2.146-0.848,2.625l-0.376,1.265c-0.323,1.126-0.485,1.841-0.485,2.146s0.111,0.458,0.335,0.458
		c0.205,0,0.369-0.027,0.492-0.082l0.26-0.123C154.501,165.338,154.55,165.324,154.595,165.324z M149.898,165.748
		c0.47,0,1.007-0.458,1.613-1.374c0.634-0.948,1.075-1.98,1.326-3.097c-0.019-0.31-0.147-0.538-0.39-0.684
		c-0.082-0.05-0.206-0.075-0.373-0.075c-0.166,0-0.359,0.061-0.58,0.181c-0.222,0.121-0.436,0.284-0.643,0.489
		c-0.208,0.205-0.401,0.445-0.582,0.722c-0.18,0.275-0.336,0.568-0.468,0.878c-0.287,0.675-0.431,1.337-0.431,1.985
		C149.372,165.424,149.548,165.748,149.898,165.748z"/>
	<path d="M160.843,164.887c0,0.419,0.148,0.629,0.444,0.629c0.205,0,0.375-0.032,0.509-0.096c0.135-0.063,0.225-0.096,0.271-0.096
		c0.096,0,0.144,0.05,0.144,0.15c0,0.392-0.205,0.729-0.615,1.012c-0.434,0.296-0.875,0.369-1.326,0.219
		c-0.297-0.104-0.516-0.33-0.656-0.677c-0.068-0.178-0.103-0.34-0.103-0.485c0-0.237,0.022-0.487,0.068-0.752
		c-0.424,0.866-0.95,1.463-1.579,1.791c-0.25,0.128-0.518,0.191-0.8,0.191s-0.527-0.059-0.735-0.174
		c-0.207-0.117-0.383-0.277-0.529-0.482c-0.297-0.429-0.431-0.966-0.403-1.613c0.027-0.812,0.267-1.606,0.718-2.386
		c0.414-0.729,0.939-1.324,1.572-1.784c0.633-0.47,1.227-0.704,1.777-0.704s0.996,0.253,1.333,0.759
		c0.314-0.506,0.593-0.759,0.834-0.759c0.26,0,0.456,0.048,0.588,0.144c0.251,0.183,0.339,0.342,0.267,0.479
		c-1.145,2.343-1.732,3.801-1.764,4.375C160.847,164.709,160.843,164.796,160.843,164.887z M157.049,164.914
		c0,0.547,0.175,0.82,0.526,0.82c0.27,0,0.6-0.228,0.991-0.684c0.574-0.67,1.083-1.572,1.524-2.707
		c0.141-0.355,0.26-0.711,0.355-1.066c-0.018-0.31-0.148-0.538-0.39-0.684c-0.082-0.05-0.204-0.075-0.366-0.075
		c-0.161,0-0.351,0.06-0.566,0.178c-0.217,0.118-0.427,0.28-0.629,0.485c-0.203,0.205-0.393,0.447-0.568,0.729
		c-0.175,0.279-0.328,0.584-0.461,0.912C157.188,163.524,157.049,164.222,157.049,164.914z"/>
	<path d="M167.125,164.914c0.132,0,0.198,0.089,0.198,0.267c0,0.15-0.045,0.296-0.137,0.438c-0.123,0.265-0.369,0.515-0.738,0.752
		c-0.42,0.269-0.841,0.403-1.265,0.403c-0.733,0-1.198-0.328-1.395-0.984c-0.232-0.779,0.116-2.432,1.046-4.956
		c-0.523-0.046-0.809-0.137-0.854-0.273c-0.014-0.041-0.021-0.085-0.021-0.134c0-0.047,0.021-0.104,0.064-0.167
		c0.044-0.063,0.1-0.125,0.168-0.185c0.16-0.132,0.321-0.198,0.485-0.198h0.54c0.492-1.153,0.844-1.81,1.053-1.969
		c0.1-0.073,0.212-0.109,0.335-0.109s0.226,0.016,0.308,0.048s0.154,0.077,0.219,0.137c0.146,0.137,0.219,0.289,0.219,0.458
		c0,0.091-0.027,0.196-0.082,0.314l-0.506,1.101h0.164c0.283,0,0.51-0.002,0.684-0.007l0.39-0.007
		c0.087-0.005,0.194-0.007,0.325-0.007c0.129,0,0.194,0.048,0.194,0.144c0,0.602-0.711,0.902-2.133,0.902h-0.055l-0.465,1.203
		c-0.524,1.422-0.786,2.418-0.786,2.987c0,0.159,0.037,0.284,0.109,0.372c0.072,0.09,0.209,0.134,0.41,0.134
		s0.383-0.034,0.547-0.103s0.308-0.145,0.431-0.229c0.123-0.085,0.229-0.161,0.317-0.229
		C166.985,164.948,167.062,164.914,167.125,164.914z"/>
	<path d="M168.239,164.312c0.018-0.396,0.084-0.775,0.198-1.139c0.114-0.361,0.267-0.713,0.458-1.053
		c0.191-0.339,0.416-0.66,0.674-0.963c0.257-0.304,0.536-0.569,0.837-0.797c0.651-0.487,1.31-0.731,1.976-0.731
		c0.779,0,1.299,0.321,1.559,0.964c0.092,0.219,0.135,0.478,0.13,0.775c-0.005,0.299-0.062,0.574-0.171,0.828
		c-0.109,0.252-0.261,0.482-0.455,0.689c-0.193,0.208-0.424,0.394-0.689,0.558c-0.268,0.164-0.558,0.303-0.872,0.417
		c-0.647,0.228-1.34,0.347-2.078,0.355c-0.019,0.063-0.03,0.159-0.034,0.287s0.01,0.27,0.041,0.428
		c0.031,0.156,0.086,0.297,0.164,0.42c0.164,0.273,0.4,0.41,0.711,0.41c0.529,0,1.043-0.155,1.545-0.465
		c0.178-0.104,0.322-0.213,0.434-0.324c0.112-0.112,0.209-0.168,0.291-0.168s0.154,0.049,0.215,0.146
		c0.062,0.099,0.093,0.209,0.093,0.332c0,0.241-0.068,0.451-0.205,0.629c-0.574,0.574-1.429,0.861-2.563,0.861
		c-0.67,0-1.207-0.2-1.613-0.602C168.427,165.716,168.212,165.097,168.239,164.312z M172.231,160.539
		c-0.479,0-0.939,0.328-1.381,0.984c-0.373,0.565-0.674,1.235-0.902,2.01c0.762-0.077,1.422-0.378,1.982-0.902
		c0.516-0.492,0.772-0.964,0.772-1.415S172.546,160.539,172.231,160.539z"/>
	<path d="M175.722,166.473c-0.104-0.101-0.184-0.215-0.243-0.346c-0.06-0.129-0.089-0.279-0.089-0.451c0-0.17,0.033-0.323,0.1-0.457
		c0.065-0.135,0.148-0.243,0.249-0.325c0.178-0.146,0.366-0.219,0.563-0.219c0.199,0,0.367,0.014,0.506,0.041
		c0.14,0.027,0.268,0.07,0.387,0.13c0.287,0.146,0.431,0.355,0.431,0.629c0,0.342-0.112,0.641-0.335,0.896
		c-0.209,0.237-0.428,0.367-0.652,0.39c-0.227,0.022-0.41,0.006-0.551-0.051C175.946,166.651,175.823,166.573,175.722,166.473z
		 M176.859,164.066c-0.224,0-0.335-0.316-0.335-0.95c0-0.875,0.23-1.998,0.69-3.37c0.41-1.226,0.875-2.197,1.395-2.912
		c0.282-0.387,0.563-0.619,0.841-0.697c0.146-0.037,0.281-0.055,0.406-0.055c0.126,0,0.236,0.01,0.332,0.027s0.18,0.045,0.253,0.082
		c0.159,0.072,0.239,0.166,0.239,0.28s-0.045,0.235-0.137,0.362s-0.236,0.346-0.438,0.656c-0.201,0.31-0.436,0.716-0.704,1.217
		c-0.647,1.203-1.278,2.625-1.894,4.266c-0.064,0.164-0.117,0.313-0.16,0.447c-0.044,0.135-0.088,0.25-0.134,0.346
		C177.119,163.966,177.001,164.066,176.859,164.066z"/>
</g>
<line fill="none" stroke="#000000" stroke-width="2" stroke-miterlimit="10" x1="112.888" y1="204.137" x2="136.813" y2="222.378"/>
<line fill="none" stroke="#000000" stroke-width="2" stroke-miterlimit="10" x1="136.813" y1="222.378" x2="159.468" y2="204.137"/>
<line fill="none" stroke="#000000" stroke-width="2" stroke-miterlimit="10" x1="124.851" y1="204.137" x2="136.813" y2="213.258"/>
<line fill="none" stroke="#000000" stroke-width="2" stroke-miterlimit="10" x1="136.813" y1="213.258" x2="148.141" y2="204.137"/>
</svg>
