<?xml version="1.0" encoding="utf-8"?>
<!-- Generator: Adobe Illustrator 16.0.0, SVG Export Plug-In . SVG Version: 6.00 Build 0)  -->
<!DOCTYPE svg PUBLIC "-//W3C//DTD SVG 1.1//EN" "http://www.w3.org/Graphics/SVG/1.1/DTD/svg11.dtd">
<svg version="1.1" id="Layer_1" xmlns="http://www.w3.org/2000/svg" xmlns:xlink="http://www.w3.org/1999/xlink" x="0px" y="0px"
	 width="273.627px" height="232.379px" viewBox="-20.624 20.811 273.627 232.379"
	 enable-background="new -20.624 20.811 273.627 232.379" xml:space="preserve">
<g id="redheart" transform="translate(0,137)">
	<g opacity="0.68">
		<path id="heart" fill="#FFFFFF" d="M116.189,116.189c250-150,100-300,0-200C16.189-183.811-133.811-33.811,116.189,116.189z"/>
	</g>
</g>
<g>
	<path d="M47.226,119.115c0.056,0.014,0.133,0.035,0.231,0.063c0.098,0.028,0.192,0.063,0.284,0.105
		c0.091,0.042,0.168,0.091,0.231,0.147c0.063,0.056,0.095,0.126,0.095,0.21c0,0.126-0.063,0.301-0.189,0.525
		c-0.126,0.224-0.266,0.472-0.42,0.745c-0.154,0.273-0.294,0.553-0.42,0.84s-0.189,0.557-0.189,0.809
		c0,0.21,0.056,0.417,0.168,0.619c0.112,0.203,0.294,0.305,0.546,0.305c0.378,0,0.875-0.273,1.491-0.819
		c0.616-0.546,1.239-1.379,1.869-2.499l0.21,0.21c-0.224,0.574-0.497,1.096-0.819,1.564c-0.322,0.469-0.668,0.872-1.039,1.208
		c-0.372,0.336-0.753,0.595-1.145,0.777c-0.392,0.182-0.777,0.273-1.155,0.273c-0.518,0-0.899-0.154-1.145-0.462
		s-0.367-0.644-0.367-1.008c0-0.168,0.021-0.371,0.063-0.609c-0.616,0.812-1.169,1.421-1.659,1.827
		c-0.49,0.406-0.994,0.609-1.512,0.609c-0.448,0-0.819-0.144-1.113-0.43c-0.294-0.287-0.441-0.725-0.441-1.312
		c0-0.42,0.081-0.868,0.241-1.344c0.161-0.476,0.381-0.956,0.662-1.438c0.28-0.483,0.609-0.945,0.987-1.386
		c0.378-0.441,0.78-0.83,1.207-1.166c0.427-0.336,0.872-0.605,1.333-0.809c0.462-0.203,0.924-0.305,1.386-0.305
		c0.546,0,1.001,0.144,1.365,0.431c0.364,0.287,0.546,0.668,0.546,1.145c0,0.35-0.095,0.588-0.284,0.714s-0.438,0.189-0.746,0.189
		c0.07-0.252,0.105-0.497,0.105-0.735c0-0.322-0.077-0.599-0.231-0.83c-0.154-0.231-0.42-0.347-0.798-0.347
		c-0.336,0-0.672,0.098-1.008,0.294c-0.336,0.196-0.666,0.458-0.987,0.787c-0.322,0.329-0.623,0.704-0.903,1.124
		c-0.28,0.42-0.529,0.851-0.746,1.292c-0.217,0.441-0.385,0.875-0.504,1.302c-0.119,0.427-0.179,0.809-0.179,1.145
		c0,0.546,0.189,0.819,0.567,0.819c0.322,0,0.686-0.168,1.092-0.504c0.406-0.336,0.812-0.742,1.218-1.218
		c0.406-0.476,0.794-0.976,1.166-1.501C46.662,119.944,46.974,119.493,47.226,119.115z"/>
	<path d="M50.543,120.9c0.196-0.364,0.452-0.896,0.767-1.596c0.315-0.7,0.626-1.498,0.935-2.394c-0.14-0.14-0.21-0.308-0.21-0.504
		c0-0.21,0.035-0.402,0.105-0.577c0.07-0.175,0.154-0.326,0.252-0.452c0.098-0.126,0.196-0.224,0.294-0.294
		c0.098-0.07,0.175-0.105,0.231-0.105c0.154,0,0.242,0.066,0.263,0.199c0.021,0.133,0.031,0.235,0.031,0.305
		c0,0.042-0.01,0.102-0.031,0.178c-0.021,0.077-0.049,0.158-0.084,0.242c-0.035,0.084-0.063,0.161-0.084,0.231
		c-0.021,0.07-0.031,0.112-0.031,0.126c0,0.196,0.112,0.375,0.336,0.536c0.224,0.161,0.469,0.343,0.735,0.546
		c0.266,0.203,0.511,0.448,0.735,0.735c0.224,0.287,0.336,0.655,0.336,1.103c0,0.322-0.056,0.648-0.168,0.977
		c-0.112,0.329-0.231,0.648-0.357,0.956c-0.126,0.308-0.245,0.599-0.357,0.872c-0.112,0.273-0.168,0.521-0.168,0.746
		c0,0.252,0.063,0.42,0.189,0.504s0.273,0.126,0.441,0.126c0.336,0,0.686-0.105,1.05-0.315c0.364-0.21,0.71-0.473,1.04-0.788
		c0.329-0.315,0.626-0.654,0.893-1.019c0.266-0.364,0.462-0.7,0.588-1.008l0.273,0.21c-0.196,0.448-0.452,0.893-0.767,1.333
		s-0.668,0.833-1.061,1.176c-0.392,0.343-0.805,0.623-1.239,0.84c-0.434,0.217-0.875,0.325-1.323,0.325
		c-0.476,0-0.85-0.126-1.124-0.378c-0.273-0.252-0.409-0.581-0.409-0.987c0-0.308,0.059-0.633,0.178-0.977
		c0.119-0.343,0.252-0.686,0.399-1.029c0.147-0.343,0.28-0.679,0.399-1.008c0.119-0.329,0.178-0.633,0.178-0.914
		c0-0.224-0.035-0.417-0.105-0.578c-0.07-0.161-0.165-0.301-0.283-0.42c-0.119-0.119-0.249-0.224-0.389-0.315
		c-0.14-0.091-0.273-0.185-0.399-0.283c-0.168,0.42-0.336,0.829-0.504,1.229c-0.168,0.399-0.336,0.773-0.504,1.123
		c-0.168,0.351-0.325,0.672-0.472,0.966s-0.277,0.532-0.389,0.714L50.543,120.9z"/>
	<path d="M64.193,117.288c0,0.532-0.157,1.032-0.472,1.501s-0.725,0.885-1.229,1.25s-1.064,0.661-1.68,0.892
		c-0.616,0.231-1.225,0.375-1.827,0.431c-0.028,0.14-0.049,0.273-0.063,0.399c-0.014,0.126-0.021,0.245-0.021,0.357
		c0,0.21,0.024,0.42,0.074,0.63c0.049,0.21,0.136,0.399,0.263,0.567c0.126,0.168,0.297,0.305,0.514,0.41
		c0.217,0.105,0.486,0.157,0.809,0.157c0.448,0,0.896-0.098,1.344-0.294c0.448-0.196,0.875-0.465,1.281-0.809
		c0.406-0.343,0.788-0.738,1.145-1.187c0.357-0.448,0.668-0.924,0.935-1.428l0.252,0.189c-0.28,0.63-0.623,1.201-1.029,1.711
		c-0.406,0.511-0.844,0.945-1.312,1.302c-0.469,0.357-0.966,0.633-1.491,0.83c-0.525,0.196-1.047,0.294-1.564,0.294
		c-0.854,0-1.495-0.234-1.921-0.703c-0.427-0.469-0.641-1.046-0.641-1.733c0-0.42,0.073-0.861,0.22-1.323
		c0.147-0.462,0.35-0.917,0.609-1.365c0.259-0.448,0.56-0.875,0.903-1.281c0.343-0.406,0.714-0.763,1.113-1.071
		c0.399-0.308,0.809-0.553,1.229-0.735c0.42-0.182,0.84-0.273,1.26-0.273c0.322,0,0.62,0.084,0.893,0.252
		S64.193,116.77,64.193,117.288z M62.829,116.658c-0.336,0-0.693,0.13-1.071,0.389c-0.378,0.259-0.742,0.595-1.092,1.008
		c-0.35,0.413-0.665,0.875-0.945,1.386c-0.28,0.511-0.49,1.019-0.63,1.522c0.378-0.126,0.805-0.312,1.281-0.557
		c0.476-0.245,0.931-0.535,1.365-0.872c0.434-0.336,0.798-0.707,1.092-1.113c0.294-0.406,0.441-0.833,0.441-1.281
		c0-0.154-0.028-0.273-0.084-0.357C63.129,116.7,63.01,116.658,62.829,116.658z"/>
	<path d="M76.521,117.372c-0.154-0.21-0.434-0.315-0.84-0.315c-0.546,0-1.075,0.165-1.585,0.493
		c-0.511,0.329-0.963,0.739-1.354,1.229c-0.392,0.49-0.704,1.012-0.935,1.564c-0.231,0.553-0.347,1.047-0.347,1.48
		c0,0.336,0.066,0.592,0.2,0.767c0.133,0.175,0.312,0.263,0.536,0.263c0.196,0,0.42-0.074,0.672-0.221s0.515-0.346,0.788-0.599
		c0.273-0.252,0.549-0.546,0.83-0.882c0.28-0.336,0.553-0.693,0.819-1.071l0.252-1.113c0.014-0.098,0.049-0.21,0.105-0.336
		c0.056-0.126,0.126-0.241,0.21-0.347c0.084-0.105,0.189-0.196,0.315-0.273c0.126-0.077,0.273-0.115,0.441-0.115
		c0.126,0,0.273,0.021,0.441,0.063c0,0.168-0.039,0.448-0.116,0.84c-0.077,0.392-0.186,0.847-0.326,1.365s-0.312,1.082-0.514,1.69
		c-0.203,0.609-0.424,1.229-0.662,1.858c0.336-0.168,0.675-0.371,1.019-0.609c0.343-0.238,0.665-0.507,0.966-0.809
		c0.301-0.301,0.578-0.63,0.83-0.987s0.455-0.738,0.609-1.145l0.273,0.21c-0.168,0.476-0.406,0.92-0.714,1.333
		c-0.308,0.413-0.644,0.788-1.008,1.124c-0.364,0.336-0.742,0.63-1.134,0.882s-0.749,0.455-1.071,0.609
		c-0.294,0.714-0.599,1.382-0.914,2.006c-0.315,0.623-0.644,1.165-0.987,1.627c-0.343,0.462-0.697,0.826-1.061,1.092
		c-0.364,0.266-0.742,0.399-1.134,0.399c-0.308,0-0.588-0.094-0.84-0.283s-0.378-0.501-0.378-0.935c0-0.42,0.129-0.809,0.388-1.166
		c0.259-0.357,0.591-0.686,0.998-0.987c0.406-0.301,0.847-0.577,1.323-0.829c0.476-0.252,0.938-0.49,1.386-0.714
		c0.196-0.49,0.381-1.019,0.557-1.585c0.175-0.567,0.347-1.193,0.515-1.879c-0.532,0.77-1.089,1.411-1.669,1.921
		c-0.581,0.511-1.166,0.767-1.753,0.767c-0.504,0-0.893-0.186-1.166-0.557c-0.273-0.371-0.41-0.864-0.41-1.48
		c0-0.728,0.182-1.42,0.546-2.079s0.826-1.236,1.386-1.733c0.56-0.497,1.162-0.892,1.806-1.187c0.644-0.294,1.253-0.441,1.827-0.441
		c0.406,0,0.696,0.067,0.872,0.2c0.175,0.133,0.262,0.291,0.262,0.472c0,0.126-0.035,0.224-0.105,0.294
		C76.598,117.316,76.548,117.358,76.521,117.372z M71.061,128.775c0.14,0,0.308-0.066,0.504-0.2c0.196-0.133,0.41-0.343,0.641-0.63
		c0.231-0.287,0.479-0.665,0.746-1.134c0.266-0.469,0.539-1.04,0.819-1.711c-0.42,0.21-0.822,0.423-1.208,0.64
		s-0.724,0.448-1.019,0.693c-0.294,0.245-0.532,0.5-0.714,0.766c-0.182,0.266-0.273,0.546-0.273,0.84
		c0,0.224,0.045,0.402,0.137,0.535C70.784,128.708,70.906,128.775,71.061,128.775z"/>
	<path d="M84.857,117.288c0,0.532-0.157,1.032-0.472,1.501s-0.725,0.885-1.229,1.25s-1.064,0.661-1.68,0.892
		c-0.616,0.231-1.225,0.375-1.827,0.431c-0.028,0.14-0.049,0.273-0.063,0.399c-0.014,0.126-0.021,0.245-0.021,0.357
		c0,0.21,0.024,0.42,0.074,0.63c0.049,0.21,0.136,0.399,0.263,0.567c0.126,0.168,0.297,0.305,0.514,0.41
		c0.217,0.105,0.486,0.157,0.809,0.157c0.448,0,0.896-0.098,1.344-0.294c0.448-0.196,0.875-0.465,1.281-0.809
		c0.406-0.343,0.788-0.738,1.145-1.187c0.357-0.448,0.668-0.924,0.935-1.428l0.252,0.189c-0.28,0.63-0.623,1.201-1.029,1.711
		c-0.406,0.511-0.844,0.945-1.312,1.302c-0.469,0.357-0.966,0.633-1.491,0.83c-0.525,0.196-1.047,0.294-1.564,0.294
		c-0.854,0-1.495-0.234-1.921-0.703c-0.427-0.469-0.641-1.046-0.641-1.733c0-0.42,0.073-0.861,0.22-1.323
		c0.147-0.462,0.35-0.917,0.609-1.365c0.259-0.448,0.56-0.875,0.903-1.281c0.343-0.406,0.714-0.763,1.113-1.071
		c0.399-0.308,0.809-0.553,1.229-0.735c0.42-0.182,0.84-0.273,1.26-0.273c0.322,0,0.62,0.084,0.893,0.252
		S84.857,116.77,84.857,117.288z M83.493,116.658c-0.336,0-0.693,0.13-1.071,0.389c-0.378,0.259-0.742,0.595-1.092,1.008
		c-0.35,0.413-0.665,0.875-0.945,1.386c-0.28,0.511-0.49,1.019-0.63,1.522c0.378-0.126,0.805-0.312,1.281-0.557
		c0.476-0.245,0.931-0.535,1.365-0.872c0.434-0.336,0.798-0.707,1.092-1.113c0.294-0.406,0.441-0.833,0.441-1.281
		c0-0.154-0.028-0.273-0.084-0.357C83.793,116.7,83.674,116.658,83.493,116.658z"/>
	<path d="M91.913,117.246c-1.54,0.168-2.772,0.252-3.696,0.252h-0.315c-0.322,0.756-0.595,1.519-0.819,2.289
		c-0.224,0.77-0.336,1.533-0.336,2.289c0,0.616,0.091,1.05,0.273,1.302c0.182,0.252,0.483,0.378,0.903,0.378
		c0.728,0,1.442-0.322,2.142-0.966c0.7-0.644,1.315-1.519,1.848-2.625l0.273,0.21c-0.252,0.588-0.557,1.138-0.914,1.648
		c-0.357,0.511-0.746,0.952-1.166,1.323c-0.42,0.371-0.868,0.662-1.344,0.872s-0.959,0.315-1.449,0.315
		c-1.247,0-1.869-0.693-1.869-2.079c0-0.63,0.112-1.39,0.336-2.279c0.224-0.889,0.518-1.816,0.882-2.782
		c-0.14-0.028-0.273-0.053-0.399-0.074s-0.245-0.052-0.357-0.094v-0.378c0.112,0.014,0.245,0.028,0.399,0.042
		c0.154,0.014,0.329,0.028,0.525,0.042c0.294-0.756,0.609-1.487,0.945-2.194c0.336-0.707,0.668-1.337,0.998-1.89
		c0.329-0.553,0.644-0.994,0.945-1.323c0.301-0.329,0.557-0.494,0.767-0.494c0.112,0,0.213,0.039,0.305,0.116
		c0.091,0.077,0.136,0.192,0.136,0.346c0,0.182-0.087,0.452-0.263,0.809c-0.175,0.357-0.399,0.774-0.672,1.25
		c-0.273,0.476-0.574,1.008-0.903,1.596c-0.329,0.588-0.648,1.204-0.956,1.848h0.777c0.462,0,0.945-0.007,1.449-0.021
		c0.504-0.014,1.021-0.049,1.554-0.105V117.246z"/>
	<path d="M97.919,117.246c-1.54,0.168-2.772,0.252-3.696,0.252h-0.315c-0.322,0.756-0.595,1.519-0.819,2.289
		c-0.224,0.77-0.336,1.533-0.336,2.289c0,0.616,0.091,1.05,0.273,1.302c0.182,0.252,0.483,0.378,0.903,0.378
		c0.728,0,1.442-0.322,2.142-0.966c0.7-0.644,1.315-1.519,1.848-2.625l0.273,0.21c-0.252,0.588-0.557,1.138-0.914,1.648
		c-0.357,0.511-0.746,0.952-1.166,1.323c-0.42,0.371-0.868,0.662-1.344,0.872s-0.959,0.315-1.449,0.315
		c-1.247,0-1.869-0.693-1.869-2.079c0-0.63,0.112-1.39,0.336-2.279c0.224-0.889,0.518-1.816,0.882-2.782
		c-0.14-0.028-0.273-0.053-0.399-0.074s-0.245-0.052-0.357-0.094v-0.378c0.112,0.014,0.245,0.028,0.399,0.042
		c0.154,0.014,0.329,0.028,0.525,0.042c0.294-0.756,0.609-1.487,0.945-2.194c0.336-0.707,0.668-1.337,0.998-1.89
		c0.329-0.553,0.644-0.994,0.945-1.323c0.301-0.329,0.557-0.494,0.767-0.494c0.112,0,0.213,0.039,0.305,0.116
		c0.091,0.077,0.136,0.192,0.136,0.346c0,0.182-0.087,0.452-0.263,0.809c-0.175,0.357-0.399,0.774-0.672,1.25
		c-0.273,0.476-0.574,1.008-0.903,1.596c-0.329,0.588-0.648,1.204-0.956,1.848h0.777c0.462,0,0.945-0.007,1.449-0.021
		c0.504-0.014,1.021-0.049,1.554-0.105V117.246z"/>
	<path d="M100.46,116.448c0.126,0,0.234,0.039,0.326,0.116c0.091,0.077,0.136,0.192,0.136,0.346c0,0.168-0.115,0.445-0.346,0.83
		c-0.231,0.385-0.483,0.819-0.756,1.302s-0.521,0.994-0.745,1.533c-0.224,0.539-0.336,1.054-0.336,1.543
		c0,0.504,0.084,0.84,0.252,1.008c0.168,0.168,0.427,0.252,0.777,0.252c0.238,0,0.483-0.056,0.735-0.168
		c0.252-0.112,0.515-0.294,0.788-0.546s0.553-0.581,0.84-0.987c0.287-0.406,0.578-0.91,0.872-1.512l0.189,0.21
		c-0.21,0.602-0.465,1.138-0.767,1.606c-0.301,0.469-0.633,0.861-0.998,1.176c-0.364,0.315-0.749,0.553-1.155,0.714
		c-0.406,0.161-0.812,0.241-1.218,0.241c-0.546,0-0.953-0.171-1.218-0.514c-0.266-0.343-0.399-0.759-0.399-1.25
		c0-0.266,0.042-0.595,0.126-0.987c0.084-0.392,0.2-0.809,0.347-1.25s0.315-0.878,0.504-1.312c0.189-0.434,0.396-0.826,0.62-1.176
		c0.224-0.35,0.458-0.633,0.703-0.851C99.981,116.557,100.222,116.448,100.46,116.448z M101.574,114.495
		c-0.238,0-0.441-0.056-0.609-0.168c-0.168-0.112-0.252-0.287-0.252-0.525c0-0.14,0.049-0.276,0.147-0.409
		c0.098-0.133,0.221-0.252,0.368-0.357c0.147-0.105,0.312-0.185,0.494-0.241c0.182-0.056,0.357-0.084,0.525-0.084
		c0.21,0,0.378,0.049,0.504,0.147c0.126,0.098,0.189,0.266,0.189,0.504c0,0.126-0.039,0.259-0.115,0.399
		c-0.077,0.14-0.182,0.263-0.315,0.368c-0.133,0.105-0.28,0.192-0.441,0.263C101.906,114.46,101.742,114.495,101.574,114.495z"/>
	<path d="M101.825,123.42c0-0.056,0.077-0.273,0.231-0.651c0.154-0.378,0.322-0.826,0.504-1.344
		c0.182-0.518,0.354-1.061,0.515-1.627c0.161-0.567,0.241-1.082,0.241-1.543c0.084-0.098,0.217-0.196,0.399-0.294
		c0.182-0.098,0.371-0.147,0.567-0.147c0.378,0,0.567,0.182,0.567,0.546c0,0.224-0.063,0.595-0.189,1.113
		c-0.126,0.519-0.287,1.071-0.483,1.659c0.28-0.42,0.588-0.851,0.924-1.292s0.693-0.84,1.071-1.197
		c0.378-0.357,0.767-0.647,1.166-0.872s0.801-0.336,1.208-0.336c0.266,0,0.497,0.052,0.693,0.157
		c0.196,0.105,0.357,0.249,0.483,0.431c0.126,0.182,0.22,0.385,0.283,0.609c0.063,0.224,0.095,0.455,0.095,0.693
		c0,0.322-0.046,0.63-0.137,0.924c-0.091,0.294-0.189,0.574-0.294,0.84c-0.105,0.266-0.203,0.529-0.294,0.788
		c-0.091,0.259-0.136,0.515-0.136,0.767c0,0.294,0.059,0.5,0.178,0.619c0.119,0.119,0.27,0.179,0.452,0.179
		c0.266,0,0.532-0.098,0.798-0.294c0.266-0.196,0.525-0.452,0.777-0.767s0.494-0.665,0.725-1.05s0.444-0.773,0.641-1.166
		l0.231,0.273c-0.224,0.518-0.466,0.994-0.725,1.428c-0.259,0.434-0.539,0.809-0.84,1.124c-0.301,0.315-0.623,0.56-0.966,0.735
		c-0.343,0.175-0.711,0.262-1.103,0.262c-0.49,0-0.858-0.126-1.103-0.378c-0.245-0.252-0.368-0.574-0.368-0.966
		c0-0.21,0.032-0.434,0.095-0.672c0.063-0.238,0.133-0.483,0.21-0.735c0.077-0.252,0.147-0.504,0.21-0.756s0.094-0.504,0.094-0.756
		c0-0.392-0.081-0.662-0.241-0.809c-0.161-0.147-0.361-0.221-0.599-0.221c-0.434,0-0.875,0.182-1.323,0.546
		c-0.448,0.364-0.882,0.816-1.302,1.354c-0.42,0.539-0.816,1.106-1.187,1.701c-0.371,0.595-0.69,1.124-0.956,1.585
		c-0.224,0-0.438-0.039-0.641-0.115C102.095,123.689,101.938,123.574,101.825,123.42z"/>
	<path d="M118.625,117.372c-0.154-0.21-0.434-0.315-0.84-0.315c-0.546,0-1.074,0.165-1.585,0.493
		c-0.511,0.329-0.963,0.739-1.354,1.229c-0.392,0.49-0.704,1.012-0.935,1.564c-0.231,0.553-0.347,1.047-0.347,1.48
		c0,0.336,0.066,0.592,0.2,0.767c0.133,0.175,0.312,0.263,0.536,0.263c0.196,0,0.42-0.074,0.672-0.221s0.515-0.346,0.788-0.599
		c0.273-0.252,0.549-0.546,0.829-0.882c0.28-0.336,0.553-0.693,0.819-1.071l0.252-1.113c0.014-0.098,0.049-0.21,0.104-0.336
		c0.057-0.126,0.127-0.241,0.211-0.347c0.084-0.105,0.188-0.196,0.314-0.273c0.126-0.077,0.273-0.115,0.441-0.115
		c0.125,0,0.273,0.021,0.441,0.063c0,0.168-0.039,0.448-0.116,0.84c-0.077,0.392-0.186,0.847-0.325,1.365
		c-0.141,0.518-0.312,1.082-0.515,1.69c-0.203,0.609-0.424,1.229-0.661,1.858c0.336-0.168,0.675-0.371,1.018-0.609
		c0.344-0.238,0.665-0.507,0.967-0.809c0.301-0.301,0.577-0.63,0.829-0.987s0.454-0.738,0.608-1.145l0.273,0.21
		c-0.168,0.476-0.406,0.92-0.714,1.333s-0.644,0.788-1.008,1.124s-0.742,0.63-1.134,0.882c-0.393,0.252-0.75,0.455-1.071,0.609
		c-0.294,0.714-0.599,1.382-0.914,2.006c-0.315,0.623-0.644,1.165-0.987,1.627c-0.343,0.462-0.697,0.826-1.061,1.092
		c-0.364,0.266-0.742,0.399-1.134,0.399c-0.308,0-0.588-0.094-0.84-0.283s-0.378-0.501-0.378-0.935c0-0.42,0.129-0.809,0.388-1.166
		c0.259-0.357,0.591-0.686,0.998-0.987c0.406-0.301,0.847-0.577,1.323-0.829c0.476-0.252,0.938-0.49,1.386-0.714
		c0.196-0.49,0.381-1.019,0.557-1.585c0.174-0.567,0.346-1.193,0.514-1.879c-0.531,0.77-1.088,1.411-1.669,1.921
		c-0.581,0.511-1.166,0.767-1.753,0.767c-0.504,0-0.893-0.186-1.166-0.557c-0.273-0.371-0.41-0.864-0.41-1.48
		c0-0.728,0.182-1.42,0.546-2.079s0.826-1.236,1.386-1.733c0.56-0.497,1.162-0.892,1.806-1.187c0.645-0.294,1.253-0.441,1.827-0.441
		c0.405,0,0.696,0.067,0.872,0.2c0.174,0.133,0.262,0.291,0.262,0.472c0,0.126-0.035,0.224-0.105,0.294
		C118.702,117.316,118.652,117.358,118.625,117.372z M113.165,128.775c0.14,0,0.308-0.066,0.504-0.2
		c0.196-0.133,0.41-0.343,0.641-0.63c0.231-0.287,0.479-0.665,0.746-1.134c0.266-0.469,0.539-1.04,0.819-1.711
		c-0.42,0.21-0.822,0.423-1.208,0.64s-0.724,0.448-1.019,0.693c-0.294,0.245-0.532,0.5-0.714,0.766
		c-0.182,0.266-0.273,0.546-0.273,0.84c0,0.224,0.045,0.402,0.137,0.535C112.889,128.708,113.011,128.775,113.165,128.775z"/>
	<path d="M131.519,124.029c-0.084,0-0.186-0.007-0.305-0.021c-0.118-0.014-0.237-0.039-0.356-0.073
		c-0.119-0.035-0.218-0.081-0.295-0.137c-0.076-0.056-0.115-0.119-0.115-0.189c0-0.098,0.07-0.336,0.211-0.714
		c0.139-0.378,0.289-0.809,0.451-1.292c0.16-0.483,0.311-0.983,0.451-1.501c0.14-0.518,0.21-0.959,0.21-1.323
		c0-0.238-0.038-0.43-0.115-0.578c-0.077-0.147-0.214-0.22-0.409-0.22c-0.309,0-0.68,0.189-1.113,0.567
		c-0.435,0.378-0.879,0.861-1.334,1.449c-0.455,0.588-0.893,1.246-1.312,1.974c-0.42,0.729-0.756,1.449-1.008,2.163
		c-0.098,0-0.213-0.014-0.346-0.042c-0.134-0.028-0.256-0.063-0.368-0.105s-0.21-0.087-0.294-0.136
		c-0.084-0.049-0.126-0.102-0.126-0.158c0-0.084,0.073-0.336,0.22-0.756c0.147-0.42,0.312-0.914,0.494-1.48
		c0.182-0.567,0.35-1.155,0.504-1.764s0.23-1.145,0.23-1.606c0.084-0.098,0.217-0.196,0.399-0.294
		c0.183-0.098,0.371-0.147,0.567-0.147c0.378,0,0.566,0.182,0.566,0.546c0,0.196-0.053,0.511-0.157,0.945
		c-0.104,0.434-0.234,0.917-0.388,1.449c0.279-0.448,0.598-0.906,0.955-1.375c0.357-0.469,0.728-0.899,1.113-1.292
		c0.385-0.392,0.779-0.71,1.186-0.956c0.406-0.245,0.799-0.368,1.176-0.368c0.435,0,0.732,0.158,0.893,0.473
		c0.161,0.315,0.242,0.69,0.242,1.124c0,0.266-0.025,0.542-0.074,0.83s-0.104,0.567-0.168,0.84
		c-0.062,0.273-0.133,0.522-0.209,0.746c-0.078,0.224-0.145,0.406-0.199,0.546c0.223-0.392,0.461-0.784,0.713-1.176
		s0.525-0.738,0.819-1.04c0.294-0.301,0.603-0.546,0.924-0.735c0.322-0.189,0.665-0.283,1.029-0.283
		c0.448,0,0.759,0.133,0.935,0.399c0.175,0.266,0.262,0.581,0.262,0.945c0,0.28-0.041,0.578-0.125,0.893s-0.172,0.63-0.263,0.945
		c-0.091,0.315-0.179,0.616-0.263,0.903c-0.084,0.287-0.126,0.542-0.126,0.767c0,0.196,0.046,0.364,0.137,0.504
		c0.091,0.14,0.255,0.21,0.493,0.21c0.294,0,0.574-0.105,0.84-0.315s0.518-0.479,0.756-0.809c0.238-0.329,0.459-0.686,0.662-1.071
		s0.389-0.759,0.557-1.124l0.252,0.294c-0.168,0.448-0.375,0.893-0.619,1.333c-0.246,0.441-0.519,0.844-0.82,1.208
		c-0.301,0.364-0.637,0.658-1.008,0.882c-0.371,0.224-0.766,0.336-1.186,0.336c-0.49,0-0.848-0.15-1.071-0.451
		c-0.224-0.301-0.337-0.662-0.337-1.082c0-0.252,0.032-0.511,0.096-0.777c0.062-0.266,0.137-0.528,0.221-0.787
		c0.084-0.259,0.156-0.507,0.22-0.746c0.063-0.238,0.095-0.462,0.095-0.672c0-0.28-0.062-0.476-0.189-0.588
		c-0.125-0.112-0.266-0.168-0.42-0.168c-0.35,0-0.731,0.27-1.145,0.809c-0.412,0.539-0.948,1.312-1.606,2.32
		c-0.224,0.336-0.413,0.676-0.567,1.019C131.805,123.438,131.658,123.749,131.519,124.029z"/>
	<path d="M145.547,119.115c0.055,0.014,0.133,0.035,0.23,0.063c0.098,0.028,0.192,0.063,0.283,0.105
		c0.092,0.042,0.168,0.091,0.231,0.147c0.063,0.056,0.095,0.126,0.095,0.21c0,0.126-0.062,0.301-0.189,0.525
		c-0.126,0.224-0.266,0.472-0.42,0.745c-0.154,0.273-0.294,0.553-0.42,0.84s-0.189,0.557-0.189,0.809
		c0,0.21,0.057,0.417,0.168,0.619c0.112,0.203,0.295,0.305,0.547,0.305c0.378,0,0.875-0.273,1.49-0.819
		c0.616-0.546,1.239-1.379,1.869-2.499l0.211,0.21c-0.225,0.574-0.498,1.096-0.82,1.564c-0.321,0.469-0.668,0.872-1.039,1.208
		s-0.752,0.595-1.145,0.777c-0.392,0.182-0.777,0.273-1.154,0.273c-0.519,0-0.9-0.154-1.145-0.462
		c-0.246-0.308-0.367-0.644-0.367-1.008c0-0.168,0.021-0.371,0.062-0.609c-0.616,0.812-1.17,1.421-1.659,1.827
		c-0.49,0.406-0.994,0.609-1.513,0.609c-0.447,0-0.818-0.144-1.112-0.43c-0.294-0.287-0.44-0.725-0.44-1.312
		c0-0.42,0.08-0.868,0.24-1.344c0.162-0.476,0.382-0.956,0.662-1.438c0.279-0.483,0.609-0.945,0.987-1.386
		c0.378-0.441,0.78-0.83,1.207-1.166s0.872-0.605,1.333-0.809c0.463-0.203,0.925-0.305,1.387-0.305c0.546,0,1.001,0.144,1.365,0.431
		c0.363,0.287,0.546,0.668,0.546,1.145c0,0.35-0.095,0.588-0.284,0.714c-0.188,0.126-0.438,0.189-0.745,0.189
		c0.069-0.252,0.104-0.497,0.104-0.735c0-0.322-0.076-0.599-0.23-0.83s-0.42-0.347-0.798-0.347c-0.336,0-0.672,0.098-1.008,0.294
		c-0.337,0.196-0.665,0.458-0.987,0.787c-0.322,0.329-0.623,0.704-0.902,1.124c-0.281,0.42-0.529,0.851-0.746,1.292
		s-0.385,0.875-0.504,1.302c-0.119,0.427-0.179,0.809-0.179,1.145c0,0.546,0.188,0.819,0.567,0.819c0.322,0,0.686-0.168,1.092-0.504
		s0.812-0.742,1.218-1.218c0.406-0.476,0.794-0.976,1.165-1.501C144.982,119.944,145.295,119.493,145.547,119.115z"/>
	<path d="M148.864,120.9c0.196-0.364,0.452-0.896,0.767-1.596c0.314-0.7,0.627-1.498,0.935-2.394c-0.14-0.14-0.21-0.308-0.21-0.504
		c0-0.21,0.035-0.402,0.105-0.577c0.069-0.175,0.153-0.326,0.252-0.452c0.098-0.126,0.195-0.224,0.293-0.294
		c0.098-0.07,0.176-0.105,0.231-0.105c0.153,0,0.241,0.066,0.263,0.199c0.021,0.133,0.031,0.235,0.031,0.305
		c0,0.042-0.01,0.102-0.031,0.178c-0.021,0.077-0.049,0.158-0.084,0.242s-0.063,0.161-0.084,0.231
		c-0.021,0.07-0.031,0.112-0.031,0.126c0,0.196,0.111,0.375,0.336,0.536c0.223,0.161,0.469,0.343,0.734,0.546
		c0.266,0.203,0.512,0.448,0.735,0.735c0.224,0.287,0.336,0.655,0.336,1.103c0,0.322-0.056,0.648-0.168,0.977
		c-0.112,0.329-0.231,0.648-0.356,0.956c-0.127,0.308-0.246,0.599-0.357,0.872c-0.112,0.273-0.168,0.521-0.168,0.746
		c0,0.252,0.062,0.42,0.188,0.504s0.273,0.126,0.441,0.126c0.336,0,0.686-0.105,1.05-0.315c0.363-0.21,0.711-0.473,1.039-0.788
		c0.329-0.315,0.627-0.654,0.893-1.019c0.266-0.364,0.463-0.7,0.588-1.008l0.273,0.21c-0.196,0.448-0.451,0.893-0.767,1.333
		s-0.669,0.833-1.061,1.176c-0.392,0.343-0.806,0.623-1.239,0.84c-0.434,0.217-0.875,0.325-1.322,0.325
		c-0.477,0-0.851-0.126-1.124-0.378c-0.272-0.252-0.409-0.581-0.409-0.987c0-0.308,0.059-0.633,0.178-0.977
		c0.119-0.343,0.252-0.686,0.4-1.029c0.146-0.343,0.279-0.679,0.398-1.008c0.119-0.329,0.178-0.633,0.178-0.914
		c0-0.224-0.035-0.417-0.104-0.578c-0.07-0.161-0.165-0.301-0.283-0.42c-0.119-0.119-0.249-0.224-0.389-0.315
		c-0.14-0.091-0.272-0.185-0.399-0.283c-0.168,0.42-0.336,0.829-0.504,1.229c-0.168,0.399-0.336,0.773-0.504,1.123
		c-0.168,0.351-0.325,0.672-0.473,0.966c-0.146,0.294-0.276,0.532-0.389,0.714L148.864,120.9z"/>
	<path d="M156.193,120.9c0.195-0.364,0.451-0.896,0.767-1.596c0.315-0.7,0.626-1.498,0.935-2.394c-0.141-0.14-0.21-0.308-0.21-0.504
		c0-0.21,0.034-0.402,0.104-0.577c0.07-0.175,0.154-0.326,0.252-0.452s0.196-0.224,0.295-0.294c0.098-0.07,0.174-0.105,0.23-0.105
		c0.154,0,0.242,0.066,0.263,0.199c0.021,0.133,0.031,0.235,0.031,0.305c0,0.042-0.011,0.102-0.031,0.178
		c-0.021,0.077-0.05,0.158-0.085,0.242c-0.034,0.084-0.062,0.161-0.084,0.231c-0.021,0.07-0.031,0.112-0.031,0.126
		c0,0.196,0.112,0.375,0.336,0.536c0.225,0.161,0.469,0.343,0.735,0.546c0.267,0.203,0.511,0.448,0.735,0.735
		c0.224,0.287,0.336,0.655,0.336,1.103c0,0.322-0.057,0.648-0.168,0.977c-0.112,0.329-0.23,0.648-0.357,0.956
		c-0.125,0.308-0.244,0.599-0.357,0.872c-0.111,0.273-0.168,0.521-0.168,0.746c0,0.252,0.063,0.42,0.189,0.504
		s0.273,0.126,0.441,0.126c0.336,0,0.686-0.105,1.05-0.315s0.71-0.473,1.04-0.788c0.328-0.315,0.626-0.654,0.893-1.019
		c0.266-0.364,0.461-0.7,0.588-1.008l0.272,0.21c-0.196,0.448-0.452,0.893-0.767,1.333s-0.668,0.833-1.061,1.176
		c-0.393,0.343-0.805,0.623-1.238,0.84c-0.435,0.217-0.875,0.325-1.324,0.325c-0.476,0-0.85-0.126-1.123-0.378
		s-0.409-0.581-0.409-0.987c0-0.308,0.06-0.633,0.179-0.977c0.119-0.343,0.252-0.686,0.398-1.029
		c0.147-0.343,0.28-0.679,0.399-1.008c0.118-0.329,0.179-0.633,0.179-0.914c0-0.224-0.035-0.417-0.105-0.578
		c-0.07-0.161-0.164-0.301-0.283-0.42c-0.119-0.119-0.249-0.224-0.389-0.315c-0.141-0.091-0.273-0.185-0.398-0.283
		c-0.168,0.42-0.336,0.829-0.504,1.229c-0.168,0.399-0.337,0.773-0.505,1.123c-0.168,0.351-0.325,0.672-0.472,0.966
		c-0.147,0.294-0.277,0.532-0.389,0.714L156.193,120.9z"/>
	<path d="M166.42,116.448c0.127,0,0.234,0.039,0.326,0.116c0.091,0.077,0.137,0.192,0.137,0.346c0,0.168-0.115,0.445-0.347,0.83
		c-0.231,0.385-0.483,0.819-0.757,1.302c-0.272,0.483-0.521,0.994-0.744,1.533c-0.225,0.539-0.337,1.054-0.337,1.543
		c0,0.504,0.084,0.84,0.253,1.008c0.168,0.168,0.426,0.252,0.776,0.252c0.237,0,0.483-0.056,0.735-0.168
		c0.252-0.112,0.514-0.294,0.787-0.546s0.553-0.581,0.84-0.987c0.287-0.406,0.578-0.91,0.871-1.512l0.189,0.21
		c-0.21,0.602-0.465,1.138-0.767,1.606c-0.302,0.469-0.634,0.861-0.997,1.176c-0.364,0.315-0.75,0.553-1.155,0.714
		c-0.406,0.161-0.812,0.241-1.218,0.241c-0.547,0-0.953-0.171-1.219-0.514c-0.266-0.343-0.398-0.759-0.398-1.25
		c0-0.266,0.042-0.595,0.126-0.987c0.084-0.392,0.2-0.809,0.347-1.25s0.314-0.878,0.504-1.312c0.189-0.434,0.396-0.826,0.619-1.176
		c0.225-0.35,0.459-0.633,0.703-0.851C165.941,116.557,166.182,116.448,166.42,116.448z M167.533,114.495
		c-0.238,0-0.441-0.056-0.609-0.168c-0.168-0.112-0.252-0.287-0.252-0.525c0-0.14,0.049-0.276,0.147-0.409
		c0.099-0.133,0.221-0.252,0.368-0.357c0.146-0.105,0.311-0.185,0.493-0.241c0.182-0.056,0.356-0.084,0.524-0.084
		c0.211,0,0.379,0.049,0.504,0.147c0.127,0.098,0.189,0.266,0.189,0.504c0,0.126-0.039,0.259-0.115,0.399
		c-0.077,0.14-0.182,0.263-0.315,0.368c-0.133,0.105-0.28,0.192-0.44,0.263C167.865,114.46,167.701,114.495,167.533,114.495z"/>
	<path d="M174.925,117.288c0,0.532-0.157,1.032-0.472,1.501c-0.315,0.469-0.725,0.885-1.229,1.25s-1.064,0.661-1.681,0.892
		c-0.616,0.231-1.226,0.375-1.827,0.431c-0.027,0.14-0.049,0.273-0.062,0.399s-0.021,0.245-0.021,0.357
		c0,0.21,0.024,0.42,0.074,0.63c0.049,0.21,0.136,0.399,0.262,0.567c0.127,0.168,0.297,0.305,0.515,0.41
		c0.217,0.105,0.486,0.157,0.809,0.157c0.448,0,0.896-0.098,1.345-0.294c0.447-0.196,0.874-0.465,1.28-0.809
		c0.405-0.343,0.787-0.738,1.145-1.187c0.357-0.448,0.668-0.924,0.935-1.428l0.252,0.189c-0.28,0.63-0.623,1.201-1.029,1.711
		c-0.406,0.511-0.844,0.945-1.312,1.302c-0.469,0.357-0.966,0.633-1.49,0.83c-0.525,0.196-1.047,0.294-1.564,0.294
		c-0.854,0-1.495-0.234-1.922-0.703c-0.428-0.469-0.641-1.046-0.641-1.733c0-0.42,0.073-0.861,0.221-1.323
		c0.146-0.462,0.35-0.917,0.609-1.365c0.258-0.448,0.559-0.875,0.902-1.281c0.343-0.406,0.714-0.763,1.113-1.071
		c0.398-0.308,0.809-0.553,1.229-0.735c0.42-0.182,0.84-0.273,1.26-0.273c0.322,0,0.619,0.084,0.893,0.252
		C174.788,116.427,174.925,116.77,174.925,117.288z M173.561,116.658c-0.336,0-0.693,0.13-1.072,0.389
		c-0.377,0.259-0.742,0.595-1.092,1.008c-0.35,0.413-0.664,0.875-0.944,1.386c-0.28,0.511-0.49,1.019-0.63,1.522
		c0.378-0.126,0.805-0.312,1.281-0.557c0.475-0.245,0.93-0.535,1.364-0.872c0.435-0.336,0.798-0.707,1.093-1.113
		c0.293-0.406,0.44-0.833,0.44-1.281c0-0.154-0.028-0.273-0.084-0.357S173.742,116.658,173.561,116.658z"/>
	<path d="M181.793,116.952c-0.154-0.21-0.42-0.315-0.798-0.315c-0.379,0-0.746,0.098-1.103,0.294
		c-0.357,0.196-0.693,0.456-1.009,0.777c-0.314,0.322-0.605,0.686-0.871,1.092c-0.267,0.406-0.493,0.816-0.683,1.229
		c-0.188,0.413-0.336,0.809-0.441,1.187c-0.104,0.378-0.157,0.7-0.157,0.966c0,0.322,0.066,0.571,0.2,0.746
		c0.133,0.175,0.317,0.263,0.556,0.263c0.28,0,0.612-0.137,0.998-0.41c0.385-0.273,0.784-0.662,1.197-1.166
		c0.412-0.504,0.822-1.109,1.229-1.816c0.405-0.707,0.776-1.501,1.112-2.383c0.392-1.008,0.798-2.044,1.218-3.108
		c0.421-1.063,0.833-2.03,1.239-2.898c0.406-0.868,0.791-1.578,1.155-2.131c0.364-0.553,0.693-0.83,0.987-0.83
		c0.111,0,0.21,0.046,0.294,0.137c0.084,0.091,0.126,0.207,0.126,0.346c0,0.224-0.119,0.606-0.357,1.145
		c-0.238,0.539-0.535,1.184-0.893,1.932c-0.356,0.749-0.745,1.564-1.165,2.447c-0.42,0.882-0.809,1.774-1.166,2.677
		c-0.356,0.903-0.654,1.785-0.893,2.646s-0.356,1.635-0.356,2.32c0,0.406,0.021,0.704,0.062,0.893s0.182,0.284,0.42,0.284
		c0.21,0,0.459-0.074,0.746-0.221c0.286-0.147,0.577-0.353,0.871-0.619s0.581-0.591,0.861-0.977
		c0.279-0.385,0.531-0.815,0.756-1.292l0.252,0.189c-0.21,0.546-0.473,1.046-0.787,1.501c-0.315,0.455-0.655,0.851-1.019,1.187
		c-0.364,0.336-0.746,0.599-1.145,0.788c-0.399,0.189-0.774,0.283-1.124,0.283c-0.266,0-0.486-0.049-0.661-0.147
		c-0.176-0.098-0.315-0.22-0.42-0.367c-0.105-0.147-0.183-0.315-0.231-0.504s-0.073-0.374-0.073-0.556
		c0-0.238,0.035-0.549,0.104-0.935c0.07-0.385,0.169-0.822,0.295-1.312c-0.337,0.56-0.69,1.078-1.061,1.554
		c-0.371,0.476-0.742,0.889-1.113,1.239s-0.735,0.623-1.092,0.819c-0.357,0.196-0.697,0.294-1.019,0.294
		c-0.183,0-0.364-0.035-0.546-0.105c-0.183-0.07-0.351-0.175-0.504-0.315c-0.154-0.14-0.28-0.322-0.379-0.546
		c-0.098-0.224-0.146-0.49-0.146-0.798c0-0.392,0.081-0.822,0.241-1.292c0.161-0.469,0.378-0.941,0.651-1.417
		c0.272-0.476,0.591-0.938,0.955-1.386c0.364-0.448,0.756-0.843,1.177-1.187c0.42-0.343,0.854-0.62,1.302-0.83
		c0.447-0.21,0.889-0.315,1.323-0.315c0.615,0,0.924,0.217,0.924,0.651c0,0.056-0.004,0.105-0.011,0.147
		S181.807,116.896,181.793,116.952z"/>
	<path d="M185.572,123.777c-0.183,0-0.34-0.045-0.473-0.136c-0.133-0.091-0.2-0.234-0.2-0.431c0-0.238,0.134-0.441,0.399-0.609
		s0.539-0.252,0.819-0.252c0.168,0,0.301,0.035,0.398,0.105c0.098,0.07,0.147,0.203,0.147,0.399c0,0.21-0.112,0.417-0.336,0.619
		C186.104,123.675,185.852,123.777,185.572,123.777z M186.181,121.404c0-0.252,0.038-0.546,0.115-0.882s0.172-0.683,0.284-1.04
		c0.111-0.357,0.237-0.717,0.378-1.082c0.14-0.364,0.266-0.693,0.378-0.987c0.392-1.008,0.798-2.044,1.218-3.108
		c0.42-1.063,0.833-2.03,1.239-2.898c0.405-0.868,0.791-1.578,1.155-2.131c0.363-0.553,0.692-0.83,0.986-0.83
		c0.112,0,0.21,0.046,0.294,0.137c0.084,0.091,0.126,0.207,0.126,0.346c0,0.196-0.115,0.588-0.347,1.176
		c-0.23,0.588-0.532,1.281-0.902,2.079c-0.371,0.798-0.788,1.656-1.25,2.572c-0.462,0.917-0.924,1.806-1.386,2.667
		s-0.896,1.646-1.302,2.352C186.762,120.483,186.433,121.026,186.181,121.404z"/>
</g>
<g>
	<path stroke="#000000" stroke-miterlimit="10" d="M27.351,79.795c0-1.12,0.266-2.3,0.8-3.54c0.533-1.24,1.293-2.393,2.28-3.46
		c0.986-1.066,2.186-1.946,3.6-2.64s2.986-1.04,4.72-1.04c1.546,0,2.633,0.38,3.26,1.14c0.626,0.76,0.94,1.714,0.94,2.86
		c0,0.72-0.1,1.494-0.3,2.32c-0.2,0.827-0.454,1.634-0.76,2.42c-0.307,0.787-0.64,1.534-1,2.24c-0.36,0.707-0.7,1.313-1.02,1.82
		c-0.48-0.106-0.82-0.306-1.02-0.6c-0.2-0.293-0.3-0.666-0.3-1.12c0-0.56,0.12-1.206,0.36-1.94c0.24-0.733,0.513-1.48,0.82-2.24
		c0.306-0.76,0.58-1.506,0.82-2.24c0.24-0.733,0.36-1.393,0.36-1.98c0-0.533-0.16-0.953-0.48-1.26c-0.32-0.306-0.907-0.46-1.76-0.46
		c-1.253,0-2.42,0.3-3.5,0.9s-2.014,1.347-2.8,2.24c-0.787,0.894-1.4,1.854-1.84,2.88c-0.44,1.027-0.66,1.954-0.66,2.78
		c0,0.987,0.293,1.834,0.88,2.54c0.586,0.707,1.326,1.354,2.22,1.94c0.893,0.587,1.853,1.154,2.88,1.7
		c1.026,0.547,1.986,1.174,2.88,1.88c0.893,0.707,1.633,1.534,2.22,2.48c0.586,0.947,0.88,2.1,0.88,3.46
		c0,1.387-0.314,2.607-0.94,3.66c-0.627,1.054-1.44,1.94-2.44,2.66c-1,0.72-2.12,1.267-3.36,1.64c-1.24,0.373-2.474,0.56-3.7,0.56
		c-1.094,0-2.14-0.147-3.14-0.44c-1-0.294-1.887-0.734-2.66-1.32c-0.773-0.587-1.394-1.334-1.86-2.24s-0.7-1.96-0.7-3.16
		c0-1.04,0.167-1.906,0.5-2.6c0.333-0.693,0.747-1.24,1.24-1.64c0.493-0.4,1.04-0.687,1.64-0.86s1.18-0.26,1.74-0.26
		c-0.72,0.774-1.267,1.627-1.64,2.56c-0.374,0.934-0.56,1.867-0.56,2.8c0,0.747,0.126,1.454,0.38,2.12
		c0.253,0.667,0.626,1.26,1.12,1.78c0.493,0.52,1.126,0.933,1.9,1.24c0.773,0.306,1.68,0.46,2.72,0.46c0.906,0,1.8-0.127,2.68-0.38
		c0.88-0.254,1.673-0.62,2.38-1.1s1.28-1.086,1.72-1.82s0.66-1.58,0.66-2.54c0-1.146-0.3-2.126-0.9-2.94
		c-0.6-0.813-1.354-1.546-2.26-2.2c-0.907-0.653-1.88-1.273-2.92-1.86c-1.04-0.586-2.014-1.213-2.92-1.88
		c-0.907-0.667-1.66-1.42-2.26-2.26S27.351,80.996,27.351,79.795z"/>
	<path stroke="#000000" stroke-miterlimit="10" d="M55.95,89.436c0.106,0.027,0.253,0.067,0.44,0.12
		c0.186,0.054,0.366,0.12,0.54,0.2c0.173,0.08,0.32,0.174,0.44,0.28c0.12,0.107,0.18,0.24,0.18,0.4c0,0.24-0.12,0.574-0.36,1
		c-0.24,0.427-0.507,0.9-0.8,1.42c-0.294,0.52-0.56,1.054-0.8,1.6c-0.24,0.547-0.36,1.06-0.36,1.54c0,0.4,0.106,0.793,0.32,1.18
		c0.213,0.387,0.56,0.58,1.04,0.58c0.72,0,1.667-0.52,2.84-1.56c1.173-1.04,2.36-2.626,3.56-4.76l0.4,0.4
		c-0.427,1.094-0.947,2.087-1.56,2.98c-0.614,0.894-1.274,1.66-1.98,2.3c-0.707,0.64-1.434,1.133-2.18,1.48
		c-0.747,0.346-1.48,0.52-2.2,0.52c-0.987,0-1.714-0.294-2.18-0.88c-0.467-0.586-0.7-1.226-0.7-1.92c0-0.32,0.04-0.706,0.12-1.16
		c-1.174,1.547-2.227,2.707-3.16,3.48c-0.934,0.773-1.894,1.16-2.88,1.16c-0.854,0-1.56-0.273-2.12-0.82
		c-0.56-0.547-0.84-1.38-0.84-2.5c0-0.8,0.154-1.653,0.46-2.56c0.307-0.906,0.727-1.82,1.26-2.74c0.533-0.92,1.16-1.8,1.88-2.64
		c0.72-0.84,1.486-1.58,2.3-2.22s1.66-1.153,2.54-1.54c0.88-0.386,1.76-0.58,2.64-0.58c1.04,0,1.906,0.274,2.6,0.82
		c0.693,0.547,1.04,1.273,1.04,2.18c0,0.667-0.18,1.12-0.54,1.36c-0.36,0.24-0.834,0.36-1.42,0.36c0.133-0.48,0.2-0.946,0.2-1.4
		c0-0.613-0.147-1.14-0.44-1.58c-0.294-0.44-0.8-0.66-1.52-0.66c-0.64,0-1.28,0.187-1.92,0.56c-0.64,0.374-1.267,0.874-1.88,1.5
		c-0.614,0.627-1.187,1.34-1.72,2.14c-0.534,0.8-1.007,1.62-1.42,2.46c-0.414,0.84-0.734,1.667-0.96,2.48
		c-0.227,0.814-0.34,1.54-0.34,2.18c0,1.04,0.36,1.56,1.08,1.56c0.613,0,1.307-0.32,2.08-0.96c0.773-0.64,1.546-1.413,2.32-2.32
		c0.773-0.906,1.513-1.86,2.22-2.86C54.876,91.016,55.47,90.156,55.95,89.436z"/>
	<path stroke="#000000" stroke-miterlimit="10" d="M62.27,92.835c0.373-0.693,0.86-1.706,1.46-3.04c0.6-1.333,1.193-2.853,1.78-4.56
		c-0.267-0.266-0.4-0.586-0.4-0.96c0-0.4,0.066-0.766,0.2-1.1c0.133-0.333,0.293-0.62,0.48-0.86c0.186-0.24,0.373-0.426,0.56-0.56
		c0.186-0.133,0.333-0.2,0.44-0.2c0.293,0,0.46,0.127,0.5,0.38c0.04,0.254,0.06,0.447,0.06,0.58c0,0.08-0.02,0.194-0.06,0.34
		c-0.04,0.147-0.094,0.3-0.16,0.46c-0.067,0.16-0.12,0.307-0.16,0.44c-0.04,0.134-0.06,0.214-0.06,0.24
		c0,0.374,0.213,0.714,0.64,1.02c0.426,0.307,0.893,0.654,1.4,1.04c0.506,0.387,0.973,0.854,1.4,1.4
		c0.426,0.547,0.64,1.247,0.64,2.1c0,0.614-0.106,1.233-0.32,1.86c-0.214,0.627-0.44,1.234-0.68,1.82
		c-0.24,0.587-0.467,1.14-0.68,1.66c-0.214,0.52-0.32,0.994-0.32,1.42c0,0.48,0.12,0.8,0.36,0.96c0.24,0.16,0.52,0.24,0.84,0.24
		c0.64,0,1.306-0.2,2-0.6c0.693-0.4,1.353-0.9,1.98-1.5c0.626-0.6,1.193-1.246,1.7-1.94c0.506-0.693,0.88-1.333,1.12-1.92l0.52,0.4
		c-0.374,0.854-0.86,1.7-1.46,2.54c-0.6,0.84-1.273,1.587-2.02,2.24c-0.747,0.654-1.534,1.187-2.36,1.6
		c-0.827,0.413-1.667,0.62-2.52,0.62c-0.907,0-1.62-0.24-2.14-0.72s-0.78-1.106-0.78-1.88c0-0.586,0.113-1.206,0.34-1.86
		c0.227-0.653,0.48-1.306,0.76-1.96c0.28-0.653,0.533-1.293,0.76-1.92s0.34-1.207,0.34-1.74c0-0.426-0.067-0.793-0.2-1.1
		c-0.134-0.306-0.314-0.573-0.54-0.8c-0.227-0.226-0.474-0.426-0.74-0.6c-0.267-0.173-0.52-0.353-0.76-0.54
		c-0.32,0.8-0.64,1.58-0.96,2.34c-0.32,0.76-0.64,1.474-0.96,2.14c-0.32,0.667-0.62,1.28-0.9,1.84c-0.28,0.56-0.527,1.014-0.74,1.36
		L62.27,92.835z"/>
	<path stroke="#000000" stroke-miterlimit="10" d="M87.39,89.436c0.106,0.027,0.253,0.067,0.44,0.12
		c0.186,0.054,0.366,0.12,0.54,0.2c0.173,0.08,0.32,0.174,0.44,0.28c0.12,0.107,0.18,0.24,0.18,0.4c0,0.24-0.12,0.574-0.36,1
		c-0.24,0.427-0.507,0.9-0.8,1.42c-0.294,0.52-0.56,1.054-0.8,1.6c-0.24,0.547-0.36,1.06-0.36,1.54c0,0.4,0.106,0.793,0.32,1.18
		c0.213,0.387,0.56,0.58,1.04,0.58c0.72,0,1.667-0.52,2.84-1.56c1.173-1.04,2.36-2.626,3.56-4.76l0.4,0.4
		c-0.427,1.094-0.947,2.087-1.56,2.98c-0.614,0.894-1.274,1.66-1.98,2.3c-0.707,0.64-1.434,1.133-2.18,1.48
		c-0.747,0.346-1.48,0.52-2.2,0.52c-0.987,0-1.714-0.294-2.18-0.88c-0.467-0.586-0.7-1.226-0.7-1.92c0-0.32,0.04-0.706,0.12-1.16
		c-1.174,1.547-2.227,2.707-3.16,3.48c-0.934,0.773-1.894,1.16-2.88,1.16c-0.854,0-1.56-0.273-2.12-0.82
		c-0.56-0.547-0.84-1.38-0.84-2.5c0-0.8,0.154-1.653,0.46-2.56c0.307-0.906,0.727-1.82,1.26-2.74c0.533-0.92,1.16-1.8,1.88-2.64
		c0.72-0.84,1.486-1.58,2.3-2.22s1.66-1.153,2.54-1.54c0.88-0.386,1.76-0.58,2.64-0.58c1.04,0,1.906,0.274,2.6,0.82
		c0.693,0.547,1.04,1.273,1.04,2.18c0,0.667-0.18,1.12-0.54,1.36c-0.36,0.24-0.834,0.36-1.42,0.36c0.133-0.48,0.2-0.946,0.2-1.4
		c0-0.613-0.147-1.14-0.44-1.58c-0.294-0.44-0.8-0.66-1.52-0.66c-0.64,0-1.28,0.187-1.92,0.56c-0.64,0.374-1.267,0.874-1.88,1.5
		c-0.614,0.627-1.187,1.34-1.72,2.14c-0.534,0.8-1.007,1.62-1.42,2.46c-0.414,0.84-0.734,1.667-0.96,2.48
		c-0.227,0.814-0.34,1.54-0.34,2.18c0,1.04,0.36,1.56,1.08,1.56c0.613,0,1.307-0.32,2.08-0.96c0.773-0.64,1.546-1.413,2.32-2.32
		c0.773-0.906,1.513-1.86,2.22-2.86C86.316,91.016,86.91,90.156,87.39,89.436z"/>
	<path stroke="#000000" stroke-miterlimit="10" d="M103.549,96.355c0-0.426,0.066-0.886,0.2-1.38c0.133-0.493,0.273-1.006,0.42-1.54
		c0.146-0.533,0.286-1.066,0.42-1.6c0.133-0.533,0.2-1.04,0.2-1.52c0-0.693-0.147-1.186-0.44-1.48
		c-0.294-0.293-0.654-0.44-1.08-0.44c-0.667,0-1.267,0.274-1.8,0.82c-0.534,0.547-1.02,1.227-1.46,2.04
		c-0.44,0.814-0.847,1.7-1.22,2.66c-0.374,0.96-0.74,1.847-1.1,2.66s-0.714,1.493-1.06,2.04c-0.347,0.546-0.707,0.82-1.08,0.82
		c-0.24,0-0.467-0.12-0.68-0.36c-0.214-0.24-0.387-0.554-0.52-0.94c-0.134-0.386-0.24-0.827-0.32-1.32
		c-0.08-0.493-0.12-1.006-0.12-1.54c0-1.28,0.213-2.806,0.64-4.58c0.426-1.773,0.986-3.62,1.68-5.54c0.693-1.92,1.48-3.82,2.36-5.7
		s1.76-3.573,2.64-5.08c0.88-1.506,1.726-2.72,2.54-3.64c0.813-0.92,1.513-1.38,2.1-1.38c0.24,0,0.446,0.08,0.62,0.24
		c0.173,0.16,0.307,0.367,0.4,0.62c0.093,0.254,0.166,0.527,0.22,0.82c0.053,0.293,0.08,0.574,0.08,0.84
		c0,0.614-0.12,1.354-0.36,2.22c-0.24,0.867-0.567,1.787-0.98,2.76c-0.414,0.974-0.907,1.967-1.48,2.98
		c-0.574,1.014-1.2,1.98-1.88,2.9c-0.68,0.92-1.407,1.76-2.18,2.52c-0.774,0.76-1.547,1.38-2.32,1.86
		c-0.24,0.587-0.454,1.227-0.64,1.92c-0.187,0.694-0.34,1.394-0.46,2.1c-0.12,0.707-0.214,1.394-0.28,2.06
		c-0.067,0.667-0.1,1.267-0.1,1.8c0,0.293,0.006,0.547,0.02,0.76c0.013,0.214,0.033,0.414,0.06,0.6c0.48-1.36,1-2.666,1.56-3.92
		c0.56-1.253,1.18-2.36,1.86-3.32c0.68-0.96,1.413-1.72,2.2-2.28c0.786-0.56,1.62-0.84,2.5-0.84c0.56,0,1.033,0.107,1.42,0.32
		c0.386,0.214,0.7,0.487,0.94,0.82c0.24,0.333,0.413,0.72,0.52,1.16c0.106,0.44,0.16,0.874,0.16,1.3c0,0.614-0.087,1.22-0.26,1.82
		s-0.374,1.18-0.6,1.74c-0.227,0.56-0.427,1.106-0.6,1.64c-0.174,0.534-0.26,1.04-0.26,1.52c0,0.534,0.113,0.92,0.34,1.16
		c0.226,0.24,0.513,0.36,0.86,0.36c0.453,0,0.96-0.173,1.52-0.52c0.56-0.346,1.12-0.806,1.68-1.38c0.56-0.573,1.106-1.246,1.64-2.02
		c0.533-0.773,1-1.6,1.4-2.48l0.52,0.48c-0.427,0.987-0.92,1.9-1.48,2.74c-0.56,0.84-1.174,1.574-1.84,2.2
		c-0.667,0.627-1.367,1.12-2.1,1.48c-0.734,0.36-1.487,0.54-2.26,0.54c-0.934,0-1.627-0.24-2.08-0.72
		C103.776,97.675,103.549,97.076,103.549,96.355z M105.669,72.596c-0.214,0-0.607,0.367-1.18,1.1c-0.574,0.734-1.22,1.707-1.94,2.92
		c-0.72,1.213-1.447,2.6-2.18,4.16c-0.734,1.56-1.354,3.154-1.86,4.78c0.906-0.747,1.8-1.727,2.68-2.94s1.666-2.453,2.36-3.72
		c0.693-1.266,1.247-2.453,1.66-3.56c0.413-1.106,0.62-1.913,0.62-2.42C105.83,72.703,105.776,72.596,105.669,72.596z"/>
	<path stroke="#000000" stroke-miterlimit="10" d="M137.908,88.116c0.027-0.56,0.154-1.02,0.381-1.38
		c0.227-0.36,0.525-0.646,0.9-0.86c0.373-0.213,0.806-0.36,1.299-0.44c0.494-0.08,1.021-0.12,1.58-0.12
		c1.201,0,2.313,0.107,3.34,0.32c1.027,0.213,1.953,0.333,2.781,0.36c-0.295,0.614-0.58,0.98-0.86,1.1
		c-0.28,0.12-0.554,0.18-0.82,0.18c-0.454,0.027-0.874,0.04-1.26,0.04c-0.388,0-0.74,0-1.06,0c-0.188,1.84-0.694,3.607-1.521,5.3
		c-0.827,1.693-1.86,3.187-3.101,4.48c-1.239,1.293-2.646,2.333-4.219,3.12c-1.574,0.787-3.215,1.18-4.921,1.18
		c-1.2,0-2.28-0.194-3.239-0.58c-0.961-0.387-1.781-0.914-2.461-1.58s-1.199-1.44-1.56-2.32s-0.54-1.813-0.54-2.8
		c0-1.227,0.268-2.433,0.8-3.62c0.533-1.187,1.273-2.253,2.22-3.2c0.947-0.946,2.047-1.74,3.301-2.38
		c1.253-0.64,2.6-1.026,4.039-1.16c-1.039-0.853-1.807-1.84-2.299-2.96c-0.494-1.12-0.74-2.24-0.74-3.36
		c0-1.066,0.206-2.093,0.619-3.08c0.414-0.986,0.986-1.866,1.721-2.64c0.732-0.773,1.605-1.393,2.619-1.86
		c1.014-0.466,2.121-0.7,3.32-0.7c2.906,0,4.36,1.414,4.36,4.24c0,0.747-0.094,1.487-0.28,2.22s-0.434,1.387-0.74,1.96
		c-0.307,0.574-0.64,1.04-1,1.4c-0.359,0.36-0.699,0.54-1.02,0.54c-0.293,0-0.574-0.126-0.84-0.38
		c-0.268-0.253-0.48-0.553-0.641-0.9c0.934-0.826,1.714-1.686,2.34-2.58c0.627-0.894,0.941-1.86,0.941-2.9
		c0-0.826-0.221-1.5-0.66-2.02c-0.44-0.52-1.127-0.78-2.061-0.78s-1.76,0.227-2.48,0.68c-0.72,0.454-1.319,1.054-1.799,1.8
		c-0.48,0.747-0.848,1.614-1.101,2.6c-0.254,0.987-0.38,2.014-0.38,3.08c0,0.48,0.033,0.987,0.1,1.52
		c0.066,0.534,0.18,1.067,0.34,1.6c0.16,0.534,0.394,1.054,0.7,1.56c0.306,0.507,0.7,0.96,1.181,1.36
		c-1.334,0.213-2.547,0.66-3.641,1.34c-1.094,0.68-2.027,1.494-2.8,2.44c-0.774,0.947-1.367,1.967-1.78,3.06
		c-0.414,1.094-0.619,2.174-0.619,3.24c0,0.667,0.092,1.34,0.279,2.02c0.186,0.68,0.48,1.3,0.88,1.86
		c0.399,0.56,0.927,1.02,1.58,1.38s1.446,0.54,2.38,0.54c1.413,0,2.787-0.36,4.12-1.08c1.333-0.72,2.526-1.673,3.58-2.86
		s1.933-2.54,2.64-4.06s1.153-3.08,1.34-4.68c-0.426,0.027-0.807,0.054-1.14,0.08c-0.333,0.027-0.667,0.06-1,0.1
		s-0.667,0.094-1,0.16c-0.333,0.067-0.714,0.14-1.14,0.22L137.908,88.116z"/>
	<path stroke="#000000" stroke-miterlimit="10" d="M163.748,72.036c0.134-0.906,0.713-1.606,1.74-2.1
		c1.026-0.493,2.62-0.74,4.78-0.74c0.8,0,1.613,0.034,2.44,0.1c0.826,0.067,1.619,0.14,2.379,0.22s1.447,0.167,2.061,0.26
		c0.613,0.094,1.105,0.18,1.48,0.26c-0.16,0.24-0.367,0.44-0.621,0.6c-0.254,0.16-0.527,0.28-0.82,0.36s-0.586,0.134-0.879,0.16
		c-0.295,0.027-0.547,0.04-0.76,0.04c-0.534,0-1.034,0.007-1.5,0.02c-0.467,0.014-0.914,0.02-1.34,0.02
		c0.293,0.214,0.506,0.507,0.64,0.88c0.133,0.374,0.2,0.707,0.2,1s-0.067,0.887-0.2,1.78c-0.134,0.894-0.32,1.974-0.56,3.24
		c-0.24,1.267-0.534,2.66-0.881,4.18s-0.733,3.06-1.16,4.62c-0.426,1.56-0.879,3.08-1.359,4.56s-0.986,2.807-1.52,3.98
		c-0.534,1.2-1.067,2.18-1.601,2.94c-0.534,0.76-1.067,1.36-1.601,1.8c-0.533,0.44-1.08,0.74-1.64,0.9
		c-0.56,0.16-1.134,0.24-1.72,0.24c-0.48,0-0.974-0.06-1.48-0.18c-0.506-0.12-0.967-0.367-1.379-0.74
		c-0.414-0.374-0.761-0.9-1.041-1.58c-0.279-0.68-0.42-1.58-0.42-2.7c0-0.773,0.074-1.56,0.221-2.36c0.146-0.8,0.346-1.52,0.6-2.16
		c0.254-0.64,0.566-1.167,0.939-1.58c0.373-0.413,0.801-0.62,1.28-0.62c0.32,0,0.693,0.107,1.12,0.32
		c-0.96,2.454-1.439,4.587-1.439,6.4c0,1.2,0.213,2.133,0.64,2.8c0.427,0.666,1.054,1,1.88,1c0.346,0,0.666-0.067,0.96-0.2
		c0.293-0.134,0.587-0.36,0.88-0.68c0.293-0.32,0.58-0.747,0.86-1.28s0.565-1.213,0.86-2.04c0.346-0.96,0.713-2.113,1.1-3.46
		c0.387-1.346,0.779-2.786,1.18-4.32c0.4-1.533,0.787-3.1,1.16-4.7s0.727-3.146,1.061-4.64c0.332-1.493,0.633-2.88,0.899-4.16
		c0.267-1.28,0.479-2.36,0.64-3.24c-0.986,0-1.847,0.02-2.58,0.06s-1.399,0.087-2,0.14c-0.6,0.054-1.174,0.127-1.72,0.22
		C164.981,71.75,164.389,71.875,163.748,72.036z"/>
	<path stroke="#000000" stroke-miterlimit="10" d="M179.107,84.355c0.24,0,0.447,0.074,0.621,0.22s0.26,0.367,0.26,0.66
		c0,0.32-0.221,0.847-0.66,1.58c-0.439,0.734-0.92,1.56-1.439,2.48s-0.994,1.894-1.42,2.92c-0.428,1.027-0.641,2.007-0.641,2.94
		c0,0.96,0.16,1.6,0.48,1.92c0.32,0.32,0.812,0.48,1.48,0.48c0.453,0,0.92-0.106,1.398-0.32c0.48-0.213,0.98-0.56,1.5-1.04
		c0.521-0.48,1.055-1.106,1.602-1.88c0.545-0.773,1.1-1.733,1.66-2.88l0.359,0.4c-0.4,1.147-0.887,2.167-1.461,3.06
		c-0.572,0.894-1.207,1.64-1.898,2.24c-0.695,0.6-1.428,1.053-2.201,1.36c-0.773,0.306-1.547,0.46-2.32,0.46
		c-1.039,0-1.812-0.327-2.319-0.98c-0.507-0.653-0.761-1.446-0.761-2.38c0-0.506,0.08-1.133,0.24-1.88
		c0.16-0.746,0.381-1.54,0.66-2.38c0.28-0.84,0.6-1.673,0.961-2.5c0.359-0.826,0.752-1.573,1.18-2.24
		c0.426-0.667,0.873-1.207,1.34-1.62C178.195,84.562,178.654,84.355,179.107,84.355z M181.229,80.636c-0.453,0-0.84-0.106-1.16-0.32
		c-0.32-0.213-0.48-0.546-0.48-1c0-0.266,0.094-0.526,0.281-0.78c0.186-0.253,0.42-0.48,0.699-0.68
		c0.279-0.2,0.594-0.353,0.939-0.46c0.348-0.106,0.68-0.16,1-0.16c0.4,0,0.721,0.094,0.961,0.28c0.24,0.187,0.359,0.507,0.359,0.96
		c0,0.24-0.074,0.494-0.221,0.76c-0.146,0.267-0.346,0.5-0.6,0.7s-0.533,0.367-0.84,0.5
		C181.861,80.569,181.549,80.636,181.229,80.636z"/>
	<path stroke="#000000" stroke-miterlimit="10" d="M193.588,98.795c-0.16,0-0.354-0.014-0.58-0.04
		c-0.227-0.027-0.453-0.074-0.68-0.14c-0.227-0.067-0.414-0.154-0.561-0.26c-0.146-0.107-0.219-0.227-0.219-0.36
		c0-0.187,0.133-0.64,0.398-1.36c0.268-0.72,0.555-1.54,0.861-2.46c0.307-0.92,0.592-1.873,0.859-2.86
		c0.266-0.986,0.4-1.826,0.4-2.52c0-0.453-0.074-0.82-0.221-1.1c-0.146-0.28-0.406-0.42-0.779-0.42c-0.588,0-1.295,0.36-2.121,1.08
		c-0.826,0.72-1.674,1.64-2.539,2.76c-0.867,1.12-1.699,2.374-2.5,3.76c-0.801,1.387-1.439,2.76-1.92,4.12
		c-0.188,0-0.406-0.027-0.66-0.08c-0.254-0.054-0.486-0.12-0.699-0.2c-0.215-0.08-0.4-0.167-0.561-0.26
		c-0.16-0.094-0.24-0.194-0.24-0.3c0-0.16,0.141-0.64,0.42-1.44c0.279-0.8,0.594-1.74,0.939-2.82c0.348-1.08,0.666-2.2,0.961-3.36
		c0.293-1.16,0.439-2.18,0.439-3.06c0.16-0.187,0.414-0.373,0.76-0.56c0.346-0.186,0.707-0.28,1.08-0.28
		c0.721,0,1.08,0.347,1.08,1.04c0,0.374-0.1,0.974-0.299,1.8c-0.201,0.827-0.447,1.747-0.74,2.76
		c0.533-0.853,1.139-1.726,1.818-2.62c0.682-0.894,1.387-1.713,2.121-2.46c0.732-0.747,1.486-1.354,2.26-1.82
		c0.773-0.466,1.52-0.7,2.24-0.7c0.826,0,1.393,0.3,1.699,0.9s0.461,1.313,0.461,2.14c0,0.507-0.047,1.034-0.141,1.58
		c-0.094,0.547-0.199,1.08-0.32,1.6c-0.119,0.52-0.254,0.994-0.398,1.42c-0.148,0.427-0.275,0.774-0.381,1.04
		c0.426-0.746,0.881-1.493,1.359-2.24c0.48-0.747,1-1.406,1.561-1.98c0.561-0.573,1.146-1.04,1.76-1.4
		c0.613-0.36,1.266-0.54,1.961-0.54c0.852,0,1.445,0.253,1.779,0.76c0.334,0.507,0.5,1.107,0.5,1.8c0,0.534-0.08,1.1-0.24,1.7
		s-0.326,1.2-0.5,1.8c-0.174,0.6-0.34,1.174-0.5,1.72c-0.16,0.547-0.24,1.034-0.24,1.46c0,0.374,0.086,0.694,0.26,0.96
		c0.174,0.267,0.486,0.4,0.941,0.4c0.559,0,1.092-0.2,1.6-0.6c0.506-0.4,0.986-0.914,1.439-1.54s0.873-1.307,1.26-2.04
		s0.74-1.446,1.061-2.14l0.48,0.56c-0.32,0.854-0.715,1.7-1.18,2.54c-0.467,0.84-0.988,1.607-1.561,2.3
		c-0.574,0.694-1.215,1.253-1.92,1.68c-0.707,0.426-1.461,0.64-2.26,0.64c-0.934,0-1.615-0.287-2.041-0.86s-0.639-1.26-0.639-2.06
		c0-0.48,0.059-0.973,0.18-1.48c0.119-0.506,0.26-1.006,0.42-1.5c0.16-0.493,0.299-0.966,0.42-1.42c0.119-0.453,0.18-0.88,0.18-1.28
		c0-0.533-0.121-0.906-0.359-1.12c-0.24-0.213-0.508-0.32-0.801-0.32c-0.666,0-1.395,0.514-2.18,1.54
		c-0.787,1.027-1.807,2.5-3.061,4.42c-0.426,0.64-0.787,1.287-1.08,1.94C194.135,97.669,193.854,98.262,193.588,98.795z"/>
</g>
<g>
	<path stroke="#000000" stroke-width="0.5" stroke-miterlimit="10" d="M71.093,149.312l0.451-0.082l-0.205,3.291l-0.072,0.072
		c-1.395-0.021-2.854-0.031-4.378-0.031c-1.415,0-2.717,0.01-3.907,0.031l-0.072-0.842c0.643-0.416,1.22-0.803,1.733-1.158
		s0.957-0.688,1.333-0.994c0.376-0.301,0.708-0.588,0.995-0.861s0.528-0.546,0.723-0.815c0.195-0.271,0.344-0.545,0.446-0.825
		s0.154-0.574,0.154-0.883c0-0.628-0.229-1.127-0.687-1.496s-1.019-0.555-1.682-0.555c-0.779,0-1.565,0.213-2.358,0.637l-0.39-0.678
		c1.278-0.867,2.56-1.302,3.845-1.302c0.964,0,1.765,0.234,2.405,0.702c0.639,0.469,0.958,1.12,0.958,1.953
		c0,0.521-0.116,1.004-0.349,1.451c-0.232,0.448-0.571,0.887-1.015,1.318c-0.444,0.43-0.988,0.866-1.63,1.307
		c-0.643,0.441-1.377,0.908-2.205,1.4l0.01,0.051h5.096L71.093,149.312z"/>
	<path stroke="#000000" stroke-width="0.5" stroke-miterlimit="10" d="M80.762,153.761c0,0.957,0.017,1.925,0.051,2.902
		c-0.656,0.068-1.278,0.157-1.866,0.267l-0.103-0.082c0.014-0.957,0.021-1.932,0.021-2.923v-1.876h-2.553
		c-0.937,0-2.075,0.011-3.415,0.03l-0.072-0.748c1.08-1.429,2.192-2.855,3.337-4.281c1.145-1.425,2.299-2.811,3.461-4.158l1.2-0.071
		c-0.041,1.531-0.062,2.96-0.062,4.286v3.928h2.348l0.041,1.045c-0.752-0.02-1.548-0.03-2.389-0.03V153.761z M78.865,145.21
		c-0.772,0.868-1.547,1.794-2.322,2.778c-0.776,0.984-1.54,1.999-2.292,3.046h4.614V145.21z"/>
	<path stroke="#000000" stroke-width="0.5" stroke-miterlimit="10" d="M104.644,145.076c0,2.365-0.671,4.268-2.014,5.706
		c-1.342,1.439-3.219,2.158-5.63,2.158c-2.289,0-4.06-0.664-5.313-1.994c-1.253-1.329-1.88-3.129-1.88-5.398
		c0-2.365,0.674-4.236,2.024-5.614c1.349-1.377,3.219-2.065,5.61-2.065c2.295,0,4.07,0.644,5.323,1.933
		C104.017,141.089,104.644,142.848,104.644,145.076z M92.052,145.21c0,2.229,0.451,3.936,1.354,5.121
		c0.902,1.187,2.225,1.779,3.968,1.779c1.716,0,2.982-0.538,3.799-1.615c0.817-1.076,1.226-2.767,1.226-5.07
		c0-2.16-0.434-3.821-1.302-4.983s-2.208-1.743-4.02-1.743c-1.757,0-3.034,0.538-3.83,1.615
		C92.45,141.39,92.052,143.022,92.052,145.21z"/>
	<path stroke="#000000" stroke-width="0.5" stroke-miterlimit="10" d="M114.764,151.833c-0.424,0.287-0.949,0.528-1.574,0.724
		c-0.626,0.194-1.246,0.292-1.861,0.292c-1.477,0-2.658-0.433-3.543-1.297c-0.885-0.865-1.328-2.019-1.328-3.461
		c0-1.565,0.5-2.835,1.502-3.81c1.001-0.974,2.278-1.461,3.83-1.461c1.005,0,1.979,0.205,2.922,0.615
		c-0.226,0.916-0.427,1.853-0.605,2.81l-0.4,0.062l-0.831-2.461c-0.314-0.109-0.67-0.164-1.066-0.164
		c-1.019,0-1.815,0.355-2.389,1.066s-0.861,1.651-0.861,2.819c0,1.375,0.325,2.39,0.974,3.046s1.678,0.984,3.086,0.984
		c0.649,0,1.343-0.064,2.082-0.194L114.764,151.833z"/>
	<path stroke="#000000" stroke-width="0.5" stroke-miterlimit="10" d="M119.07,144.174c-0.041,2.311-0.061,4.173-0.061,5.589
		c0,0.711,0.105,1.201,0.317,1.471c0.212,0.271,0.615,0.405,1.21,0.405c0.472,0,1.087-0.062,1.846-0.185l0.062,0.461
		c-1.183,0.596-2.239,0.893-3.169,0.893c-0.758,0-1.32-0.2-1.69-0.6c-0.37-0.4-0.555-1.003-0.555-1.811
		c0-1.325,0.024-3.421,0.071-6.285l-1.415-0.349l-0.062-0.421l1.582-0.133l0.723-2.481c0.392-0.103,0.748-0.201,1.069-0.298
		l0.103,0.072c-0.021,0.827-0.031,1.6-0.031,2.317v0.38h3.087v0.974H119.07z"/>
	<path stroke="#000000" stroke-width="0.5" stroke-miterlimit="10" d="M136.431,149.312l0.451-0.082l-0.205,3.291l-0.071,0.072
		c-1.395-0.021-2.854-0.031-4.379-0.031c-1.415,0-2.717,0.01-3.906,0.031l-0.072-0.842c0.643-0.416,1.221-0.803,1.732-1.158
		c0.514-0.355,0.957-0.688,1.334-0.994c0.375-0.301,0.707-0.588,0.994-0.861s0.528-0.546,0.723-0.815
		c0.195-0.271,0.344-0.545,0.446-0.825s0.153-0.574,0.153-0.883c0-0.628-0.229-1.127-0.687-1.496s-1.019-0.555-1.682-0.555
		c-0.779,0-1.565,0.213-2.358,0.637l-0.39-0.678c1.278-0.867,2.56-1.302,3.845-1.302c0.965,0,1.766,0.234,2.405,0.702
		c0.639,0.469,0.958,1.12,0.958,1.953c0,0.521-0.115,1.004-0.348,1.451c-0.232,0.448-0.571,0.887-1.016,1.318
		c-0.444,0.43-0.988,0.866-1.631,1.307c-0.643,0.441-1.377,0.908-2.204,1.4l0.011,0.051h5.096L136.431,149.312z"/>
	<path stroke="#000000" stroke-width="0.5" stroke-miterlimit="10" d="M148.295,147.589c0,1.6-0.462,2.872-1.384,3.819
		c-0.923,0.946-2.126,1.42-3.611,1.42c-1.431,0-2.584-0.434-3.462-1.302c-0.877-0.868-1.315-2.064-1.315-3.59
		c0-1.564,0.46-2.809,1.378-3.732c0.919-0.922,2.128-1.384,3.627-1.384c1.458,0,2.617,0.421,3.477,1.261
		C147.864,144.923,148.295,146.091,148.295,147.589z M140.676,147.671c0,1.354,0.24,2.416,0.72,3.188s1.169,1.159,2.068,1.159
		c0.913,0,1.587-0.346,2.022-1.036c0.437-0.69,0.654-1.746,0.654-3.169c0-1.395-0.238-2.445-0.715-3.152
		c-0.477-0.708-1.167-1.062-2.072-1.062c-0.927,0-1.604,0.339-2.033,1.015C140.891,145.292,140.676,146.311,140.676,147.671z"/>
	<path stroke="#000000" stroke-width="0.5" stroke-miterlimit="10" d="M157.605,149.312l0.451-0.082l-0.205,3.291l-0.072,0.072
		c-1.395-0.021-2.854-0.031-4.379-0.031c-1.414,0-2.717,0.01-3.906,0.031l-0.072-0.842c0.643-0.416,1.221-0.803,1.733-1.158
		s0.957-0.688,1.333-0.994c0.376-0.301,0.707-0.588,0.994-0.861s0.529-0.546,0.723-0.815c0.195-0.271,0.344-0.545,0.447-0.825
		c0.102-0.28,0.153-0.574,0.153-0.883c0-0.628-0.229-1.127-0.687-1.496c-0.459-0.369-1.02-0.555-1.682-0.555
		c-0.779,0-1.566,0.213-2.359,0.637l-0.389-0.678c1.277-0.867,2.56-1.302,3.845-1.302c0.964,0,1.765,0.234,2.405,0.702
		c0.639,0.469,0.958,1.12,0.958,1.953c0,0.521-0.116,1.004-0.349,1.451c-0.232,0.448-0.57,0.887-1.016,1.318
		c-0.443,0.43-0.987,0.866-1.63,1.307c-0.643,0.441-1.378,0.908-2.204,1.4l0.01,0.051h5.096L157.605,149.312z"/>
	<path stroke="#000000" stroke-width="0.5" stroke-miterlimit="10" d="M169.469,147.589c0,1.6-0.461,2.872-1.383,3.819
		c-0.923,0.946-2.127,1.42-3.611,1.42c-1.431,0-2.584-0.434-3.462-1.302s-1.315-2.064-1.315-3.59c0-1.564,0.459-2.809,1.378-3.732
		c0.919-0.922,2.128-1.384,3.627-1.384c1.458,0,2.616,0.421,3.477,1.261C169.039,144.923,169.469,146.091,169.469,147.589z
		 M161.85,147.671c0,1.354,0.24,2.416,0.721,3.188c0.479,0.772,1.168,1.159,2.068,1.159c0.912,0,1.586-0.346,2.022-1.036
		s0.654-1.746,0.654-3.169c0-1.395-0.238-2.445-0.715-3.152c-0.477-0.708-1.167-1.062-2.073-1.062c-0.926,0-1.604,0.339-2.033,1.015
		C162.064,145.292,161.85,146.311,161.85,147.671z"/>
</g>
<g>
	<path d="M71.9,170.804c0-0.504,0.12-1.035,0.36-1.593c0.24-0.558,0.582-1.077,1.026-1.557c0.444-0.48,0.984-0.876,1.62-1.188
		c0.636-0.312,1.344-0.468,2.124-0.468c0.696,0,1.185,0.171,1.467,0.513c0.282,0.342,0.423,0.771,0.423,1.287
		c0,0.324-0.045,0.672-0.135,1.044c-0.09,0.372-0.205,0.735-0.342,1.089c-0.138,0.354-0.288,0.69-0.45,1.009
		c-0.162,0.317-0.315,0.591-0.459,0.818c-0.216-0.048-0.369-0.138-0.459-0.27c-0.09-0.132-0.135-0.3-0.135-0.504
		c0-0.252,0.054-0.543,0.162-0.873s0.231-0.666,0.369-1.009c0.138-0.342,0.261-0.678,0.369-1.008s0.162-0.627,0.162-0.891
		c0-0.24-0.072-0.429-0.216-0.567c-0.144-0.138-0.408-0.207-0.792-0.207c-0.564,0-1.089,0.136-1.575,0.405
		c-0.486,0.271-0.906,0.606-1.26,1.008c-0.354,0.402-0.63,0.834-0.828,1.296c-0.198,0.463-0.297,0.88-0.297,1.251
		c0,0.444,0.132,0.825,0.396,1.144c0.264,0.318,0.597,0.609,0.999,0.873c0.402,0.264,0.833,0.519,1.296,0.765
		c0.462,0.246,0.894,0.528,1.296,0.846c0.402,0.318,0.735,0.69,0.999,1.116c0.264,0.427,0.396,0.945,0.396,1.558
		c0,0.624-0.141,1.173-0.423,1.646c-0.282,0.475-0.648,0.873-1.098,1.197c-0.45,0.324-0.954,0.569-1.512,0.738
		c-0.558,0.167-1.113,0.252-1.665,0.252c-0.492,0-0.963-0.066-1.413-0.198c-0.45-0.133-0.849-0.33-1.197-0.594
		c-0.348-0.265-0.627-0.601-0.837-1.009c-0.21-0.407-0.315-0.882-0.315-1.422c0-0.468,0.075-0.857,0.225-1.17
		c0.15-0.312,0.335-0.558,0.558-0.738c0.222-0.18,0.468-0.309,0.738-0.387s0.531-0.117,0.783-0.117
		c-0.324,0.349-0.57,0.732-0.738,1.152s-0.252,0.84-0.252,1.26c0,0.336,0.057,0.654,0.171,0.954c0.114,0.3,0.282,0.567,0.504,0.801
		c0.222,0.234,0.507,0.42,0.855,0.559c0.348,0.138,0.756,0.207,1.224,0.207c0.408,0,0.81-0.058,1.206-0.171
		c0.396-0.114,0.753-0.279,1.071-0.495s0.576-0.489,0.774-0.819c0.198-0.33,0.297-0.711,0.297-1.143
		c0-0.517-0.135-0.957-0.405-1.323s-0.609-0.696-1.017-0.99c-0.408-0.294-0.846-0.573-1.314-0.837
		c-0.468-0.264-0.906-0.546-1.314-0.846c-0.408-0.3-0.747-0.64-1.017-1.018S71.9,171.344,71.9,170.804z"/>
	<path d="M84.77,175.142c0.048,0.013,0.114,0.03,0.198,0.055c0.084,0.023,0.165,0.054,0.243,0.09s0.144,0.078,0.198,0.126
		c0.054,0.048,0.081,0.107,0.081,0.18c0,0.108-0.054,0.259-0.162,0.45c-0.108,0.192-0.228,0.405-0.36,0.639
		c-0.132,0.234-0.252,0.475-0.36,0.721s-0.162,0.477-0.162,0.692c0,0.181,0.048,0.357,0.144,0.531s0.252,0.261,0.468,0.261
		c0.324,0,0.75-0.233,1.278-0.702c0.528-0.468,1.062-1.182,1.602-2.142l0.18,0.18c-0.192,0.492-0.426,0.939-0.702,1.342
		c-0.276,0.401-0.573,0.746-0.891,1.034s-0.645,0.511-0.981,0.666c-0.336,0.156-0.666,0.234-0.99,0.234
		c-0.444,0-0.771-0.132-0.981-0.396c-0.21-0.264-0.315-0.552-0.315-0.863c0-0.145,0.018-0.318,0.054-0.522
		c-0.528,0.696-1.002,1.219-1.422,1.566c-0.42,0.348-0.853,0.521-1.296,0.521c-0.384,0-0.702-0.123-0.954-0.369
		s-0.378-0.62-0.378-1.125c0-0.359,0.069-0.743,0.207-1.151c0.138-0.408,0.327-0.819,0.567-1.233c0.24-0.414,0.522-0.81,0.846-1.188
		c0.324-0.378,0.669-0.711,1.035-0.999c0.366-0.288,0.747-0.52,1.143-0.693s0.792-0.261,1.188-0.261c0.468,0,0.858,0.123,1.17,0.369
		s0.468,0.573,0.468,0.98c0,0.301-0.081,0.504-0.243,0.612s-0.375,0.162-0.639,0.162c0.06-0.216,0.09-0.426,0.09-0.63
		c0-0.276-0.066-0.514-0.198-0.711c-0.132-0.198-0.36-0.298-0.684-0.298c-0.288,0-0.576,0.085-0.864,0.253
		c-0.288,0.168-0.57,0.393-0.846,0.675c-0.276,0.282-0.534,0.603-0.774,0.963c-0.24,0.359-0.453,0.729-0.639,1.106
		s-0.33,0.751-0.432,1.116c-0.102,0.366-0.153,0.693-0.153,0.981c0,0.468,0.162,0.702,0.486,0.702c0.276,0,0.588-0.145,0.936-0.433
		s0.696-0.636,1.044-1.044c0.348-0.407,0.681-0.837,0.999-1.287S84.554,175.466,84.77,175.142z"/>
	<path d="M95.498,176.294c-0.264,0.601-0.555,1.002-0.873,1.206s-0.621,0.306-0.909,0.306c-0.396,0-0.726-0.144-0.99-0.432
		s-0.438-0.726-0.522-1.314c-0.216,0.433-0.465,0.864-0.747,1.297c-0.282,0.432-0.573,0.818-0.873,1.16
		c-0.3,0.343-0.606,0.618-0.918,0.828s-0.612,0.315-0.9,0.315c-0.384,0-0.645-0.184-0.783-0.549
		c-0.138-0.366-0.207-0.843-0.207-1.432c0-0.023,0.006-0.213,0.018-0.566c0.012-0.354,0.042-0.951,0.09-1.791
		c0.024-0.324,0.06-0.546,0.108-0.666s0.204-0.181,0.468-0.181c0.204,0,0.333,0.039,0.387,0.117s0.081,0.231,0.081,0.459
		c0,0.396-0.027,0.861-0.081,1.396s-0.081,1.035-0.081,1.503c0,0.348,0.027,0.603,0.081,0.765s0.165,0.243,0.333,0.243
		c0.216,0,0.459-0.126,0.729-0.378s0.54-0.573,0.81-0.963s0.528-0.816,0.774-1.278c0.246-0.462,0.465-0.902,0.657-1.323
		c0.012-0.407,0.042-0.74,0.09-0.999c0.048-0.258,0.108-0.465,0.18-0.62c0.072-0.156,0.156-0.265,0.252-0.324
		c0.096-0.061,0.198-0.09,0.306-0.09c0.228,0,0.393,0.081,0.495,0.242c0.102,0.162,0.153,0.31,0.153,0.441
		c0,0.12-0.033,0.237-0.099,0.351c-0.066,0.114-0.138,0.259-0.216,0.433s-0.15,0.39-0.216,0.647
		c-0.066,0.259-0.099,0.585-0.099,0.981c0,0.144,0.009,0.297,0.027,0.459c0.018,0.162,0.057,0.312,0.117,0.45
		s0.144,0.249,0.252,0.333s0.258,0.126,0.45,0.126c0.252,0,0.492-0.096,0.72-0.288s0.462-0.54,0.702-1.044L95.498,176.294z"/>
	<path d="M100.375,173.576c0,0.456-0.135,0.885-0.405,1.287c-0.27,0.402-0.621,0.759-1.053,1.07
		c-0.432,0.312-0.912,0.567-1.44,0.766c-0.528,0.198-1.05,0.321-1.566,0.369c-0.024,0.12-0.042,0.233-0.054,0.342
		c-0.012,0.107-0.018,0.21-0.018,0.306c0,0.181,0.021,0.36,0.063,0.54s0.117,0.342,0.225,0.486c0.108,0.144,0.255,0.261,0.441,0.351
		s0.417,0.135,0.693,0.135c0.384,0,0.768-0.084,1.152-0.252c0.384-0.168,0.75-0.398,1.098-0.692s0.675-0.633,0.981-1.018
		c0.306-0.384,0.573-0.792,0.801-1.224l0.216,0.162c-0.24,0.54-0.534,1.029-0.882,1.467c-0.348,0.438-0.723,0.811-1.125,1.116
		c-0.402,0.306-0.828,0.543-1.278,0.711c-0.45,0.168-0.897,0.252-1.341,0.252c-0.732,0-1.281-0.201-1.647-0.603
		c-0.366-0.402-0.549-0.897-0.549-1.485c0-0.36,0.063-0.738,0.189-1.134c0.126-0.396,0.3-0.786,0.522-1.17
		c0.222-0.385,0.48-0.75,0.774-1.099c0.294-0.348,0.612-0.653,0.954-0.918c0.342-0.264,0.693-0.474,1.053-0.63
		c0.36-0.155,0.72-0.234,1.08-0.234c0.276,0,0.531,0.072,0.765,0.217C100.258,172.838,100.375,173.132,100.375,173.576z
		 M99.206,173.036c-0.288,0-0.594,0.111-0.918,0.333c-0.324,0.222-0.636,0.51-0.936,0.864c-0.3,0.354-0.57,0.75-0.81,1.188
		c-0.24,0.438-0.42,0.873-0.54,1.305c0.324-0.107,0.69-0.267,1.098-0.477c0.408-0.21,0.798-0.459,1.17-0.747
		c0.372-0.288,0.684-0.605,0.936-0.954c0.252-0.348,0.378-0.714,0.378-1.098c0-0.132-0.024-0.234-0.072-0.307
		C99.463,173.072,99.361,173.036,99.206,173.036z"/>
	<path d="M107.863,173.324c0.3,0.06,0.588,0.104,0.864,0.135c0.276,0.03,0.57,0.045,0.882,0.045c0.624,0,1.398-0.096,2.322-0.288
		c0.312-0.852,0.663-1.701,1.053-2.547c0.39-0.846,0.786-1.607,1.188-2.286c0.402-0.678,0.786-1.227,1.152-1.646
		s0.681-0.63,0.945-0.63c0.108,0,0.201,0.035,0.279,0.107c0.078,0.072,0.137,0.165,0.18,0.279c0.041,0.114,0.074,0.237,0.099,0.369
		s0.036,0.258,0.036,0.378c0,0.42-0.105,0.918-0.314,1.494c-0.21,0.575-0.496,1.16-0.855,1.755c-0.36,0.594-0.777,1.155-1.251,1.683
		c-0.474,0.528-0.975,0.954-1.503,1.278c-0.108,0.264-0.216,0.585-0.324,0.963s-0.204,0.765-0.288,1.161
		c-0.084,0.396-0.15,0.78-0.198,1.151c-0.048,0.372-0.072,0.679-0.072,0.918c0,0.133,0.003,0.246,0.009,0.343
		c0.006,0.096,0.015,0.186,0.027,0.27c0.216-0.612,0.45-1.199,0.702-1.764s0.531-1.062,0.837-1.494s0.636-0.774,0.99-1.026
		c0.354-0.252,0.729-0.378,1.125-0.378c0.252,0,0.465,0.049,0.639,0.145c0.174,0.096,0.315,0.219,0.423,0.369
		c0.108,0.149,0.186,0.323,0.233,0.521c0.049,0.198,0.072,0.394,0.072,0.585c0,0.276-0.039,0.549-0.117,0.819
		c-0.078,0.27-0.168,0.531-0.27,0.783s-0.192,0.498-0.27,0.737c-0.078,0.24-0.117,0.469-0.117,0.685c0,0.24,0.051,0.414,0.153,0.521
		c0.102,0.108,0.23,0.162,0.387,0.162c0.205,0,0.433-0.078,0.685-0.233c0.252-0.156,0.504-0.363,0.756-0.621
		s0.498-0.562,0.738-0.909c0.239-0.348,0.45-0.72,0.63-1.116l0.234,0.216c-0.192,0.444-0.414,0.855-0.666,1.233
		s-0.529,0.708-0.828,0.99c-0.301,0.281-0.615,0.504-0.945,0.666c-0.33,0.161-0.669,0.242-1.017,0.242
		c-0.42,0-0.732-0.107-0.936-0.323c-0.204-0.217-0.306-0.486-0.306-0.811c0-0.191,0.03-0.398,0.09-0.621
		c0.06-0.222,0.123-0.452,0.189-0.692s0.129-0.48,0.189-0.721c0.06-0.239,0.09-0.468,0.09-0.684c0-0.312-0.066-0.534-0.198-0.666
		c-0.132-0.132-0.294-0.198-0.486-0.198c-0.3,0-0.57,0.123-0.81,0.369c-0.24,0.246-0.459,0.552-0.657,0.918
		c-0.198,0.366-0.381,0.765-0.549,1.197c-0.168,0.432-0.333,0.831-0.495,1.197s-0.321,0.672-0.477,0.918
		c-0.156,0.245-0.318,0.368-0.486,0.368c-0.108,0-0.21-0.054-0.306-0.161c-0.096-0.108-0.174-0.25-0.234-0.424
		c-0.06-0.174-0.108-0.371-0.144-0.594c-0.036-0.222-0.054-0.453-0.054-0.693c0-0.216,0.018-0.461,0.054-0.737
		c-0.456,0.816-1.017,1.479-1.683,1.989c-0.666,0.51-1.365,0.765-2.097,0.765c-1.068,0-1.602-0.594-1.602-1.782
		c0-0.264,0.03-0.573,0.09-0.927s0.141-0.735,0.243-1.144c0.102-0.407,0.222-0.824,0.36-1.251c0.138-0.426,0.285-0.843,0.441-1.251
		c-0.12-0.023-0.234-0.062-0.342-0.116c-0.108-0.055-0.21-0.1-0.306-0.136v-0.323c0.096,0.012,0.21,0.042,0.342,0.09
		s0.282,0.078,0.45,0.09c0.252-0.648,0.519-1.263,0.801-1.845s0.558-1.096,0.828-1.539c0.27-0.444,0.528-0.795,0.774-1.054
		c0.246-0.258,0.459-0.387,0.639-0.387c0.096,0,0.183,0.033,0.261,0.099c0.078,0.066,0.117,0.166,0.117,0.298
		c0,0.155-0.075,0.387-0.225,0.692c-0.15,0.307-0.342,0.663-0.576,1.071c-0.234,0.408-0.492,0.864-0.774,1.368
		C108.4,172.244,108.127,172.772,107.863,173.324z M111.104,176.042c0.083-0.396,0.171-0.771,0.261-1.125
		c0.09-0.354,0.213-0.759,0.369-1.215c-0.42,0.096-0.81,0.162-1.17,0.198c-0.36,0.035-0.708,0.054-1.044,0.054
		c-0.336,0-0.654-0.019-0.954-0.054c-0.3-0.036-0.6-0.084-0.9-0.145c-0.276,0.648-0.51,1.303-0.702,1.962
		c-0.192,0.66-0.288,1.314-0.288,1.962c0,0.528,0.078,0.9,0.234,1.116s0.414,0.324,0.774,0.324c0.624,0,1.236-0.276,1.836-0.828
		C110.119,177.74,110.647,176.99,111.104,176.042z M116.179,167.564c-0.096,0-0.264,0.132-0.504,0.396
		c-0.24,0.264-0.507,0.63-0.801,1.098c-0.294,0.469-0.594,1.018-0.9,1.647c-0.306,0.63-0.573,1.312-0.801,2.043
		c0.408-0.336,0.801-0.744,1.179-1.224c0.378-0.48,0.705-0.964,0.981-1.449c0.276-0.486,0.498-0.945,0.666-1.377
		c0.168-0.433,0.252-0.762,0.252-0.99C116.251,167.612,116.227,167.564,116.179,167.564z"/>
	<path d="M124.801,173.576c0,0.456-0.135,0.885-0.404,1.287s-0.621,0.759-1.053,1.07c-0.433,0.312-0.912,0.567-1.44,0.766
		s-1.05,0.321-1.565,0.369c-0.025,0.12-0.043,0.233-0.055,0.342c-0.012,0.107-0.018,0.21-0.018,0.306c0,0.181,0.021,0.36,0.062,0.54
		s0.117,0.342,0.225,0.486c0.108,0.144,0.256,0.261,0.441,0.351s0.417,0.135,0.693,0.135c0.384,0,0.768-0.084,1.152-0.252
		c0.383-0.168,0.749-0.398,1.098-0.692c0.348-0.294,0.675-0.633,0.98-1.018c0.307-0.384,0.573-0.792,0.801-1.224l0.217,0.162
		c-0.24,0.54-0.534,1.029-0.883,1.467c-0.348,0.438-0.723,0.811-1.125,1.116s-0.828,0.543-1.277,0.711
		c-0.45,0.168-0.897,0.252-1.342,0.252c-0.731,0-1.28-0.201-1.646-0.603c-0.365-0.402-0.549-0.897-0.549-1.485
		c0-0.36,0.062-0.738,0.189-1.134c0.125-0.396,0.299-0.786,0.521-1.17c0.222-0.385,0.48-0.75,0.773-1.099
		c0.295-0.348,0.613-0.653,0.955-0.918c0.342-0.264,0.692-0.474,1.053-0.63c0.359-0.155,0.72-0.234,1.08-0.234
		c0.275,0,0.531,0.072,0.765,0.217C124.684,172.838,124.801,173.132,124.801,173.576z M123.631,173.036
		c-0.287,0-0.594,0.111-0.918,0.333s-0.636,0.51-0.936,0.864c-0.301,0.354-0.57,0.75-0.811,1.188
		c-0.24,0.438-0.42,0.873-0.539,1.305c0.324-0.107,0.689-0.267,1.098-0.477s0.798-0.459,1.17-0.747
		c0.371-0.288,0.684-0.605,0.936-0.954c0.252-0.348,0.379-0.714,0.379-1.098c0-0.132-0.025-0.234-0.072-0.307
		C123.889,173.072,123.787,173.036,123.631,173.036z"/>
	<path d="M135.367,173.288c-0.133-0.18-0.359-0.271-0.684-0.271s-0.64,0.085-0.945,0.252c-0.307,0.169-0.594,0.391-0.864,0.666
		c-0.271,0.276-0.519,0.589-0.747,0.937s-0.423,0.699-0.585,1.053c-0.161,0.354-0.288,0.693-0.378,1.018
		c-0.09,0.323-0.135,0.6-0.135,0.827c0,0.276,0.057,0.489,0.171,0.64s0.272,0.225,0.478,0.225c0.239,0,0.524-0.117,0.854-0.351
		c0.329-0.234,0.672-0.567,1.026-0.999c0.354-0.433,0.705-0.951,1.053-1.558c0.348-0.605,0.666-1.286,0.953-2.043
		c0.336-0.863,0.685-1.752,1.045-2.664c0.359-0.911,0.713-1.739,1.062-2.483s0.679-1.353,0.99-1.827
		c0.312-0.474,0.595-0.711,0.847-0.711c0.096,0,0.18,0.039,0.252,0.117c0.071,0.078,0.107,0.177,0.107,0.297
		c0,0.192-0.102,0.52-0.307,0.98c-0.203,0.463-0.459,1.015-0.765,1.656c-0.306,0.643-0.639,1.341-0.999,2.098
		c-0.359,0.756-0.693,1.521-0.998,2.295c-0.307,0.773-0.562,1.529-0.766,2.268c-0.204,0.738-0.307,1.401-0.307,1.989
		c0,0.348,0.019,0.603,0.055,0.765c0.035,0.162,0.156,0.243,0.359,0.243c0.181,0,0.394-0.063,0.64-0.189
		c0.245-0.126,0.495-0.303,0.747-0.53c0.252-0.229,0.498-0.507,0.738-0.837c0.239-0.33,0.455-0.699,0.647-1.107l0.216,0.162
		c-0.18,0.468-0.404,0.897-0.675,1.287s-0.562,0.729-0.873,1.017s-0.64,0.514-0.981,0.675c-0.342,0.162-0.662,0.243-0.963,0.243
		c-0.228,0-0.416-0.042-0.566-0.126s-0.27-0.188-0.36-0.314c-0.09-0.126-0.155-0.271-0.198-0.433
		c-0.042-0.162-0.062-0.32-0.062-0.477c0-0.204,0.029-0.471,0.09-0.801s0.145-0.705,0.252-1.125
		c-0.288,0.479-0.592,0.924-0.908,1.332c-0.318,0.407-0.637,0.762-0.955,1.062s-0.629,0.534-0.936,0.702s-0.598,0.252-0.873,0.252
		c-0.156,0-0.312-0.03-0.468-0.09c-0.156-0.061-0.3-0.15-0.433-0.271c-0.132-0.12-0.24-0.275-0.324-0.468
		c-0.083-0.191-0.125-0.42-0.125-0.684c0-0.336,0.068-0.705,0.207-1.107c0.137-0.401,0.324-0.807,0.558-1.215
		s0.507-0.804,0.819-1.188c0.312-0.384,0.647-0.723,1.008-1.017c0.359-0.294,0.731-0.531,1.115-0.711
		c0.385-0.18,0.763-0.271,1.135-0.271c0.527,0,0.792,0.187,0.792,0.559c0,0.048-0.003,0.09-0.009,0.126
		S135.379,173.24,135.367,173.288z"/>
	<path d="M143.629,175.142c0.048,0.013,0.113,0.03,0.197,0.055c0.084,0.023,0.166,0.054,0.244,0.09s0.144,0.078,0.197,0.126
		c0.055,0.048,0.081,0.107,0.081,0.18c0,0.108-0.054,0.259-0.161,0.45c-0.108,0.192-0.229,0.405-0.361,0.639
		c-0.131,0.234-0.252,0.475-0.359,0.721s-0.162,0.477-0.162,0.692c0,0.181,0.048,0.357,0.145,0.531
		c0.096,0.174,0.252,0.261,0.468,0.261c0.323,0,0.749-0.233,1.278-0.702c0.527-0.468,1.062-1.182,1.602-2.142l0.18,0.18
		c-0.191,0.492-0.426,0.939-0.701,1.342c-0.277,0.401-0.574,0.746-0.892,1.034s-0.646,0.511-0.981,0.666
		c-0.336,0.156-0.666,0.234-0.989,0.234c-0.444,0-0.771-0.132-0.981-0.396c-0.21-0.264-0.314-0.552-0.314-0.863
		c0-0.145,0.018-0.318,0.054-0.522c-0.528,0.696-1.002,1.219-1.422,1.566c-0.421,0.348-0.853,0.521-1.296,0.521
		c-0.385,0-0.702-0.123-0.954-0.369s-0.378-0.62-0.378-1.125c0-0.359,0.068-0.743,0.207-1.151c0.138-0.408,0.326-0.819,0.566-1.233
		s0.522-0.81,0.846-1.188c0.324-0.378,0.67-0.711,1.035-0.999c0.366-0.288,0.748-0.52,1.144-0.693s0.792-0.261,1.188-0.261
		c0.467,0,0.857,0.123,1.17,0.369c0.312,0.246,0.467,0.573,0.467,0.98c0,0.301-0.08,0.504-0.242,0.612s-0.375,0.162-0.639,0.162
		c0.06-0.216,0.09-0.426,0.09-0.63c0-0.276-0.066-0.514-0.198-0.711c-0.132-0.198-0.36-0.298-0.685-0.298
		c-0.287,0-0.576,0.085-0.863,0.253c-0.288,0.168-0.57,0.393-0.846,0.675c-0.277,0.282-0.535,0.603-0.774,0.963
		c-0.24,0.359-0.453,0.729-0.64,1.106c-0.186,0.378-0.33,0.751-0.432,1.116c-0.102,0.366-0.152,0.693-0.152,0.981
		c0,0.468,0.162,0.702,0.485,0.702c0.276,0,0.588-0.145,0.937-0.433c0.348-0.288,0.695-0.636,1.044-1.044
		c0.348-0.407,0.681-0.837,0.999-1.287C143.146,175.853,143.413,175.466,143.629,175.142z"/>
	<path d="M151.928,173.54c-1.32,0.144-2.377,0.216-3.168,0.216h-0.271c-0.276,0.648-0.511,1.303-0.702,1.962
		c-0.191,0.66-0.288,1.314-0.288,1.962c0,0.528,0.078,0.9,0.233,1.116c0.156,0.216,0.414,0.324,0.774,0.324
		c0.624,0,1.235-0.276,1.837-0.828c0.6-0.552,1.127-1.302,1.584-2.25l0.233,0.18c-0.216,0.504-0.478,0.976-0.783,1.413
		c-0.306,0.438-0.639,0.816-0.999,1.134c-0.359,0.318-0.744,0.567-1.152,0.747c-0.408,0.181-0.822,0.271-1.242,0.271
		c-1.067,0-1.602-0.594-1.602-1.782c0-0.54,0.096-1.19,0.288-1.953c0.192-0.762,0.444-1.557,0.757-2.385
		c-0.121-0.023-0.234-0.045-0.343-0.063c-0.108-0.018-0.21-0.045-0.306-0.08v-0.324c0.096,0.012,0.209,0.024,0.342,0.036
		c0.132,0.012,0.281,0.023,0.45,0.035c0.252-0.647,0.522-1.274,0.81-1.881c0.288-0.605,0.573-1.146,0.855-1.62
		c0.281-0.474,0.552-0.852,0.81-1.134c0.259-0.281,0.478-0.423,0.657-0.423c0.096,0,0.183,0.033,0.261,0.099
		c0.078,0.066,0.117,0.166,0.117,0.298c0,0.155-0.075,0.387-0.226,0.692c-0.149,0.307-0.342,0.663-0.575,1.071
		c-0.234,0.408-0.492,0.864-0.774,1.368c-0.281,0.504-0.555,1.032-0.818,1.584h0.666c0.396,0,0.81-0.006,1.242-0.019
		c0.432-0.012,0.875-0.042,1.332-0.09V173.54z"/>
	<path d="M157.039,173.576c0,0.456-0.135,0.885-0.404,1.287c-0.271,0.402-0.621,0.759-1.055,1.07
		c-0.432,0.312-0.912,0.567-1.439,0.766s-1.05,0.321-1.565,0.369c-0.024,0.12-0.042,0.233-0.054,0.342
		c-0.013,0.107-0.019,0.21-0.019,0.306c0,0.181,0.021,0.36,0.063,0.54c0.041,0.18,0.117,0.342,0.225,0.486
		c0.107,0.144,0.255,0.261,0.441,0.351c0.186,0.09,0.416,0.135,0.693,0.135c0.383,0,0.768-0.084,1.15-0.252
		c0.385-0.168,0.75-0.398,1.1-0.692c0.348-0.294,0.674-0.633,0.98-1.018c0.307-0.384,0.572-0.792,0.801-1.224l0.217,0.162
		c-0.24,0.54-0.535,1.029-0.883,1.467c-0.348,0.438-0.723,0.811-1.125,1.116s-0.828,0.543-1.277,0.711
		c-0.451,0.168-0.898,0.252-1.342,0.252c-0.732,0-1.281-0.201-1.646-0.603c-0.366-0.402-0.549-0.897-0.549-1.485
		c0-0.36,0.062-0.738,0.188-1.134c0.126-0.396,0.3-0.786,0.522-1.17c0.221-0.385,0.479-0.75,0.773-1.099
		c0.294-0.348,0.612-0.653,0.953-0.918c0.344-0.264,0.693-0.474,1.055-0.63c0.359-0.155,0.719-0.234,1.08-0.234
		c0.275,0,0.529,0.072,0.764,0.217C156.922,172.838,157.039,173.132,157.039,173.576z M155.869,173.036
		c-0.289,0-0.594,0.111-0.918,0.333s-0.637,0.51-0.936,0.864c-0.301,0.354-0.57,0.75-0.811,1.188c-0.24,0.438-0.42,0.873-0.54,1.305
		c0.324-0.107,0.69-0.267,1.099-0.477c0.406-0.21,0.797-0.459,1.17-0.747c0.371-0.288,0.684-0.605,0.936-0.954
		c0.252-0.348,0.377-0.714,0.377-1.098c0-0.132-0.023-0.234-0.07-0.307C156.127,173.072,156.025,173.036,155.869,173.036z"/>
	<path d="M157.633,179.138c-0.155,0-0.29-0.039-0.404-0.116c-0.114-0.078-0.171-0.201-0.171-0.369c0-0.204,0.114-0.378,0.342-0.522
		c0.228-0.144,0.462-0.216,0.702-0.216c0.144,0,0.258,0.03,0.342,0.09c0.084,0.061,0.126,0.174,0.126,0.342
		c0,0.181-0.097,0.357-0.288,0.531C158.089,179.051,157.873,179.138,157.633,179.138z M158.155,177.104
		c0-0.217,0.033-0.469,0.099-0.757c0.066-0.288,0.147-0.585,0.243-0.891s0.204-0.615,0.324-0.927
		c0.12-0.312,0.228-0.595,0.324-0.847c0.336-0.863,0.684-1.752,1.044-2.664c0.359-0.911,0.714-1.739,1.062-2.483
		c0.349-0.744,0.678-1.353,0.99-1.827c0.312-0.474,0.594-0.711,0.846-0.711c0.097,0,0.181,0.039,0.252,0.117
		c0.072,0.078,0.108,0.177,0.108,0.297c0,0.168-0.099,0.504-0.297,1.008s-0.456,1.098-0.774,1.782
		c-0.317,0.684-0.675,1.419-1.07,2.205c-0.396,0.786-0.792,1.548-1.188,2.286c-0.396,0.737-0.768,1.41-1.116,2.016
		C158.653,176.315,158.371,176.78,158.155,177.104z"/>
</g>
<path fill="none" stroke="#000000" stroke-width="2" stroke-miterlimit="10" d="M92.529,232.117
	c3.467,2.785,8.312,4.582,12.193,7.154c3.797,2.517,7.495,5.447,11.256,7.741c-0.024,0.286-0.04,0.289-0.048,0.011
	c2.302-3.054,8.292-5.365,11.543-7.844c3.829-2.919,7.964-5.255,11.765-8.195c-15.449,0.24-30.979,0.761-46.709,0.761"/>
</svg>
